<?xml version="1.0" encoding="UTF-8"?>
<svg xmlns="http://www.w3.org/2000/svg" width="1024" height="1024" viewBox="0 0 1024 1024">
<g fill="none" stroke="#000000" stroke-width="70.7" stroke-linecap="round" stroke-linejoin="round">
<path d="M839 573L839 574L839 575L839 576L839 577L838 578L838 579L837 580L837 581L837 582L836 583L836 584L836 585L836 586L836 587L835 588L835 589L835 590L835 591L834 592L834 593L834 594L834 595L834 596L833 597L833 598L833 599L833 600L833 601L833 602L833 603L832 604L832 605L832 606L832 607L832 608L831 609L831 610L831 611L831 612L830 613L830 614L830 615L830 616L829 617L829 618L829 619L829 620L828 621L828 622L828 623L828 624L827 625L827 626L827 627L827 628L827 629L826 630L826 631L826 632L826 633L825 634L825 635L825 636L825 637L824 638L824 639L824 640L824 641L823 642L823 643L823 644L822 645L822 646L822 647L821 648L821 649L821 650L820 651L820 652L820 653L819 654L819 655L819 656L818 657L818 658L818 659L818 660L817 661L817 662L817 663L816 664L816 665L816 666L816 667L815 668L815 669L815 670L814 671L814 672L813 673L813 674L813 675L812 676L812 677L812 678L811 679L811 680L810 681L810 682L809 683L809 684L809 685L808 686L808 687L808 688L807 689L807 690L807 691L806 692L806 693L805 694L805 695L804 696L804 697L804 698L803 699L803 700L802 701L802 702L802 703L801 704L801 705L801 706L800 707L800 708L799 709L799 710L798 711L798 712L798 713L797 714L797 715L796 716L796 717L795 718L795 719L794 720L794 721L793 722L793 723L792 724L792 725L791 726L791 727L790 728L790 729L789 730L789 731L788 732L788 733L787 734L787 735L786 736L786 737L785 738L785 739L784 740L783 741L782 742L781 743L781 744L780 745L779 746L779 747L778 748L777 749L777 750L776 751L776 752L775 753L775 754L774 755L774 756L773 757L772 758L772 759L771 760L770 761L770 762L769 763L768 764L768 765L767 766L767 767L766 768L765 769L765 770L764 771L763 772L763 773L762 774L761 775L761 776L760 777L760 778L759 779L758 780L758 781L757 782L756 783L756 784L755 785L755 786L754 787L753 788L753 789L752 790L751 791L751 792L750 793L749 794L749 795L748 796L748 797L747 798L746 799L746 800L745 801L744 802L744 803L743 804L742 805L742 806L741 807L741 808L740 809L739 809L738 810L737 810L736 811L735 811L734 812L733 812L732 813L731 814L730 815L729 816L728 817L727 818L726 819L725 820L724 821L723 822L722 823L721 824L720 825L719 826L718 827L717 828L717 827"/>
<path d="M818 968L817 967L816 966L816 965L815 964L814 963L813 962L812 961L812 960L811 959L810 958L809 957L808 956L808 955L807 954L806 953L805 952L804 951L804 950L803 949L802 948L801 947L800 946L800 945L799 944L798 943L797 942L796 941L796 940L795 939L794 938L793 937L792 936L792 935L791 934L790 933L789 932L788 931L788 930L787 929L786 928L785 927L784 926L784 925L783 924L782 923L781 922L780 921L780 920L779 919L778 918L777 917L776 916L775 915L775 914L774 913L773 912L772 911L771 910L771 909L770 908L769 907L768 906L768 905L767 904L766 903L765 902L764 901L764 900L763 899L762 898L761 897L760 896L759 895L758 894L758 893L757 892L756 891L755 890L754 889L753 888L753 887L752 886L751 885L750 884L749 883L748 882L748 881L747 880L746 879L745 878L744 877L743 876L742 875L741 874L740 874L739 873L738 873L737 873L736 872L735 871L734 870L733 869L732 868L731 867L730 866L729 865L728 864L727 863L726 862L725 861L724 860L723 859L722 858L721 857L720 856L719 855L718 854L717 854"/>
<path d="M717 827L716 826L715 825L714 824L713 823L712 822L711 821L710 820L709 819L708 818L707 817L706 816L705 815L704 814L703 813L702 812L701 812L700 811L699 811L698 811L697 810L696 810L695 809L694 809L693 809L692 808L691 808L690 807L689 807L688 807L687 806L686 805L685 804L684 803L683 802L683 801L682 800L681 799L680 798L679 797L679 796L678 795L677 794L676 793L675 792L675 791L674 790L673 789L672 788L672 787L671 786L670 785L669 784L668 783L667 782L667 781L666 780L665 779L664 778L663 777L663 776L662 775L661 774L660 773L659 772L659 771L658 770L657 769L656 768L655 767L655 766L654 765L653 764L652 763L651 762L650 761L650 760L649 759L648 758L647 757L646 756L646 755L645 754L644 753L643 752L642 751L642 750L641 749L640 748L639 747L638 746L638 745L637 744L636 743L635 742L634 741L634 740L633 739L632 738L631 737L630 736L630 735L629 734L628 733L627 732L626 731L626 730L625 729L624 728L623 727L622 726L622 725L621 724L620 723L619 722L618 721L617 720L617 719L616 718L615 717L614 716L613 715L613 714L612 713L611 712L610 711L609 710L609 709L608 708L607 707L606 706L605 705L605 704L604 703L603 702L602 701L601 700L601 699L600 698L599 697L598 696L597 695L597 694L596 693L595 692L594 691L593 690L593 689L592 688L591 687L590 686L590 685L589 684L588 683L587 682L586 681L586 680L585 679L584 678L583 677L582 676L582 675L581 674L580 673L579 672L579 671L578 670L577 669L576 668L575 667L575 666L574 665L573 664L572 663L571 662L571 661L570 660L569 659L568 658L568 657L567 656L566 655L565 654L565 653L564 652L563 651L562 650L561 649L561 648L560 647L559 646L558 645L558 644L557 643L556 642L555 641L554 640L554 639L553 638L552 637L551 636L551 635L550 634L549 633L548 632L548 631L547 630L546 629L545 628L545 627L544 626L543 625L542 624L542 623L541 622L540 621L539 620L538 619L538 618L537 617L536 616L535 615L535 614L534 613L533 612L532 611L532 610L531 609L530 608L529 607L529 606L528 605L527 604L526 603L526 602L525 601L524 600L523 599L523 598L522 597L521 596L520 595L520 594L519 593L518 592L517 591L517 590L516 589L515 588L514 587L514 586L513 585L512 584L511 583L511 582L510 581L509 580L508 579L507 578L507 577L506 576L505 575L504 574L504 573L503 572L502 571L501 570L501 569L500 568L499 567L498 566L498 565L497 564L496 563L495 562L494 561L494 560L493 559L492 558L491 557L491 556L490 555L489 554L488 553L487 552L487 551L486 550L485 549L485 548L484 547L483 546L482 545L481 544L481 543L480 542L479 541L478 540L477 539L477 538L476 537L475 536L474 535L473 534L473 533L472 532L471 531L470 530L470 529L469 528L468 527L467 526L467 525L466 524L465 523L464 522L464 521L463 520L462 519L461 518L460 517L460 516L460 515L459 514L459 513L459 512L459 511L458 510L458 509L457 508L456 507L455 506L454 505L453 504L452 503L451 502L450 501L449 500L448 499L447 498L446 497L445 496L444 495L443 494L442 493L441 492L440 491L439 490L438 489L437 488L436 488"/>
<path d="M436 488L436 487L436 486L436 485L436 484"/>
<path d="M436 488L435 489L434 490L433 491L432 492L431 493L430 493L429 494L429 495L428 496L427 497L426 498L425 499L424 500L423 501L422 502L421 503L420 504L419 505L418 506L417 507L416 508L415 508L414 509L413 509L412 509L411 509L410 510L409 510L408 510L407 511L406 511L405 511L404 512L403 513L402 514L401 514L400 515L399 516L398 517L397 518L396 519L395 520L394 521L393 521L392 522L391 523L390 524L389 525L388 525L387 526L386 527L385 528L384 529L383 530L382 531L381 532L380 533L379 533L378 534L377 535L376 536L375 537L374 537L373 538L372 539L371 540L370 541L369 541L368 542L367 543L366 544L365 545L364 546L363 547L362 547L361 548L360 549L359 550L358 551L357 552L356 552L355 553L354 554L353 555L352 556L351 557L350 557L349 558L348 559L347 560L346 561L345 562L344 563L343 563L342 564L341 565L340 566L339 567L338 568L337 568L336 569L335 570L334 571L333 572L332 573L331 573L330 574L329 575L328 576L327 577L326 578L325 579L324 580L323 580L322 581L321 582L320 583L319 584L318 585L317 586L316 586L315 587L314 588L313 589L312 590L311 591L310 592L309 592L308 593L307 594L306 595L305 596L304 597L303 597L302 598L301 599L300 600L299 601L298 602L297 603L296 604L295 605L294 605L293 606L292 607L291 608L290 609L289 610L288 611L287 611L286 612L285 613L284 614L283 615L282 616L281 617L280 617L279 618L278 619L277 620L276 621L275 622L274 623L273 624L272 624L271 625L270 626L269 627L268 628L267 629L266 630L265 631L264 632L263 632L262 633L261 634L260 635L259 636L258 637L257 638L256 639L255 640L254 641L253 641L252 642L251 643L250 644L249 645L248 646L247 647L246 648L245 649L244 650L243 651L242 652L241 653L240 654L239 654L238 655L237 656L236 657L235 658L234 659L233 660L232 661L231 662L230 663L229 664L228 665L228 666L227 667L226 668L225 669L224 670L223 671L222 672L221 673L221 674L220 675L219 676L218 677L217 678L217 679L216 680L215 681L214 682L214 683L213 684L212 685L211 686L211 687L210 688L209 689L208 690L208 691L207 692L207 693L206 694L206 695L205 696L204 697L204 698L203 699L202 700L202 701L201 702L201 703L201 704L200 705L199 706L199 707L199 708L198 709L198 710L197 711L197 712L196 713L196 714L195 715L195 716L195 717L194 718L194 719L194 720L194 721L193 722L193 723L193 724L192 725L192 726L192 727L191 728L191 729L191 730L191 731L191 732L190 733L190 734L190 735L190 736L189 737L189 738L189 739L189 740L188 741L188 742L188 743L188 744L188 745L188 746L188 747L187 748L187 749L187 750L187 751L187 752L187 753L187 754L187 755L186 756L186 757L186 758L186 759L186 760L186 761L186 762L186 763L186 764L185 765L185 766L185 767L185 768L185 769L185 770L185 771L185 772L185 773L185 774L185 775L185 776L184 777L184 778L184 779L184 780L184 781L184 782L185 783L185 784L185 785L185 786L185 787L185 788L185 789L185 790L185 791L185 792L185 793L185 794L185 795L186 796L186 797L186 798L186 799L186 800L186 801L186 802L186 803L186 804L186 805L186 806L187 807L187 808L187 809L187 810L187 811L187 812L187 813L187 814L187 815L188 816L188 817L188 818L188 819L188 820L188 821L188 822L189 823L189 824L189 825L189 826L190 827L190 828L190 829L190 830L190 831L190 832L191 833L191 834L191 835L191 836L192 837L192 838L192 839L193 840L193 841L193 842L193 843L193 844L194 845L194 846L194 847L194 848L195 849L195 850L196 851L196 852L197 853L197 854L197 855L197 856L198 857L198 858L198 859L199 860L199 861L199 862L200 863L200 864L201 865L201 866L202 867L202 868L203 869L203 870L203 871L204 872L204 873L205 874L205 875L206 876L206 877L207 878L207 879L208 880L208 881L209 882L209 883L210 884L211 885L211 886L212 887L213 888L213 889L214 890L214 891L215 892L215 893L216 894L217 895L217 896L218 897L219 898L220 899L220 900L221 901L222 902L223 903L223 904L224 905L225 906L226 907L226 908L227 909L228 910L229 911L230 912L231 913L231 914L232 915L233 916L234 917L235 918L236 919L237 920L238 921L239 922L240 923L241 924L242 925L243 926L244 927L245 928L246 929L247 930L248 931L249 932L250 932L251 933L252 934L253 935L254 936L255 937L256 937L257 938L258 939L259 940L260 940L261 941L262 942L263 942L264 943L265 943L266 944L267 945L268 946L269 946L270 947L271 948L272 948L273 949L274 950L275 950L276 951L277 951L278 952L279 952L280 953L281 953L282 954L283 954L284 955L285 955L286 955L287 956L288 957L289 957L290 958L291 958L292 959L293 959L294 959L295 960L296 960L297 960L298 961L299 961L300 961L301 962L302 962L303 963L304 963L305 964L306 964L307 964L308 964L309 965L310 965L311 965L312 965L313 966L314 966L315 966L316 967L317 967L318 967L319 968L320 968L321 968L322 968L323 968L324 968L325 969L326 969L327 969L328 970L329 970L330 970L331 970L332 970L333 970L334 970L335 971L336 971L337 971L338 971L339 971L340 972L341 972L342 972L343 972L344 972L345 972L346 972L347 973L348 973L349 973L350 973L351 973L352 973L353 973L354 973L355 973L356 973L357 974L358 974L359 974L360 974L361 974L362 974L363 974L364 974L365 974L366 974L367 974L368 974L369 975L370 975L371 975L372 975L373 975L374 975L375 975L376 975L377 975L378 975L379 975L380 975L381 975L382 975L383 975L384 975L385 975L386 975L387 976L388 976L389 976L390 976L391 976L392 976L393 976L394 976L395 976L396 976L397 976L398 976L399 976L400 976L401 976L402 976L403 976L404 976L405 976L406 976L407 976L408 976L409 976L410 976L411 976L412 976L413 976L414 976L415 976L416 976L417 976L418 976L419 976L420 976L421 976L422 976L423 976L424 976L425 976L426 976L427 976L428 976L429 976L430 976L431 976L432 976L433 976L434 976L435 976L436 976L437 976L438 976L439 976L440 976L441 976L442 976L443 976L444 976L445 976L446 976L447 976L448 975L449 975L450 975L451 975L452 975L453 975L454 975L455 975L456 975L457 975L458 975L459 975L460 975L461 975L462 975L463 975L464 974L465 974L466 974L467 974L468 974L469 974L470 974L471 974L472 974L473 974L474 974L475 974L476 974L477 974L478 974L479 974L480 974L481 974L482 974L483 973L484 973L485 973L486 973L487 973L488 973L489 973L490 973L491 973L492 973L493 973L494 973L495 973L496 972L497 972L498 972L499 972L500 972L501 972L502 972L503 972L504 972L505 972L506 971L507 971L508 971L509 971L510 971L511 971L512 970L513 970L514 970L515 970L516 970L517 970L518 970L519 969L520 969L521 969L522 969L523 969L524 969L525 968L526 968L527 968L528 968L529 968L530 968L531 967L532 967L533 967L534 966L535 966L536 966L537 966L538 966L539 965L540 965L541 965L542 965L543 965L544 964L545 964L546 963L547 963L548 963L549 963L550 962L551 962L552 962L553 961L554 961L555 961L556 961L557 960L558 960L559 960L560 959L561 959L562 959L563 958L564 958L565 957L566 957L567 956L568 956L569 956L570 955L571 955L572 955L573 954L574 954L575 953L576 953L577 953L578 952L579 952L580 952L581 951L582 951L583 950L584 950L585 949L586 949L587 948L588 948L589 947L590 947L591 946L592 946L593 945L594 945L595 944L596 944L597 943L598 943L599 942L600 942L601 941L602 941L603 940L604 940L605 939L606 939L607 938L608 937L609 937L610 936L611 936L612 935L613 935L614 934L615 934L616 933L617 932L618 932L619 931L620 930L621 930L622 929L623 928L624 928L625 927L626 926L627 926L628 925L629 924L630 924L631 923L632 922L633 922L634 921L635 920L636 920L637 919L638 918L639 918L640 917L641 916L642 915L643 915L644 914L645 913L646 913L647 912L648 911L649 910L650 909L651 908L652 908L653 907L654 906L655 905L656 905L657 904L658 903L659 902L660 901L661 900L662 900L663 899L664 898L665 897L666 896L667 896L668 895L669 894L670 893L671 892L672 891L673 890L674 889L675 888L676 887L677 886L678 886L679 885L680 884L681 883L682 882L683 881L684 880L685 879L686 878L687 877L688 876L689 876L690 875L691 874L692 874L693 873L694 873L695 873L696 873L697 872L698 872L699 872L700 871L701 870L702 869L703 868L704 867L705 866L706 865L707 864L708 863L709 862L710 861L711 860L712 859L713 858L714 857L715 856L716 855L717 854"/>
<path d="M717 854L717 853L717 852L717 851L717 850L717 849L717 848L717 847L717 846L717 845L717 844L717 843L717 842L717 841L717 840L717 839L717 838L717 837L717 836L717 835L717 834L717 833L717 832L717 831L717 830L717 829"/>
<path d="M436 484L437 484L438 483L439 482L440 481L441 480L442 479L443 478L444 477L445 476L446 475L447 474L448 473L449 472L450 471L451 470L452 469L453 468L454 467L455 466L456 465L457 464L458 463L459 463L460 463L461 462L462 462L463 462L464 461L465 461L466 461L467 460L468 460L469 460L470 459L471 458L472 457L473 456L474 455L475 454L476 453L477 452L478 452L479 451L480 450L481 449L482 448L483 447L484 446L485 445L486 444L487 444L488 443L489 442L490 441L491 440L492 439L493 438L494 437L495 436L496 435L497 435L498 434L499 433L500 432L501 431L502 430L503 429L504 428L505 427L506 427L507 426L508 425L509 424L510 423L511 422L512 421L513 420L514 419L515 418L516 417L517 417L518 416L519 415L520 414L521 413L522 412L523 411L524 410L525 409L526 409L527 408L528 407L529 406L530 405L531 404L532 403L533 402L534 401L535 401L536 400L537 399L538 398L539 397L540 396L541 395L542 394L543 393L544 392L545 392L546 391L547 390L548 389L549 388L550 387L551 386L552 385L553 384L554 383L555 382L556 381L557 380L558 379L559 379L560 378L561 377L562 376L563 375L564 374L565 373L566 372L567 371L568 370L569 369L570 368L571 367L572 366L573 365L574 364L575 363L576 362L577 361L578 360L579 359L580 358L581 357L582 356L583 355L584 354L585 353L586 352L587 351L588 350L589 349L590 348L591 347L592 346L593 345L594 344L595 343L596 342L597 341L598 340L598 339L599 338L600 337L601 336L602 335L603 334L604 333L605 332L605 331L606 330L607 329L608 328L609 327L610 326L610 325L611 324L612 323L612 322L613 321L614 320L614 319L615 318L616 317L616 316L617 315L618 314L618 313L619 312L620 311L620 310L621 309L621 308L622 307L622 306L623 305L623 304L624 303L624 302L625 301L625 300L626 299L626 298L627 297L627 296L628 295L628 294L629 293L629 292L630 291L630 290L630 289L631 288L631 287L631 286L632 285L632 284L633 283L633 282L634 281L634 280L634 279L634 278L635 277L635 276L635 275L635 274L636 273L636 272L636 271L637 270L637 269L637 268L637 267L637 266L638 265L638 264L638 263L638 262L639 261L639 260L639 259L639 258L639 257L639 256L639 255L640 254L640 253L640 252L640 251L640 250L640 249L640 248L641 247L641 246L641 245L641 244L641 243L641 242L641 241L641 240L641 239L642 238L642 237L642 236L642 235L642 234L642 233L642 232L642 231L642 230L642 229L643 228L643 227L643 226L643 225L643 224L643 223L643 222L643 221L643 220L643 219L643 218L643 217L643 216L643 215L643 214L642 213L642 212L642 211L642 210L642 209L642 208L642 207L642 206L642 205L642 204L641 203L641 202L641 201L641 200L641 199L641 198L641 197L641 196L640 195L640 194L640 193L640 192L640 191L640 190L640 189L639 188L639 187L639 186L639 185L639 184L639 183L639 182L638 181L638 180L638 179L638 178L638 177L637 176L637 175L637 174L637 173L636 172L636 171L636 170L635 169L635 168L635 167L635 166L635 165L634 164L634 163L633 162L633 161L632 160L632 159L632 158L631 157L631 156L631 155L630 154L630 153L630 152L629 151L629 150L628 149L628 148L627 147L626 146L626 145L626 144L625 143L625 142L624 141L623 140L623 139L623 138L622 137L622 136L621 135L620 134L620 133L619 132L619 131L618 130L617 129L617 128L616 127L615 126L614 125L614 124L613 123L612 122L612 121L611 120L610 119L610 118L609 117L608 116L607 115L607 114L606 113L605 112L604 111L603 110L602 109L601 108L600 107L600 106L599 105L598 104L597 103L596 102L595 101L594 100L593 99L592 98L591 97L590 96L589 95L588 94L587 93L586 93L585 92L584 91L583 90L582 89L581 88L580 87L579 86L578 86L577 86L576 85L575 84L574 83L573 82L572 82L571 81L570 80L569 79L568 79L567 78L566 78L565 77L564 76L563 76L562 75L561 75L560 74L559 74L558 73L557 72L556 72L555 71L554 70L553 70L552 69L551 69L550 69L549 68L548 67L547 67L546 66L545 66L544 66L543 65L542 65L541 64L540 64L539 64L538 63L537 62L536 62L535 62L534 61L533 61L532 60L531 60L530 60L529 59L528 59L527 59L526 59L525 58L524 58L523 57L522 57L521 57L520 56L519 56L518 56L517 55L516 55L515 55L514 55L513 55L512 54L511 54L510 54L509 53L508 53L507 53L506 53L505 53L504 53L503 53L502 52L501 52L500 52L499 51L498 51L497 51L496 51L495 51L494 51L493 51L492 50L491 50L490 50L489 50L488 50L487 50L486 50L485 50L484 50L483 49L482 49L481 49L480 49L479 49L478 49L477 49L476 49L475 49L474 49L473 48L472 48L471 48L470 48L469 48L468 48L467 48L466 48L465 48L464 48L463 48L462 48L461 48L460 48L459 48L458 48L457 48L456 48L455 48L454 48L453 48L452 49L451 49L450 49L449 49L448 49L447 49L446 49L445 49L444 49L443 49L442 50L441 50L440 50L439 50L438 50L437 50L436 50L435 50L434 51L433 51L432 51L431 51L430 51L429 51L428 51L427 51L426 52L425 52L424 52L423 53L422 53L421 53L420 53L419 53L418 53L417 54L416 54L415 54L414 55L413 55L412 55L411 55L410 55L409 56L408 56L407 56L406 57L405 57L404 57L403 58L402 58L401 58L400 59L399 59L398 59L397 60L396 60L395 60L394 61L393 61L392 62L391 62L390 63L389 63L388 64L387 64L386 64L385 65L384 65L383 65L382 66L381 66L380 67L379 68L378 68L377 68L376 69L375 69L374 70L373 71L372 71L371 72L370 72L369 73L368 74L367 74L366 75L365 75L364 76L363 77L362 77L361 78L360 78L359 79L358 80L357 80L356 81L355 82L354 83L353 83L352 84L351 85L350 86L349 86L348 87L347 88L346 89L345 90L344 90L343 91L342 92L341 93L340 94L339 94L338 95L337 96L336 97L335 98L334 99L333 100L332 101L331 102L330 103L329 104L328 105L327 106L326 107L326 108L325 109L324 110L323 111L322 112L321 113L321 114L320 115L319 116L318 117L317 118L317 119L316 120L315 121L315 122L314 123L313 124L312 125L311 126L311 127L310 128L309 129L309 130L308 131L308 132L307 133L307 134L306 135L305 136L305 137L304 138L304 139L303 140L302 141L302 142L301 143L301 144L300 145L300 146L299 147L299 148L298 149L298 150L298 151L297 152L297 153L296 154L296 155L295 156L295 157L294 158L294 159L294 160L293 161L293 162L292 163L292 164L292 165L292 166L291 167L291 168L291 169L290 170L290 171L290 172L289 173L289 174L289 175L289 176L289 177L288 178L288 179L288 180L287 181L287 182L287 183L287 184L287 185L287 186L286 187L286 188L286 189L286 190L286 191L286 192L286 193L285 194L285 195L285 196L285 197L285 198L285 199L285 200L285 201L284 202L284 203L284 204L284 205L284 206L284 207L284 208L284 209L284 210L283 211L283 212L283 213L283 214L283 215L283 216L283 217L283 218L283 219L283 220L283 221L283 222L282 223L283 224L283 225L283 226L283 227L283 228L283 229L283 230L283 231L283 232L283 233L283 234L283 235L284 236L284 237L284 238L284 239L284 240L284 241L284 242L284 243L284 244L284 245L285 246L285 247L285 248L285 249L285 250L285 251L285 252L285 253L286 254L286 255L286 256L286 257L286 258L286 259L286 260L287 261L287 262L287 263L287 264L287 265L288 266L288 267L288 268L288 269L289 270L289 271L289 272L289 273L290 274L290 275L290 276L290 277L291 278L291 279L292 280L292 281L292 282L292 283L293 284L293 285L293 286L294 287L294 288L294 289L295 290L295 291L296 292L296 293L297 294L297 295L298 296L298 297L298 298L299 299L299 300L300 301L300 302L301 303L301 304L302 305L302 306L303 307L303 308L304 309L305 310L305 311L306 312L307 313L307 314L308 315L308 316L309 317L310 318L310 319L311 320L311 321L312 322L312 323L313 324L314 325L314 326L315 327L316 328L316 329L317 330L318 331L318 332L319 333L320 334L321 335L321 336L322 337L323 338L323 339L324 340L325 341L326 342L326 343L327 344L328 345L329 346L329 347L330 348L331 349L332 350L332 351L333 352L334 353L335 354L335 355L336 356L337 357L338 358L338 359L339 360L340 361L341 362L341 363L342 364L343 365L344 366L344 367L345 368L346 369L347 370L347 371L348 372L349 373L350 374L351 375L351 376L352 377L353 378L354 379L354 380L355 381L356 382L357 383L358 384L358 385L359 386L360 387L361 388L361 389L362 390L363 391L364 392L365 393L365 394L366 395L367 396L368 397L368 398L369 399L370 400L371 401L372 402L372 403L373 404L374 405L375 406L376 407L376 408L377 409L378 410L379 411L379 412L380 413L381 414L382 415L383 416L383 417L384 418L385 419L386 420L387 421L387 422L388 423L389 424L390 425L391 426L391 427L392 428L393 429L394 430L394 431L395 432L396 433L397 434L398 435L399 436L399 437L400 438L401 439L402 440L402 441L403 442L404 443L405 444L405 445L406 446L407 447L408 448L408 449L409 450L410 451L411 452L411 453L412 454L412 455L413 456L413 457L413 458L413 459L414 460L414 461L414 462L415 463L416 464L417 465L418 466L419 467L420 468L421 469L422 470L423 471L424 472L425 473L426 474L427 475L428 476L429 477L430 478L431 479L432 480L433 481L434 482L435 483L436 484"/>
</g>
</svg>