<?xml version="1.0" encoding="UTF-8"?>
<svg xmlns="http://www.w3.org/2000/svg" width="1024" height="1024" viewBox="0 0 1024 1024">
<g fill="none" stroke="#000000" stroke-width="70.7" stroke-linecap="round" stroke-linejoin="round">
<path d="M839.0 573.0L838.1 577.2L836.2 585.8L833.4 598.5L829.6 615.5L825.2 632.8L820.1 650.2L814.2 668.0L807.8 686.0L800.7 703.2L793.1 719.8L784.9 735.5L776.1 750.5L766.7 765.1L756.6 779.4L745.8 793.2L734.2 806.8L725.6 816.9L719.9 823.6L717.0 827.0"/>
<path d="M817.1 968.7L717.0 854.0"/>
<path d="M717.0 827.0L436.0 487.0"/>
<path d="M436.0 487.0L436.0 487.0"/>
<path d="M436.0 487.0L431.8 491.3L423.4 497.9L410.9 507.9L394.1 521.1L374.3 537.3L351.4 556.4L325.5 578.5L296.5 603.5L272.8 624.2L254.2 640.8L241.0 653.0L233.0 661.0L225.8 668.7L219.4 676.1L213.9 683.1L209.1 689.9L205.1 696.1L201.7 701.7L199.0 706.8L197.0 711.2L195.1 716.5L193.2 722.5L191.4 729.2L189.6 736.8L188.1 744.2L186.9 751.6L185.9 758.9L185.1 766.1L184.8 773.9L184.8 782.3L185.1 791.2L185.9 800.8L187.2 810.8L189.1 821.4L191.5 832.6L194.5 844.4L197.4 854.5L200.1 863.0L202.8 869.9L205.2 875.1L208.2 880.6L211.6 886.4L215.4 892.4L219.6 898.6L224.2 904.8L229.2 910.9L234.6 917.0L240.4 923.0L246.2 928.6L252.2 933.9L258.4 938.8L264.6 943.2L272.1 947.8L280.9 952.2L290.9 956.8L302.1 961.2L314.8 965.1L328.9 968.4L344.5 971.0L361.5 973.0L378.0 974.5L394.0 975.5L409.5 976.0L424.5 976.0L439.4 975.8L454.1 975.2L468.8 974.5L483.2 973.5L497.7 971.9L512.1 969.8L526.4 967.1L540.6 963.9L554.6 959.9L568.4 955.1L581.9 949.6L595.1 943.4L607.0 937.4L617.5 931.6L626.6 926.1L634.4 920.9L644.6 913.2L657.4 903.2L672.6 890.9L690.4 876.1L703.7 865.1L712.6 857.7L717.0 854.0"/>
<path d="M717.0 854.0L717.0 829.0"/>
<path d="M436.4 484.0L436.6 484.0L436.9 483.9L437.1 483.8L437.4 483.6L437.6 483.4L437.9 483.1L438.1 482.9L438.4 482.6L438.6 482.4L438.9 482.1L439.1 481.9L439.4 481.6L439.6 481.4L439.9 481.1L440.1 480.9L440.4 480.6L440.6 480.4L440.9 480.1L441.1 479.9L441.4 479.6L441.6 479.4L441.9 479.1L442.1 478.9L442.4 478.6L442.6 478.4L442.9 478.1L443.1 477.9L443.4 477.6L443.6 477.4L443.9 477.1L444.1 476.9L444.4 476.6L444.6 476.4L444.9 476.1L445.1 475.9L445.4 475.6L445.6 475.4L445.9 475.1L446.1 474.9L446.4 474.6L446.6 474.4L446.9 474.1L447.1 473.9L447.4 473.6L447.6 473.4L447.9 473.1L448.1 472.9L448.4 472.6L448.6 472.4L448.9 472.1L449.1 471.9L449.4 471.6L449.6 471.4L449.9 471.1L450.1 470.9L450.4 470.6L450.6 470.4L450.9 470.1L451.1 469.9L451.4 469.6L451.6 469.4L451.9 469.1L452.1 468.9L452.4 468.6L452.6 468.4L452.9 468.1L453.1 467.9L453.4 467.6L453.6 467.4L453.9 467.1L454.1 466.9L454.4 466.6L454.6 466.4L454.9 466.1L455.1 465.9L455.4 465.6L455.6 465.4L455.9 465.1L456.1 464.9L456.4 464.6L456.6 464.4L456.9 464.1L457.1 463.9L457.4 463.6L457.6 463.4L457.9 463.2L458.1 463.1L458.4 463.0L458.6 463.0L458.9 463.0L459.1 463.0L459.4 463.0L459.6 463.0L459.9 462.9L460.1 462.8L460.4 462.6L460.6 462.4L460.9 462.2L461.1 462.1L461.4 462.0L461.6 462.0L461.9 462.0L462.1 462.0L462.4 462.0L462.6 462.0L462.9 461.9L463.1 461.8L463.4 461.6L463.6 461.4L463.9 461.2L464.1 461.1L464.4 461.0L464.6 461.0L464.9 461.0L465.1 461.0L465.4 461.0L465.6 461.0L465.9 460.9L466.1 460.8L466.4 460.6L466.6 460.4L466.9 460.2L467.1 460.1L467.4 460.0L467.6 460.0L467.9 460.0L468.1 460.0L468.4 460.0L468.6 460.0L468.9 459.9L469.1 459.8L469.4 459.6L469.6 459.4L469.9 459.1L470.1 458.9L470.4 458.6L470.6 458.4L470.9 458.1L471.1 457.9L471.4 457.6L471.6 457.4L471.9 457.1L472.1 456.9L472.4 456.6L472.6 456.4L472.9 456.1L473.1 455.9L473.4 455.6L473.6 455.4L473.9 455.1L474.1 454.9L474.4 454.6L474.6 454.4L474.9 454.1L475.1 453.9L475.4 453.6L475.6 453.4L475.9 453.1L476.1 452.9L476.4 452.6L476.6 452.4L476.9 452.2L477.1 452.1L477.4 452.0L477.6 452.0L477.9 451.9L478.1 451.8L478.4 451.6L478.6 451.4L478.9 451.1L479.1 450.9L479.4 450.6L479.6 450.4L479.9 450.1L480.1 449.9L480.4 449.6L480.6 449.4L480.9 449.1L481.1 448.9L481.4 448.6L481.6 448.4L481.9 448.1L482.1 447.9L482.4 447.6L482.6 447.4L482.9 447.1L483.1 446.9L483.4 446.6L483.6 446.4L483.9 446.1L484.1 445.9L484.4 445.6L484.6 445.4L484.9 445.1L485.1 444.9L485.4 444.6L485.6 444.4L485.9 444.2L486.1 444.1L486.4 444.0L486.6 444.0L486.9 443.9L487.1 443.8L487.4 443.6L487.6 443.4L487.9 443.1L488.1 442.9L488.4 442.6L488.6 442.4L488.9 442.1L489.1 441.9L489.4 441.6L489.6 441.4L489.9 441.1L490.1 440.9L490.4 440.6L490.6 440.4L490.9 440.1L491.1 439.9L491.4 439.6L491.6 439.4L491.9 439.1L492.1 438.9L492.4 438.6L492.6 438.4L492.9 438.1L493.1 437.9L493.4 437.6L493.6 437.4L493.9 437.1L494.1 436.9L494.4 436.6L494.6 436.4L494.9 436.1L495.1 435.9L495.4 435.6L495.6 435.4L495.9 435.2L496.1 435.1L496.4 435.0L496.6 435.0L496.9 434.9L497.1 434.8L497.4 434.6L497.6 434.4L497.9 434.1L498.1 433.9L498.4 433.6L498.6 433.4L498.9 433.1L499.1 432.9L499.4 432.6L499.6 432.4L499.9 432.1L500.1 431.9L500.4 431.6L500.6 431.4L500.9 431.1L501.1 430.9L501.4 430.6L501.6 430.4L501.9 430.1L502.1 429.9L502.4 429.6L502.6 429.4L502.9 429.1L503.1 428.9L503.4 428.6L503.6 428.4L503.9 428.1L504.1 427.9L504.4 427.6L504.6 427.4L504.9 427.2L505.1 427.1L505.4 427.0L505.6 427.0L505.9 426.9L506.1 426.8L506.4 426.6L506.6 426.4L506.9 426.1L507.1 425.9L507.4 425.6L507.6 425.4L507.9 425.1L508.1 424.9L508.4 424.6L508.6 424.4L508.9 424.1L509.1 423.9L509.4 423.6L509.6 423.4L509.9 423.1L510.1 422.9L510.4 422.6L510.6 422.4L510.9 422.1L511.1 421.9L511.4 421.6L511.6 421.4L511.9 421.1L512.1 420.9L512.4 420.6L512.6 420.4L512.9 420.1L513.1 419.9L513.4 419.6L513.6 419.4L513.9 419.1L514.1 418.9L514.4 418.6L514.6 418.4L514.9 418.1L515.1 417.9L515.4 417.6L515.6 417.4L515.9 417.2L516.1 417.1L516.4 417.0L516.6 417.0L516.9 416.9L517.1 416.8L517.4 416.6L517.6 416.4L517.9 416.1L518.1 415.9L518.4 415.6L518.6 415.4L518.9 415.1L519.1 414.9L519.4 414.6L519.6 414.4L519.9 414.1L520.1 413.9L520.4 413.6L520.6 413.4L520.9 413.1L521.1 412.9L521.4 412.6L521.6 412.4L521.9 412.1L522.1 411.9L522.4 411.6L522.6 411.4L522.9 411.1L523.1 410.9L523.4 410.6L523.6 410.4L523.9 410.1L524.1 409.9L524.4 409.6L524.6 409.4L524.9 409.2L525.1 409.1L525.4 409.0L525.6 409.0L525.9 408.9L526.1 408.8L526.4 408.6L526.6 408.4L526.9 408.1L527.1 407.9L527.4 407.6L527.6 407.4L527.9 407.1L528.1 406.9L528.4 406.6L528.6 406.4L528.9 406.1L529.1 405.9L529.4 405.6L529.6 405.4L529.9 405.1L530.1 404.9L530.4 404.6L530.6 404.4L530.9 404.1L531.1 403.9L531.4 403.6L531.6 403.4L531.9 403.1L532.1 402.9L532.4 402.6L532.6 402.4L532.9 402.1L533.1 401.9L533.4 401.6L533.6 401.4L533.9 401.2L534.1 401.1L534.4 401.0L534.6 401.0L534.9 400.9L535.1 400.8L535.4 400.6L535.6 400.4L535.9 400.1L536.1 399.9L536.4 399.6L536.6 399.4L536.9 399.1L537.1 398.9L537.4 398.6L537.6 398.4L537.9 398.1L538.1 397.9L538.4 397.6L538.6 397.4L538.9 397.1L539.1 396.9L539.4 396.6L539.6 396.4L539.9 396.1L540.1 395.9L540.4 395.6L540.6 395.4L540.9 395.1L541.1 394.9L541.4 394.6L541.6 394.4L541.9 394.1L542.1 393.9L542.4 393.6L542.6 393.4L542.9 393.1L543.1 392.9L543.4 392.6L543.6 392.4L543.9 392.2L544.1 392.1L544.4 392.0L544.6 392.0L544.9 391.9L545.1 391.8L545.4 391.6L545.6 391.4L545.9 391.1L546.1 390.9L546.4 390.6L546.6 390.4L546.9 390.1L547.1 389.9L547.4 389.6L547.6 389.4L547.9 389.1L548.1 388.9L548.4 388.6L548.6 388.4L548.9 388.1L549.1 387.9L549.4 387.6L549.6 387.4L549.9 387.1L550.1 386.9L550.4 386.6L550.6 386.4L550.9 386.1L551.1 385.9L551.4 385.6L551.6 385.4L551.9 385.1L552.1 384.9L552.4 384.6L552.6 384.4L552.9 384.1L553.1 383.9L553.4 383.6L553.6 383.4L553.9 383.1L554.1 382.9L554.4 382.6L554.6 382.4L554.9 382.1L555.1 381.9L555.4 381.6L555.6 381.4L555.9 381.1L556.1 380.9L556.4 380.6L556.6 380.4L556.9 380.1L557.1 379.9L557.4 379.6L557.6 379.4L557.9 379.2L558.1 379.1L558.4 379.0L558.6 379.0L558.9 378.9L559.1 378.8L559.4 378.6L559.6 378.4L559.9 378.1L560.1 377.9L560.4 377.6L560.6 377.4L560.9 377.1L561.1 376.9L561.4 376.6L561.6 376.4L561.9 376.1L562.1 375.9L562.4 375.6L562.6 375.4L562.9 375.1L563.1 374.9L563.4 374.6L563.6 374.4L563.9 374.1L564.1 373.9L564.4 373.6L564.6 373.4L564.9 373.1L565.1 372.9L565.4 372.6L565.6 372.4L565.9 372.1L566.1 371.9L566.4 371.6L566.6 371.4L566.9 371.1L567.1 370.9L567.4 370.6L567.6 370.4L567.9 370.1L568.1 369.9L568.4 369.6L568.6 369.4L568.9 369.1L569.1 368.9L569.4 368.6L569.6 368.4L569.9 368.1L570.1 367.9L570.4 367.6L570.6 367.4L570.9 367.1L571.1 366.9L571.4 366.6L571.6 366.4L571.9 366.1L572.1 365.9L572.4 365.6L572.6 365.4L572.9 365.1L573.1 364.9L573.4 364.6L573.6 364.4L573.9 364.1L574.1 363.9L574.4 363.6L574.6 363.4L574.9 363.1L575.1 362.9L575.4 362.6L575.6 362.4L575.9 362.1L576.1 361.9L576.4 361.6L576.6 361.4L576.9 361.1L577.1 360.9L577.4 360.6L577.6 360.4L577.9 360.1L578.1 359.9L578.4 359.6L578.6 359.4L578.9 359.1L579.1 358.9L579.4 358.6L579.6 358.4L579.9 358.1L580.1 357.9L580.4 357.6L580.6 357.4L580.9 357.1L581.1 356.9L581.4 356.6L581.6 356.4L581.9 356.1L582.1 355.9L582.4 355.6L582.6 355.4L582.9 355.1L583.1 354.9L583.4 354.6L583.6 354.4L583.9 354.1L584.1 353.9L584.4 353.6L584.6 353.4L584.9 353.1L585.1 352.9L585.4 352.6L585.6 352.4L585.9 352.1L586.1 351.9L586.4 351.6L586.6 351.4L586.9 351.1L587.1 350.9L587.4 350.6L587.6 350.4L587.9 350.1L588.1 349.9L588.4 349.6L588.6 349.4L588.9 349.1L589.1 348.9L589.4 348.6L589.6 348.4L589.9 348.1L590.1 347.9L590.4 347.6L590.6 347.4L590.9 347.1L591.1 346.9L591.4 346.6L591.6 346.4L591.9 346.1L592.1 345.9L592.4 345.6L592.6 345.4L592.9 345.1L593.1 344.9L593.4 344.6L593.6 344.4L593.9 344.1L594.1 343.9L594.4 343.6L594.6 343.4L594.9 343.1L595.1 342.9L595.4 342.6L595.6 342.4L595.9 342.1L596.1 341.9L596.4 341.6L596.6 341.4L596.9 341.1L597.1 340.9L597.4 340.6L597.6 340.4L597.8 340.1L597.9 339.9L598.0 339.6L598.0 339.4L598.1 339.1L598.2 338.9L598.4 338.6L598.6 338.4L598.9 338.1L599.1 337.9L599.4 337.6L599.6 337.4L599.9 337.1L600.1 336.9L600.4 336.6L600.6 336.4L600.9 336.1L601.1 335.9L601.4 335.6L601.6 335.4L601.9 335.1L602.1 334.9L602.4 334.6L602.6 334.4L602.9 334.1L603.1 333.9L603.4 333.6L603.6 333.4L603.9 333.1L604.1 332.9L604.4 332.6L604.6 332.4L604.8 332.1L604.9 331.9L605.0 331.6L605.0 331.4L605.1 331.1L605.2 330.9L605.4 330.6L605.6 330.4L605.9 330.1L606.1 329.9L606.4 329.6L606.6 329.4L606.9 329.1L607.1 328.9L607.4 328.6L607.6 328.4L607.9 328.1L608.1 327.9L608.4 327.6L608.6 327.4L608.9 327.1L609.1 326.9L609.4 326.6L609.6 326.4L609.8 326.1L609.9 325.9L610.0 325.6L610.0 325.4L610.1 325.1L610.2 324.9L610.4 324.6L610.6 324.4L610.9 324.1L611.1 323.9L611.4 323.6L611.6 323.4L611.8 323.1L611.9 322.9L612.0 322.6L612.0 322.4L612.1 322.1L612.2 321.9L612.4 321.6L612.6 321.4L612.9 321.1L613.1 320.9L613.4 320.6L613.6 320.4L613.8 320.1L613.9 319.9L614.0 319.6L614.0 319.4L614.1 319.1L614.2 318.9L614.4 318.6L614.6 318.4L614.9 318.1L615.1 317.9L615.4 317.6L615.6 317.4L615.8 317.1L615.9 316.9L616.0 316.6L616.0 316.4L616.1 316.1L616.2 315.9L616.4 315.6L616.6 315.4L616.9 315.1L617.1 314.9L617.4 314.6L617.6 314.4L617.8 314.1L617.9 313.9L618.0 313.6L618.0 313.4L618.1 313.1L618.2 312.9L618.4 312.6L618.6 312.4L618.9 312.1L619.1 311.9L619.4 311.6L619.6 311.4L619.8 311.1L619.9 310.9L620.0 310.6L620.0 310.4L620.1 310.1L620.2 309.9L620.4 309.6L620.6 309.4L620.8 309.1L620.9 308.9L621.0 308.6L621.0 308.4L621.1 308.1L621.2 307.9L621.4 307.6L621.6 307.4L621.8 307.1L621.9 306.9L622.0 306.6L622.0 306.4L622.1 306.1L622.2 305.9L622.4 305.6L622.6 305.4L622.8 305.1L622.9 304.9L623.0 304.6L623.0 304.4L623.1 304.1L623.2 303.9L623.4 303.6L623.6 303.4L623.8 303.1L623.9 302.9L624.0 302.6L624.0 302.4L624.1 302.1L624.2 301.9L624.4 301.6L624.6 301.4L624.8 301.1L624.9 300.9L625.0 300.6L625.0 300.4L625.1 300.1L625.2 299.9L625.4 299.6L625.6 299.4L625.8 299.1L625.9 298.9L626.0 298.6L626.0 298.4L626.1 298.1L626.2 297.9L626.4 297.6L626.6 297.4L626.8 297.1L626.9 296.9L627.0 296.6L627.0 296.4L627.1 296.1L627.2 295.9L627.4 295.6L627.6 295.4L627.8 295.1L627.9 294.9L628.0 294.6L628.0 294.4L628.1 294.1L628.2 293.9L628.4 293.6L628.6 293.4L628.8 293.1L628.9 292.9L629.0 292.6L629.0 292.4L629.1 292.1L629.2 291.9L629.4 291.6L629.6 291.4L629.8 291.1L629.9 290.9L630.0 290.6L630.0 290.4L630.0 290.1L630.0 289.9L630.0 289.6L630.0 289.4L630.1 289.1L630.2 288.9L630.4 288.6L630.6 288.4L630.8 288.1L630.9 287.9L631.0 287.6L631.0 287.4L631.0 287.1L631.0 286.9L631.0 286.6L631.0 286.4L631.1 286.1L631.2 285.9L631.4 285.6L631.6 285.4L631.8 285.1L631.9 284.9L632.0 284.6L632.0 284.4L632.1 284.1L632.2 283.9L632.4 283.6L632.6 283.4L632.8 283.1L632.9 282.9L633.0 282.6L633.0 282.4L633.1 282.1L633.2 281.9L633.4 281.6L633.6 281.4L633.8 281.1L633.9 280.9L634.0 280.6L634.0 280.4L634.0 280.1L634.0 279.9L634.0 279.6L634.0 279.4L634.0 279.1L634.0 278.9L634.0 278.6L634.0 278.4L634.1 278.1L634.2 277.9L634.4 277.6L634.6 277.4L634.8 277.1L634.9 276.9L635.0 276.6L635.0 276.4L635.0 276.1L635.0 275.9L635.0 275.6L635.0 275.4L635.0 275.1L635.0 274.9L635.0 274.6L635.0 274.4L635.1 274.1L635.2 273.9L635.4 273.6L635.6 273.4L635.8 273.1L635.9 272.9L636.0 272.6L636.0 272.4L636.0 272.1L636.0 271.9L636.0 271.6L636.0 271.4L636.1 271.1L636.2 270.9L636.4 270.6L636.6 270.4L636.8 270.1L636.9 269.9L637.0 269.6L637.0 269.4L637.0 269.1L637.0 268.9L637.0 268.6L637.0 268.4L637.0 268.1L637.0 267.9L637.0 267.6L637.0 267.4L637.0 267.1L637.0 266.9L637.0 266.6L637.0 266.4L637.1 266.1L637.2 265.9L637.4 265.6L637.6 265.4L637.8 265.1L637.9 264.9L638.0 264.6L638.0 264.4L638.0 264.1L638.0 263.9L638.0 263.6L638.0 263.4L638.0 263.1L638.0 262.9L638.0 262.6L638.0 262.4L638.1 262.1L638.2 261.9L638.4 261.6L638.6 261.4L638.8 261.1L638.9 260.9L639.0 260.6L639.0 260.4L639.0 260.1L639.0 259.9L639.0 259.6L639.0 259.4L639.0 259.1L639.0 258.9L639.0 258.6L639.0 258.4L639.0 258.1L639.0 257.9L639.0 257.6L639.0 257.4L639.0 257.1L639.0 256.9L639.0 256.6L639.0 256.4L639.0 256.1L639.0 255.9L639.0 255.6L639.0 255.4L639.1 255.1L639.2 254.9L639.4 254.6L639.6 254.4L639.8 254.1L639.9 253.9L640.0 253.6L640.0 253.4L640.0 253.1L640.0 252.9L640.0 252.6L640.0 252.4L640.0 252.1L640.0 251.9L640.0 251.6L640.0 251.4L640.0 251.1L640.0 250.9L640.0 250.6L640.0 250.4L640.0 250.1L640.0 249.9L640.0 249.6L640.0 249.4L640.0 249.1L640.0 248.9L640.0 248.6L640.0 248.4L640.1 248.1L640.2 247.9L640.4 247.6L640.6 247.4L640.8 247.1L640.9 246.9L641.0 246.6L641.0 246.4L641.0 246.1L641.0 245.9L641.0 245.6L641.0 245.4L641.0 245.1L641.0 244.9L641.0 244.6L641.0 244.4L641.0 244.1L641.0 243.9L641.0 243.6L641.0 243.4L641.0 243.1L641.0 242.9L641.0 242.6L641.0 242.4L641.0 242.1L641.0 241.9L641.0 241.6L641.0 241.4L641.0 241.1L641.0 240.9L641.0 240.6L641.0 240.4L641.0 240.1L641.0 239.9L641.0 239.6L641.0 239.4L641.1 239.1L641.2 238.9L641.4 238.6L641.6 238.4L641.8 238.1L641.9 237.9L642.0 237.6L642.0 237.4L642.0 237.1L642.0 236.9L642.0 236.6L642.0 236.4L642.0 236.1L642.0 235.9L642.0 235.6L642.0 235.4L642.0 235.1L642.0 234.9L642.0 234.6L642.0 234.4L642.0 234.1L642.0 233.9L642.0 233.6L642.0 233.4L642.0 233.1L642.0 232.9L642.0 232.6L642.0 232.4L642.0 232.1L642.0 231.9L642.0 231.6L642.0 231.4L642.0 231.1L642.0 230.9L642.0 230.6L642.0 230.4L642.0 230.1L642.0 229.9L642.0 229.6L642.0 229.4L642.1 229.1L642.2 228.9L642.4 228.6L642.6 228.4L642.8 228.1L642.9 227.9L643.0 227.6L643.0 227.4L643.0 227.1L643.0 226.9L643.0 226.6L643.0 226.4L643.0 226.1L643.0 225.9L643.0 225.6L643.0 225.4L643.0 225.1L643.0 224.9L643.0 224.6L643.0 224.4L643.0 224.1L643.0 223.9L643.0 223.6L643.0 223.4L643.0 223.1L643.0 222.9L643.0 222.6L643.0 222.4L643.0 222.1L643.0 221.9L643.0 221.6L643.0 221.4L643.0 221.1L643.0 220.9L643.0 220.6L643.0 220.4L643.0 220.1L643.0 219.9L643.0 219.6L643.0 219.4L643.0 219.1L643.0 218.9L643.0 218.6L643.0 218.4L643.0 218.1L643.0 217.9L643.0 217.6L643.0 217.4L643.0 217.1L643.0 216.9L643.0 216.6L643.0 216.4L643.0 216.1L643.0 215.9L643.0 215.6L643.0 215.4L643.0 215.1L643.0 214.9L643.0 214.6L643.0 214.4L642.9 214.1L642.8 213.9L642.6 213.6L642.4 213.4L642.2 213.1L642.1 212.9L642.0 212.6L642.0 212.4L642.0 212.1L642.0 211.9L642.0 211.6L642.0 211.4L642.0 211.1L642.0 210.9L642.0 210.6L642.0 210.4L642.0 210.1L642.0 209.9L642.0 209.6L642.0 209.4L642.0 209.1L642.0 208.9L642.0 208.6L642.0 208.4L642.0 208.1L642.0 207.9L642.0 207.6L642.0 207.4L642.0 207.1L642.0 206.9L642.0 206.6L642.0 206.4L642.0 206.1L642.0 205.9L642.0 205.6L642.0 205.4L642.0 205.1L642.0 204.9L642.0 204.6L642.0 204.4L641.9 204.1L641.8 203.9L641.6 203.6L641.4 203.4L641.2 203.1L641.1 202.9L641.0 202.6L641.0 202.4L641.0 202.1L641.0 201.9L641.0 201.6L641.0 201.4L641.0 201.1L641.0 200.9L641.0 200.6L641.0 200.4L641.0 200.1L641.0 199.9L641.0 199.6L641.0 199.4L641.0 199.1L641.0 198.9L641.0 198.6L641.0 198.4L641.0 198.1L641.0 197.9L641.0 197.6L641.0 197.4L641.0 197.1L641.0 196.9L641.0 196.6L641.0 196.4L640.9 196.1L640.8 195.9L640.6 195.6L640.4 195.4L640.2 195.1L640.1 194.9L640.0 194.6L640.0 194.4L640.0 194.1L640.0 193.9L640.0 193.6L640.0 193.4L640.0 193.1L640.0 192.9L640.0 192.6L640.0 192.4L640.0 192.1L640.0 191.9L640.0 191.6L640.0 191.4L640.0 191.1L640.0 190.9L640.0 190.6L640.0 190.4L640.0 190.1L640.0 189.9L640.0 189.6L640.0 189.4L639.9 189.1L639.8 188.9L639.6 188.6L639.4 188.4L639.2 188.1L639.1 187.9L639.0 187.6L639.0 187.4L639.0 187.1L639.0 186.9L639.0 186.6L639.0 186.4L639.0 186.1L639.0 185.9L639.0 185.6L639.0 185.4L639.0 185.1L639.0 184.9L639.0 184.6L639.0 184.4L639.0 184.1L639.0 183.9L639.0 183.6L639.0 183.4L639.0 183.1L639.0 182.9L639.0 182.6L639.0 182.4L638.9 182.1L638.8 181.9L638.6 181.6L638.4 181.4L638.2 181.1L638.1 180.9L638.0 180.6L638.0 180.4L638.0 180.1L638.0 179.9L638.0 179.6L638.0 179.4L638.0 179.1L638.0 178.9L638.0 178.6L638.0 178.4L638.0 178.1L638.0 177.9L638.0 177.6L638.0 177.4L637.9 177.1L637.8 176.9L637.6 176.6L637.4 176.4L637.2 176.1L637.1 175.9L637.0 175.6L637.0 175.4L637.0 175.1L637.0 174.9L637.0 174.6L637.0 174.4L637.0 174.1L637.0 173.9L637.0 173.6L637.0 173.4L636.9 173.1L636.8 172.9L636.6 172.6L636.4 172.4L636.2 172.1L636.1 171.9L636.0 171.6L636.0 171.4L636.0 171.1L636.0 170.9L636.0 170.6L636.0 170.4L635.9 170.1L635.8 169.9L635.6 169.6L635.4 169.4L635.2 169.1L635.1 168.9L635.0 168.6L635.0 168.4L635.0 168.1L635.0 167.9L635.0 167.6L635.0 167.4L635.0 167.1L635.0 166.9L635.0 166.6L635.0 166.4L635.0 166.1L635.0 165.9L635.0 165.6L635.0 165.4L634.9 165.1L634.8 164.9L634.6 164.6L634.4 164.4L634.2 164.1L634.1 163.9L634.0 163.6L634.0 163.4L633.9 163.1L633.8 162.9L633.6 162.6L633.4 162.4L633.2 162.1L633.1 161.9L633.0 161.6L633.0 161.4L632.9 161.1L632.8 160.9L632.6 160.6L632.4 160.4L632.2 160.1L632.1 159.9L632.0 159.6L632.0 159.4L632.0 159.1L632.0 158.9L632.0 158.6L632.0 158.4L631.9 158.1L631.8 157.9L631.6 157.6L631.4 157.4L631.2 157.1L631.1 156.9L631.0 156.6L631.0 156.4L631.0 156.1L631.0 155.9L631.0 155.6L631.0 155.4L630.9 155.1L630.8 154.9L630.6 154.6L630.4 154.4L630.2 154.1L630.1 153.9L630.0 153.6L630.0 153.4L630.0 153.1L630.0 152.9L630.0 152.6L630.0 152.4L629.9 152.1L629.8 151.9L629.6 151.6L629.4 151.4L629.2 151.1L629.1 150.9L629.0 150.6L629.0 150.4L628.9 150.1L628.8 149.9L628.6 149.6L628.4 149.4L628.2 149.1L628.1 148.9L628.0 148.6L628.0 148.4L627.9 148.1L627.8 147.9L627.6 147.6L627.4 147.4L627.1 147.1L626.9 146.9L626.6 146.6L626.4 146.4L626.2 146.1L626.1 145.9L626.0 145.6L626.0 145.4L626.0 145.1L626.0 144.9L626.0 144.6L626.0 144.4L625.9 144.1L625.8 143.9L625.6 143.6L625.4 143.4L625.2 143.1L625.1 142.9L625.0 142.6L625.0 142.4L624.9 142.1L624.8 141.9L624.6 141.6L624.4 141.4L624.1 141.1L623.9 140.9L623.6 140.6L623.4 140.4L623.2 140.1L623.1 139.9L623.0 139.6L623.0 139.4L623.0 139.1L623.0 138.9L623.0 138.6L623.0 138.4L622.9 138.1L622.8 137.9L622.6 137.6L622.4 137.4L622.2 137.1L622.1 136.9L622.0 136.6L622.0 136.4L621.9 136.1L621.8 135.9L621.6 135.6L621.4 135.4L621.1 135.1L620.9 134.9L620.6 134.6L620.4 134.4L620.2 134.1L620.1 133.9L620.0 133.6L620.0 133.4L619.9 133.1L619.8 132.9L619.6 132.6L619.4 132.4L619.2 132.1L619.1 131.9L619.0 131.6L619.0 131.4L618.9 131.1L618.8 130.9L618.6 130.6L618.4 130.4L618.1 130.1L617.9 129.9L617.6 129.6L617.4 129.4L617.2 129.1L617.1 128.9L617.0 128.6L617.0 128.4L616.9 128.1L616.8 127.9L616.6 127.6L616.4 127.4L616.1 127.1L615.9 126.9L615.6 126.6L615.4 126.4L615.1 126.1L614.9 125.9L614.6 125.6L614.4 125.4L614.2 125.1L614.1 124.9L614.0 124.6L614.0 124.4L613.9 124.1L613.8 123.9L613.6 123.6L613.4 123.4L613.1 123.1L612.9 122.9L612.6 122.6L612.4 122.4L612.2 122.1L612.1 121.9L612.0 121.6L612.0 121.4L611.9 121.1L611.8 120.9L611.6 120.6L611.4 120.4L611.1 120.1L610.9 119.9L610.6 119.6L610.4 119.4L610.2 119.1L610.1 118.9L610.0 118.6L610.0 118.4L609.9 118.1L609.8 117.9L609.6 117.6L609.4 117.4L609.1 117.1L608.9 116.9L608.6 116.6L608.4 116.4L608.1 116.1L607.9 115.9L607.6 115.6L607.4 115.4L607.2 115.1L607.1 114.9L607.0 114.6L607.0 114.4L606.9 114.1L606.8 113.9L606.6 113.6L606.4 113.4L606.1 113.1L605.9 112.9L605.6 112.6L605.4 112.4L605.1 112.1L604.9 111.9L604.6 111.6L604.4 111.4L604.1 111.1L603.9 110.9L603.6 110.6L603.4 110.4L603.1 110.1L602.9 109.9L602.6 109.6L602.4 109.4L602.1 109.1L601.9 108.9L601.6 108.6L601.4 108.4L601.1 108.1L600.9 107.9L600.6 107.6L600.4 107.4L600.2 107.1L600.1 106.9L600.0 106.6L600.0 106.4L599.9 106.1L599.8 105.9L599.6 105.6L599.4 105.4L599.1 105.1L598.9 104.9L598.6 104.6L598.4 104.4L598.1 104.1L597.9 103.9L597.6 103.6L597.4 103.4L597.1 103.1L596.9 102.9L596.6 102.6L596.4 102.4L596.1 102.1L595.9 101.9L595.6 101.6L595.4 101.4L595.1 101.1L594.9 100.9L594.6 100.6L594.4 100.4L594.1 100.1L593.9 99.9L593.6 99.6L593.4 99.4L593.1 99.1L592.9 98.9L592.6 98.6L592.4 98.4L592.1 98.1L591.9 97.9L591.6 97.6L591.4 97.4L591.1 97.1L590.9 96.9L590.6 96.6L590.4 96.4L590.1 96.1L589.9 95.9L589.6 95.6L589.4 95.4L589.1 95.1L588.9 94.9L588.6 94.6L588.4 94.4L588.1 94.1L587.9 93.9L587.6 93.6L587.4 93.4L587.1 93.2L586.9 93.1L586.6 93.0L586.4 93.0L586.1 92.9L585.9 92.8L585.6 92.6L585.4 92.4L585.1 92.1L584.9 91.9L584.6 91.6L584.4 91.4L584.1 91.1L583.9 90.9L583.6 90.6L583.4 90.4L583.1 90.1L582.9 89.9L582.6 89.6L582.4 89.4L582.1 89.1L581.9 88.9L581.6 88.6L581.4 88.4L581.1 88.1L580.9 87.9L580.6 87.6L580.4 87.4L580.1 87.1L579.9 86.9L579.6 86.6L579.4 86.4L579.1 86.2L578.9 86.1L578.6 86.0L578.4 86.0L578.1 86.0L577.9 86.0L577.6 86.0L577.4 86.0L577.1 85.9L576.9 85.8L576.6 85.6L576.4 85.4L576.1 85.1L575.9 84.9L575.6 84.6L575.4 84.4L575.1 84.1L574.9 83.9L574.6 83.6L574.4 83.4L574.1 83.1L573.9 82.9L573.6 82.6L573.4 82.4L573.1 82.2L572.9 82.1L572.6 82.0L572.4 82.0L572.1 81.9L571.9 81.8L571.6 81.6L571.4 81.4L571.1 81.1L570.9 80.9L570.6 80.6L570.4 80.4L570.1 80.1L569.9 79.9L569.6 79.6L569.4 79.4L569.1 79.2L568.9 79.1L568.6 79.0L568.4 79.0L568.1 78.9L567.9 78.8L567.6 78.6L567.4 78.4L567.1 78.2L566.9 78.1L566.6 78.0L566.4 78.0L566.1 77.9L565.9 77.8L565.6 77.6L565.4 77.4L565.1 77.1L564.9 76.9L564.6 76.6L564.4 76.4L564.1 76.2L563.9 76.1L563.6 76.0L563.4 76.0L563.1 75.9L562.9 75.8L562.6 75.6L562.4 75.4L562.1 75.2L561.9 75.1L561.6 75.0L561.4 75.0L561.1 74.9L560.9 74.8L560.6 74.6L560.4 74.4L560.1 74.2L559.9 74.1L559.6 74.0L559.4 74.0L559.1 73.9L558.9 73.8L558.6 73.6L558.4 73.4L558.1 73.1L557.9 72.9L557.6 72.6L557.4 72.4L557.1 72.2L556.9 72.1L556.6 72.0L556.4 72.0L556.1 71.9L555.9 71.8L555.6 71.6L555.4 71.4L555.1 71.1L554.9 70.9L554.6 70.6L554.4 70.4L554.1 70.2L553.9 70.1L553.6 70.0L553.4 70.0L553.1 69.9L552.9 69.8L552.6 69.6L552.4 69.4L552.1 69.2L551.9 69.1L551.6 69.0L551.4 69.0L551.1 69.0L550.9 69.0L550.6 69.0L550.4 69.0L550.1 68.9L549.9 68.8L549.6 68.6L549.4 68.4L549.1 68.1L548.9 67.9L548.6 67.6L548.4 67.4L548.1 67.2L547.9 67.1L547.6 67.0L547.4 67.0L547.1 66.9L546.9 66.8L546.6 66.6L546.4 66.4L546.1 66.2L545.9 66.1L545.6 66.0L545.4 66.0L545.1 66.0L544.9 66.0L544.6 66.0L544.4 66.0L544.1 65.9L543.9 65.8L543.6 65.6L543.4 65.4L543.1 65.2L542.9 65.1L542.6 65.0L542.4 65.0L542.1 64.9L541.9 64.8L541.6 64.6L541.4 64.4L541.1 64.2L540.9 64.1L540.6 64.0L540.4 64.0L540.1 64.0L539.9 64.0L539.6 64.0L539.4 64.0L539.1 63.9L538.9 63.8L538.6 63.6L538.4 63.4L538.1 63.1L537.9 62.9L537.6 62.6L537.4 62.4L537.1 62.2L536.9 62.1L536.6 62.0L536.4 62.0L536.1 62.0L535.9 62.0L535.6 62.0L535.4 62.0L535.1 61.9L534.9 61.8L534.6 61.6L534.4 61.4L534.1 61.2L533.9 61.1L533.6 61.0L533.4 61.0L533.1 60.9L532.9 60.8L532.6 60.6L532.4 60.4L532.1 60.2L531.9 60.1L531.6 60.0L531.4 60.0L531.1 60.0L530.9 60.0L530.6 60.0L530.4 60.0L530.1 59.9L529.9 59.8L529.6 59.6L529.4 59.4L529.1 59.2L528.9 59.1L528.6 59.0L528.4 59.0L528.1 59.0L527.9 59.0L527.6 59.0L527.4 59.0L527.1 59.0L526.9 59.0L526.6 59.0L526.4 59.0L526.1 58.9L525.9 58.8L525.6 58.6L525.4 58.4L525.1 58.2L524.9 58.1L524.6 58.0L524.4 58.0L524.1 57.9L523.9 57.8L523.6 57.6L523.4 57.4L523.1 57.2L522.9 57.1L522.6 57.0L522.4 57.0L522.1 57.0L521.9 57.0L521.6 57.0L521.4 57.0L521.1 56.9L520.9 56.8L520.6 56.6L520.4 56.4L520.1 56.2L519.9 56.1L519.6 56.0L519.4 56.0L519.1 56.0L518.9 56.0L518.6 56.0L518.4 56.0L518.1 55.9L517.9 55.8L517.6 55.6L517.4 55.4L517.1 55.2L516.9 55.1L516.6 55.0L516.4 55.0L516.1 55.0L515.9 55.0L515.6 55.0L515.4 55.0L515.1 55.0L514.9 55.0L514.6 55.0L514.4 55.0L514.1 55.0L513.9 55.0L513.6 55.0L513.4 55.0L513.1 54.9L512.9 54.8L512.6 54.6L512.4 54.4L512.1 54.2L511.9 54.1L511.6 54.0L511.4 54.0L511.1 54.0L510.9 54.0L510.6 54.0L510.4 54.0L510.1 53.9L509.9 53.8L509.6 53.6L509.4 53.4L509.1 53.2L508.9 53.1L508.6 53.0L508.4 53.0L508.1 53.0L507.9 53.0L507.6 53.0L507.4 53.0L507.1 53.0L506.9 53.0L506.6 53.0L506.4 53.0L506.1 53.0L505.9 53.0L505.6 53.0L505.4 53.0L505.1 53.0L504.9 53.0L504.6 53.0L504.4 53.0L504.1 53.0L503.9 53.0L503.6 53.0L503.4 53.0L503.1 52.9L502.9 52.8L502.6 52.6L502.4 52.4L502.1 52.2L501.9 52.1L501.6 52.0L501.4 52.0L501.1 52.0L500.9 52.0L500.6 52.0L500.4 52.0L500.1 51.9L499.9 51.8L499.6 51.6L499.4 51.4L499.1 51.2L498.9 51.1L498.6 51.0L498.4 51.0L498.1 51.0L497.9 51.0L497.6 51.0L497.4 51.0L497.1 51.0L496.9 51.0L496.6 51.0L496.4 51.0L496.1 51.0L495.9 51.0L495.6 51.0L495.4 51.0L495.1 51.0L494.9 51.0L494.6 51.0L494.4 51.0L494.1 51.0L493.9 51.0L493.6 51.0L493.4 51.0L493.1 50.9L492.9 50.8L492.6 50.6L492.4 50.4L492.1 50.2L491.9 50.1L491.6 50.0L491.4 50.0L491.1 50.0L490.9 50.0L490.6 50.0L490.4 50.0L490.1 50.0L489.9 50.0L489.6 50.0L489.4 50.0L489.1 50.0L488.9 50.0L488.6 50.0L488.4 50.0L488.1 50.0L487.9 50.0L487.6 50.0L487.4 50.0L487.1 50.0L486.9 50.0L486.6 50.0L486.4 50.0L486.1 50.0L485.9 50.0L485.6 50.0L485.4 50.0L485.1 50.0L484.9 50.0L484.6 50.0L484.4 50.0L484.1 49.9L483.9 49.8L483.6 49.6L483.4 49.4L483.1 49.2L482.9 49.1L482.6 49.0L482.4 49.0L482.1 49.0L481.9 49.0L481.6 49.0L481.4 49.0L481.1 49.0L480.9 49.0L480.6 49.0L480.4 49.0L480.1 49.0L479.9 49.0L479.6 49.0L479.4 49.0L479.1 49.0L478.9 49.0L478.6 49.0L478.4 49.0L478.1 49.0L477.9 49.0L477.6 49.0L477.4 49.0L477.1 49.0L476.9 49.0L476.6 49.0L476.4 49.0L476.1 49.0L475.9 49.0L475.6 49.0L475.4 49.0L475.1 49.0L474.9 49.0L474.6 49.0L474.4 49.0L474.1 48.9L473.9 48.8L473.6 48.6L473.4 48.4L473.1 48.2L472.9 48.1L472.6 48.0L472.4 48.0L472.1 48.0L471.9 48.0L471.6 48.0L471.4 48.0L471.1 48.0L470.9 48.0L470.6 48.0L470.4 48.0L470.1 48.0L469.9 48.0L469.6 48.0L469.4 48.0L469.1 48.0L468.9 48.0L468.6 48.0L468.4 48.0L468.1 48.0L467.9 48.0L467.6 48.0L467.4 48.0L467.1 48.0L466.9 48.0L466.6 48.0L466.4 48.0L466.1 48.0L465.9 48.0L465.6 48.0L465.4 48.0L465.1 48.0L464.9 48.0L464.6 48.0L464.4 48.0L464.1 48.0L463.9 48.0L463.6 48.0L463.4 48.0L463.1 48.0L462.9 48.0L462.6 48.0L462.4 48.0L462.1 48.0L461.9 48.0L461.6 48.0L461.4 48.0L461.1 48.0L460.9 48.0L460.6 48.0L460.4 48.0L460.1 48.0L459.9 48.0L459.6 48.0L459.4 48.0L459.1 48.0L458.9 48.0L458.6 48.0L458.4 48.0L458.1 48.0L457.9 48.0L457.6 48.0L457.4 48.0L457.1 48.0L456.9 48.0L456.6 48.0L456.4 48.0L456.1 48.0L455.9 48.0L455.6 48.0L455.4 48.0L455.1 48.0L454.9 48.0L454.6 48.0L454.4 48.0L454.1 48.0L453.9 48.0L453.6 48.0L453.4 48.0L453.1 48.1L452.9 48.2L452.6 48.4L452.4 48.6L452.1 48.8L451.9 48.9L451.6 49.0L451.4 49.0L451.1 49.0L450.9 49.0L450.6 49.0L450.4 49.0L450.1 49.0L449.9 49.0L449.6 49.0L449.4 49.0L449.1 49.0L448.9 49.0L448.6 49.0L448.4 49.0L448.1 49.0L447.9 49.0L447.6 49.0L447.4 49.0L447.1 49.0L446.9 49.0L446.6 49.0L446.4 49.0L446.1 49.0L445.9 49.0L445.6 49.0L445.4 49.0L445.1 49.0L444.9 49.0L444.6 49.0L444.4 49.0L444.1 49.0L443.9 49.0L443.6 49.0L443.4 49.0L443.1 49.1L442.9 49.2L442.6 49.4L442.4 49.6L442.1 49.8L441.9 49.9L441.6 50.0L441.4 50.0L441.1 50.0L440.9 50.0L440.6 50.0L440.4 50.0L440.1 50.0L439.9 50.0L439.6 50.0L439.4 50.0L439.1 50.0L438.9 50.0L438.6 50.0L438.4 50.0L438.1 50.0L437.9 50.0L437.6 50.0L437.4 50.0L437.1 50.0L436.9 50.0L436.6 50.0L436.4 50.0L436.1 50.0L435.9 50.0L435.6 50.0L435.4 50.0L435.1 50.1L434.9 50.2L434.6 50.4L434.4 50.6L434.1 50.8L433.9 50.9L433.6 51.0L433.4 51.0L433.1 51.0L432.9 51.0L432.6 51.0L432.4 51.0L432.1 51.0L431.9 51.0L431.6 51.0L431.4 51.0L431.1 51.0L430.9 51.0L430.6 51.0L430.4 51.0L430.1 51.0L429.9 51.0L429.6 51.0L429.4 51.0L429.1 51.0L428.9 51.0L428.6 51.0L428.4 51.0L428.1 51.0L427.9 51.0L427.6 51.0L427.4 51.0L427.1 51.1L426.9 51.2L426.6 51.4L426.4 51.6L426.1 51.8L425.9 51.9L425.6 52.0L425.4 52.0L425.1 52.0L424.9 52.0L424.6 52.0L424.4 52.0L424.1 52.1L423.9 52.2L423.6 52.4L423.4 52.6L423.1 52.8L422.9 52.9L422.6 53.0L422.4 53.0L422.1 53.0L421.9 53.0L421.6 53.0L421.4 53.0L421.1 53.0L420.9 53.0L420.6 53.0L420.4 53.0L420.1 53.0L419.9 53.0L419.6 53.0L419.4 53.0L419.1 53.0L418.9 53.0L418.6 53.0L418.4 53.0L418.1 53.1L417.9 53.2L417.6 53.4L417.4 53.6L417.1 53.8L416.9 53.9L416.6 54.0L416.4 54.0L416.1 54.0L415.9 54.0L415.6 54.0L415.4 54.0L415.1 54.1L414.9 54.2L414.6 54.4L414.4 54.6L414.1 54.8L413.9 54.9L413.6 55.0L413.4 55.0L413.1 55.0L412.9 55.0L412.6 55.0L412.4 55.0L412.1 55.0L411.9 55.0L411.6 55.0L411.4 55.0L411.1 55.0L410.9 55.0L410.6 55.0L410.4 55.0L410.1 55.1L409.9 55.2L409.6 55.4L409.4 55.6L409.1 55.8L408.9 55.9L408.6 56.0L408.4 56.0L408.1 56.0L407.9 56.0L407.6 56.0L407.4 56.0L407.1 56.1L406.9 56.2L406.6 56.4L406.4 56.6L406.1 56.8L405.9 56.9L405.6 57.0L405.4 57.0L405.1 57.0L404.9 57.0L404.6 57.0L404.4 57.0L404.1 57.1L403.9 57.2L403.6 57.4L403.4 57.6L403.1 57.8L402.9 57.9L402.6 58.0L402.4 58.0L402.1 58.0L401.9 58.0L401.6 58.0L401.4 58.0L401.1 58.1L400.9 58.2L400.6 58.4L400.4 58.6L400.1 58.8L399.9 58.9L399.6 59.0L399.4 59.0L399.1 59.0L398.9 59.0L398.6 59.0L398.4 59.0L398.1 59.1L397.9 59.2L397.6 59.4L397.4 59.6L397.1 59.8L396.9 59.9L396.6 60.0L396.4 60.0L396.1 60.0L395.9 60.0L395.6 60.0L395.4 60.0L395.1 60.1L394.9 60.2L394.6 60.4L394.4 60.6L394.1 60.8L393.9 60.9L393.6 61.0L393.4 61.0L393.1 61.1L392.9 61.2L392.6 61.4L392.4 61.6L392.1 61.8L391.9 61.9L391.6 62.0L391.4 62.0L391.1 62.1L390.9 62.2L390.6 62.4L390.4 62.6L390.1 62.8L389.9 62.9L389.6 63.0L389.4 63.0L389.1 63.1L388.9 63.2L388.6 63.4L388.4 63.6L388.1 63.8L387.9 63.9L387.6 64.0L387.4 64.0L387.1 64.0L386.9 64.0L386.6 64.0L386.4 64.0L386.1 64.1L385.9 64.2L385.6 64.4L385.4 64.6L385.1 64.8L384.9 64.9L384.6 65.0L384.4 65.0L384.1 65.0L383.9 65.0L383.6 65.0L383.4 65.0L383.1 65.1L382.9 65.2L382.6 65.4L382.4 65.6L382.1 65.8L381.9 65.9L381.6 66.0L381.4 66.0L381.1 66.1L380.9 66.2L380.6 66.4L380.4 66.6L380.1 66.9L379.9 67.1L379.6 67.4L379.4 67.6L379.1 67.8L378.9 67.9L378.6 68.0L378.4 68.0L378.1 68.0L377.9 68.0L377.6 68.0L377.4 68.0L377.1 68.1L376.9 68.2L376.6 68.4L376.4 68.6L376.1 68.8L375.9 68.9L375.6 69.0L375.4 69.0L375.1 69.1L374.9 69.2L374.6 69.4L374.4 69.6L374.1 69.9L373.9 70.1L373.6 70.4L373.4 70.6L373.1 70.8L372.9 70.9L372.6 71.0L372.4 71.0L372.1 71.1L371.9 71.2L371.6 71.4L371.4 71.6L371.1 71.8L370.9 71.9L370.6 72.0L370.4 72.0L370.1 72.1L369.9 72.2L369.6 72.4L369.4 72.6L369.1 72.9L368.9 73.1L368.6 73.4L368.4 73.6L368.1 73.8L367.9 73.9L367.6 74.0L367.4 74.0L367.1 74.1L366.9 74.2L366.6 74.4L366.4 74.6L366.1 74.8L365.9 74.9L365.6 75.0L365.4 75.0L365.1 75.1L364.9 75.2L364.6 75.4L364.4 75.6L364.1 75.9L363.9 76.1L363.6 76.4L363.4 76.6L363.1 76.8L362.9 76.9L362.6 77.0L362.4 77.0L362.1 77.1L361.9 77.2L361.6 77.4L361.4 77.6L361.1 77.8L360.9 77.9L360.6 78.0L360.4 78.0L360.1 78.1L359.9 78.2L359.6 78.4L359.4 78.6L359.1 78.9L358.9 79.1L358.6 79.4L358.4 79.6L358.1 79.8L357.9 79.9L357.6 80.0L357.4 80.0L357.1 80.1L356.9 80.2L356.6 80.4L356.4 80.6L356.1 80.9L355.9 81.1L355.6 81.4L355.4 81.6L355.1 81.9L354.9 82.1L354.6 82.4L354.4 82.6L354.1 82.8L353.9 82.9L353.6 83.0L353.4 83.0L353.1 83.1L352.9 83.2L352.6 83.4L352.4 83.6L352.1 83.9L351.9 84.1L351.6 84.4L351.4 84.6L351.1 84.9L350.9 85.1L350.6 85.4L350.4 85.6L350.1 85.8L349.9 85.9L349.6 86.0L349.4 86.0L349.1 86.1L348.9 86.2L348.6 86.4L348.4 86.6L348.1 86.9L347.9 87.1L347.6 87.4L347.4 87.6L347.1 87.9L346.9 88.1L346.6 88.4L346.4 88.6L346.1 88.9L345.9 89.1L345.6 89.4L345.4 89.6L345.1 89.8L344.9 89.9L344.6 90.0L344.4 90.0L344.1 90.1L343.9 90.2L343.6 90.4L343.4 90.6L343.1 90.9L342.9 91.1L342.6 91.4L342.4 91.6L342.1 91.9L341.9 92.1L341.6 92.4L341.4 92.6L341.1 92.9L340.9 93.1L340.6 93.4L340.4 93.6L340.1 93.8L339.9 93.9L339.6 94.0L339.4 94.0L339.1 94.1L338.9 94.2L338.6 94.4L338.4 94.6L338.1 94.9L337.9 95.1L337.6 95.4L337.4 95.6L337.1 95.9L336.9 96.1L336.6 96.4L336.4 96.6L336.1 96.9L335.9 97.1L335.6 97.4L335.4 97.6L335.1 97.9L334.9 98.1L334.6 98.4L334.4 98.6L334.1 98.9L333.9 99.1L333.6 99.4L333.4 99.6L333.1 99.9L332.9 100.1L332.6 100.4L332.4 100.6L332.1 100.9L331.9 101.1L331.6 101.4L331.4 101.6L331.1 101.9L330.9 102.1L330.6 102.4L330.4 102.6L330.1 102.9L329.9 103.1L329.6 103.4L329.4 103.6L329.1 103.9L328.9 104.1L328.6 104.4L328.4 104.6L328.1 104.9L327.9 105.1L327.6 105.4L327.4 105.6L327.1 105.9L326.9 106.1L326.6 106.4L326.4 106.6L326.2 106.9L326.1 107.1L326.0 107.4L326.0 107.6L325.9 107.9L325.8 108.1L325.6 108.4L325.4 108.6L325.1 108.9L324.9 109.1L324.6 109.4L324.4 109.6L324.1 109.9L323.9 110.1L323.6 110.4L323.4 110.6L323.1 110.9L322.9 111.1L322.6 111.4L322.4 111.6L322.1 111.9L321.9 112.1L321.6 112.4L321.4 112.6L321.2 112.9L321.1 113.1L321.0 113.4L321.0 113.6L320.9 113.9L320.8 114.1L320.6 114.4L320.4 114.6L320.1 114.9L319.9 115.1L319.6 115.4L319.4 115.6L319.1 115.9L318.9 116.1L318.6 116.4L318.4 116.6L318.1 116.9L317.9 117.1L317.6 117.4L317.4 117.6L317.2 117.9L317.1 118.1L317.0 118.4L317.0 118.6L316.9 118.9L316.8 119.1L316.6 119.4L316.4 119.6L316.1 119.9L315.9 120.1L315.6 120.4L315.4 120.6L315.2 120.9L315.1 121.1L315.0 121.4L315.0 121.6L314.9 121.9L314.8 122.1L314.6 122.4L314.4 122.6L314.1 122.9L313.9 123.1L313.6 123.4L313.4 123.6L313.1 123.9L312.9 124.1L312.6 124.4L312.4 124.6L312.1 124.9L311.9 125.1L311.6 125.4L311.4 125.6L311.2 125.9L311.1 126.1L311.0 126.4L311.0 126.6L310.9 126.9L310.8 127.1L310.6 127.4L310.4 127.6L310.1 127.9L309.9 128.1L309.6 128.4L309.4 128.6L309.2 128.9L309.1 129.1L309.0 129.4L309.0 129.6L308.9 129.9L308.8 130.1L308.6 130.4L308.4 130.6L308.2 130.9L308.1 131.1L308.0 131.4L308.0 131.6L307.9 131.9L307.8 132.1L307.6 132.4L307.4 132.6L307.2 132.9L307.1 133.1L307.0 133.4L307.0 133.6L306.9 133.9L306.8 134.1L306.6 134.4L306.4 134.6L306.1 134.9L305.9 135.1L305.6 135.4L305.4 135.6L305.2 135.9L305.1 136.1L305.0 136.4L305.0 136.6L304.9 136.9L304.8 137.1L304.6 137.4L304.4 137.6L304.2 137.9L304.1 138.1L304.0 138.4L304.0 138.6L303.9 138.9L303.8 139.1L303.6 139.4L303.4 139.6L303.1 139.9L302.9 140.1L302.6 140.4L302.4 140.6L302.2 140.9L302.1 141.1L302.0 141.4L302.0 141.6L301.9 141.9L301.8 142.1L301.6 142.4L301.4 142.6L301.2 142.9L301.1 143.1L301.0 143.4L301.0 143.6L300.9 143.9L300.8 144.1L300.6 144.4L300.4 144.6L300.2 144.9L300.1 145.1L300.0 145.4L300.0 145.6L299.9 145.9L299.8 146.1L299.6 146.4L299.4 146.6L299.2 146.9L299.1 147.1L299.0 147.4L299.0 147.6L298.9 147.9L298.8 148.1L298.6 148.4L298.4 148.6L298.2 148.9L298.1 149.1L298.0 149.4L298.0 149.6L298.0 149.9L298.0 150.1L298.0 150.4L298.0 150.6L297.9 150.9L297.8 151.1L297.6 151.4L297.4 151.6L297.2 151.9L297.1 152.1L297.0 152.4L297.0 152.6L296.9 152.9L296.8 153.1L296.6 153.4L296.4 153.6L296.2 153.9L296.1 154.1L296.0 154.4L296.0 154.6L295.9 154.9L295.8 155.1L295.6 155.4L295.4 155.6L295.2 155.9L295.1 156.1L295.0 156.4L295.0 156.6L294.9 156.9L294.8 157.1L294.6 157.4L294.4 157.6L294.2 157.9L294.1 158.1L294.0 158.4L294.0 158.6L294.0 158.9L294.0 159.1L294.0 159.4L294.0 159.6L293.9 159.9L293.8 160.1L293.6 160.4L293.4 160.6L293.2 160.9L293.1 161.1L293.0 161.4L293.0 161.6L292.9 161.9L292.8 162.1L292.6 162.4L292.4 162.6L292.2 162.9L292.1 163.1L292.0 163.4L292.0 163.6L292.0 163.9L292.0 164.1L292.0 164.4L292.0 164.6L292.0 164.9L292.0 165.1L292.0 165.4L292.0 165.6L291.9 165.9L291.8 166.1L291.6 166.4L291.4 166.6L291.2 166.9L291.1 167.1L291.0 167.4L291.0 167.6L291.0 167.9L291.0 168.1L291.0 168.4L291.0 168.6L290.9 168.9L290.8 169.1L290.6 169.4L290.4 169.6L290.2 169.9L290.1 170.1L290.0 170.4L290.0 170.6L290.0 170.9L290.0 171.1L290.0 171.4L290.0 171.6L289.9 171.9L289.8 172.1L289.6 172.4L289.4 172.6L289.2 172.9L289.1 173.1L289.0 173.4L289.0 173.6L289.0 173.9L289.0 174.1L289.0 174.4L289.0 174.6L289.0 174.9L289.0 175.1L289.0 175.4L289.0 175.6L289.0 175.9L289.0 176.1L289.0 176.4L289.0 176.6L288.9 176.9L288.8 177.1L288.6 177.4L288.4 177.6L288.2 177.9L288.1 178.1L288.0 178.4L288.0 178.6L288.0 178.9L288.0 179.1L288.0 179.4L288.0 179.6L287.9 179.9L287.8 180.1L287.6 180.4L287.4 180.6L287.2 180.9L287.1 181.1L287.0 181.4L287.0 181.6L287.0 181.9L287.0 182.1L287.0 182.4L287.0 182.6L287.0 182.9L287.0 183.1L287.0 183.4L287.0 183.6L287.0 183.9L287.0 184.1L287.0 184.4L287.0 184.6L287.0 184.9L287.0 185.1L287.0 185.4L287.0 185.6L286.9 185.9L286.8 186.1L286.6 186.4L286.4 186.6L286.2 186.9L286.1 187.1L286.0 187.4L286.0 187.6L286.0 187.9L286.0 188.1L286.0 188.4L286.0 188.6L286.0 188.9L286.0 189.1L286.0 189.4L286.0 189.6L286.0 189.9L286.0 190.1L286.0 190.4L286.0 190.6L286.0 190.9L286.0 191.1L286.0 191.4L286.0 191.6L286.0 191.9L286.0 192.1L286.0 192.4L286.0 192.6L285.9 192.9L285.8 193.1L285.6 193.4L285.4 193.6L285.2 193.9L285.1 194.1L285.0 194.4L285.0 194.6L285.0 194.9L285.0 195.1L285.0 195.4L285.0 195.6L285.0 195.9L285.0 196.1L285.0 196.4L285.0 196.6L285.0 196.9L285.0 197.1L285.0 197.4L285.0 197.6L285.0 197.9L285.0 198.1L285.0 198.4L285.0 198.6L285.0 198.9L285.0 199.1L285.0 199.4L285.0 199.6L285.0 199.9L285.0 200.1L285.0 200.4L285.0 200.6L284.9 200.9L284.8 201.1L284.6 201.4L284.4 201.6L284.2 201.9L284.1 202.1L284.0 202.4L284.0 202.6L284.0 202.9L284.0 203.1L284.0 203.4L284.0 203.6L284.0 203.9L284.0 204.1L284.0 204.4L284.0 204.6L284.0 204.9L284.0 205.1L284.0 205.4L284.0 205.6L284.0 205.9L284.0 206.1L284.0 206.4L284.0 206.6L284.0 206.9L284.0 207.1L284.0 207.4L284.0 207.6L284.0 207.9L284.0 208.1L284.0 208.4L284.0 208.6L284.0 208.9L284.0 209.1L284.0 209.4L284.0 209.6L283.9 209.9L283.8 210.1L283.6 210.4L283.4 210.6L283.2 210.9L283.1 211.1L283.0 211.4L283.0 211.6L283.0 211.9L283.0 212.1L283.0 212.4L283.0 212.6L283.0 212.9L283.0 213.1L283.0 213.4L283.0 213.6L283.0 213.9L283.0 214.1L283.0 214.4L283.0 214.6L283.0 214.9L283.0 215.1L283.0 215.4L283.0 215.6L283.0 215.9L283.0 216.1L283.0 216.4L283.0 216.6L283.0 216.9L283.0 217.1L283.0 217.4L283.0 217.6L283.0 217.9L283.0 218.1L283.0 218.4L283.0 218.6L283.0 218.9L283.0 219.1L283.0 219.4L283.0 219.6L283.0 219.9L283.0 220.1L283.0 220.4L283.0 220.6L283.0 220.9L283.0 221.1L283.0 221.4L283.0 221.6L282.9 221.9L282.8 222.1L282.6 222.4L282.4 222.6L282.2 222.9L282.2 223.1L282.4 223.4L282.6 223.6L282.8 223.9L282.9 224.1L283.0 224.4L283.0 224.6L283.0 224.9L283.0 225.1L283.0 225.4L283.0 225.6L283.0 225.9L283.0 226.1L283.0 226.4L283.0 226.6L283.0 226.9L283.0 227.1L283.0 227.4L283.0 227.6L283.0 227.9L283.0 228.1L283.0 228.4L283.0 228.6L283.0 228.9L283.0 229.1L283.0 229.4L283.0 229.6L283.0 229.9L283.0 230.1L283.0 230.4L283.0 230.6L283.0 230.9L283.0 231.1L283.0 231.4L283.0 231.6L283.0 231.9L283.0 232.1L283.0 232.4L283.0 232.6L283.0 232.9L283.0 233.1L283.0 233.4L283.0 233.6L283.0 233.9L283.0 234.1L283.0 234.4L283.0 234.6L283.1 234.9L283.2 235.1L283.4 235.4L283.6 235.6L283.8 235.9L283.9 236.1L284.0 236.4L284.0 236.6L284.0 236.9L284.0 237.1L284.0 237.4L284.0 237.6L284.0 237.9L284.0 238.1L284.0 238.4L284.0 238.6L284.0 238.9L284.0 239.1L284.0 239.4L284.0 239.6L284.0 239.9L284.0 240.1L284.0 240.4L284.0 240.6L284.0 240.9L284.0 241.1L284.0 241.4L284.0 241.6L284.0 241.9L284.0 242.1L284.0 242.4L284.0 242.6L284.0 242.9L284.0 243.1L284.0 243.4L284.0 243.6L284.0 243.9L284.0 244.1L284.0 244.4L284.0 244.6L284.1 244.9L284.2 245.1L284.4 245.4L284.6 245.6L284.8 245.9L284.9 246.1L285.0 246.4L285.0 246.6L285.0 246.9L285.0 247.1L285.0 247.4L285.0 247.6L285.0 247.9L285.0 248.1L285.0 248.4L285.0 248.6L285.0 248.9L285.0 249.1L285.0 249.4L285.0 249.6L285.0 249.9L285.0 250.1L285.0 250.4L285.0 250.6L285.0 250.9L285.0 251.1L285.0 251.4L285.0 251.6L285.0 251.9L285.0 252.1L285.0 252.4L285.0 252.6L285.1 252.9L285.2 253.1L285.4 253.4L285.6 253.6L285.8 253.9L285.9 254.1L286.0 254.4L286.0 254.6L286.0 254.9L286.0 255.1L286.0 255.4L286.0 255.6L286.0 255.9L286.0 256.1L286.0 256.4L286.0 256.6L286.0 256.9L286.0 257.1L286.0 257.4L286.0 257.6L286.0 257.9L286.0 258.1L286.0 258.4L286.0 258.6L286.0 258.9L286.0 259.1L286.0 259.4L286.0 259.6L286.1 259.9L286.2 260.1L286.4 260.4L286.6 260.6L286.8 260.9L286.9 261.1L287.0 261.4L287.0 261.6L287.0 261.9L287.0 262.1L287.0 262.4L287.0 262.6L287.0 262.9L287.0 263.1L287.0 263.4L287.0 263.6L287.0 263.9L287.0 264.1L287.0 264.4L287.0 264.6L287.1 264.9L287.2 265.1L287.4 265.4L287.6 265.6L287.8 265.9L287.9 266.1L288.0 266.4L288.0 266.6L288.0 266.9L288.0 267.1L288.0 267.4L288.0 267.6L288.0 267.9L288.0 268.1L288.0 268.4L288.0 268.6L288.1 268.9L288.2 269.1L288.4 269.4L288.6 269.6L288.8 269.9L288.9 270.1L289.0 270.4L289.0 270.6L289.0 270.9L289.0 271.1L289.0 271.4L289.0 271.6L289.0 271.9L289.0 272.1L289.0 272.4L289.0 272.6L289.1 272.9L289.2 273.1L289.4 273.4L289.6 273.6L289.8 273.9L289.9 274.1L290.0 274.4L290.0 274.6L290.0 274.9L290.0 275.1L290.0 275.4L290.0 275.6L290.0 275.9L290.0 276.1L290.0 276.4L290.0 276.6L290.1 276.9L290.2 277.1L290.4 277.4L290.6 277.6L290.8 277.9L290.9 278.1L291.0 278.4L291.0 278.6L291.1 278.9L291.2 279.1L291.4 279.4L291.6 279.6L291.8 279.9L291.9 280.1L292.0 280.4L292.0 280.6L292.0 280.9L292.0 281.1L292.0 281.4L292.0 281.6L292.0 281.9L292.0 282.1L292.0 282.4L292.0 282.6L292.1 282.9L292.2 283.1L292.4 283.4L292.6 283.6L292.8 283.9L292.9 284.1L293.0 284.4L293.0 284.6L293.0 284.9L293.0 285.1L293.0 285.4L293.0 285.6L293.1 285.9L293.2 286.1L293.4 286.4L293.6 286.6L293.8 286.9L293.9 287.1L294.0 287.4L294.0 287.6L294.0 287.9L294.0 288.1L294.0 288.4L294.0 288.6L294.1 288.9L294.2 289.1L294.4 289.4L294.6 289.6L294.8 289.9L294.9 290.1L295.0 290.4L295.0 290.6L295.1 290.9L295.2 291.1L295.4 291.4L295.6 291.6L295.8 291.9L295.9 292.1L296.0 292.4L296.0 292.6L296.1 292.9L296.2 293.1L296.4 293.4L296.6 293.6L296.8 293.9L296.9 294.1L297.0 294.4L297.0 294.6L297.1 294.9L297.2 295.1L297.4 295.4L297.6 295.6L297.8 295.9L297.9 296.1L298.0 296.4L298.0 296.6L298.0 296.9L298.0 297.1L298.0 297.4L298.0 297.6L298.1 297.9L298.2 298.1L298.4 298.4L298.6 298.6L298.8 298.9L298.9 299.1L299.0 299.4L299.0 299.6L299.1 299.9L299.2 300.1L299.4 300.4L299.6 300.6L299.8 300.9L299.9 301.1L300.0 301.4L300.0 301.6L300.1 301.9L300.2 302.1L300.4 302.4L300.6 302.6L300.8 302.9L300.9 303.1L301.0 303.4L301.0 303.6L301.1 303.9L301.2 304.1L301.4 304.4L301.6 304.6L301.8 304.9L301.9 305.1L302.0 305.4L302.0 305.6L302.1 305.9L302.2 306.1L302.4 306.4L302.6 306.6L302.8 306.9L302.9 307.1L303.0 307.4L303.0 307.6L303.1 307.9L303.2 308.1L303.4 308.4L303.6 308.6L303.9 308.9L304.1 309.1L304.4 309.4L304.6 309.6L304.8 309.9L304.9 310.1L305.0 310.4L305.0 310.6L305.1 310.9L305.2 311.1L305.4 311.4L305.6 311.6L305.9 311.9L306.1 312.1L306.4 312.4L306.6 312.6L306.8 312.9L306.9 313.1L307.0 313.4L307.0 313.6L307.1 313.9L307.2 314.1L307.4 314.4L307.6 314.6L307.8 314.9L307.9 315.1L308.0 315.4L308.0 315.6L308.1 315.9L308.2 316.1L308.4 316.4L308.6 316.6L308.9 316.9L309.1 317.1L309.4 317.4L309.6 317.6L309.8 317.9L309.9 318.1L310.0 318.4L310.0 318.6L310.1 318.9L310.2 319.1L310.4 319.4L310.6 319.6L310.8 319.9L310.9 320.1L311.0 320.4L311.0 320.6L311.1 320.9L311.2 321.1L311.4 321.4L311.6 321.6L311.8 321.9L311.9 322.1L312.0 322.4L312.0 322.6L312.1 322.9L312.2 323.1L312.4 323.4L312.6 323.6L312.9 323.9L313.1 324.1L313.4 324.4L313.6 324.6L313.8 324.9L313.9 325.1L314.0 325.4L314.0 325.6L314.1 325.9L314.2 326.1L314.4 326.4L314.6 326.6L314.9 326.9L315.1 327.1L315.4 327.4L315.6 327.6L315.8 327.9L315.9 328.1L316.0 328.4L316.0 328.6L316.1 328.9L316.2 329.1L316.4 329.4L316.6 329.6L316.9 329.9L317.1 330.1L317.4 330.4L317.6 330.6L317.8 330.9L317.9 331.1L318.0 331.4L318.0 331.6L318.1 331.9L318.2 332.1L318.4 332.4L318.6 332.6L318.9 332.9L319.1 333.1L319.4 333.4L319.6 333.6L319.9 333.9L320.1 334.1L320.4 334.4L320.6 334.6L320.8 334.9L320.9 335.1L321.0 335.4L321.0 335.6L321.1 335.9L321.2 336.1L321.4 336.4L321.6 336.6L321.9 336.9L322.1 337.1L322.4 337.4L322.6 337.6L322.8 337.9L322.9 338.1L323.0 338.4L323.0 338.6L323.1 338.9L323.2 339.1L323.4 339.4L323.6 339.6L323.9 339.9L324.1 340.1L324.4 340.4L324.6 340.6L324.9 340.9L325.1 341.1L325.4 341.4L325.6 341.6L325.8 341.9L325.9 342.1L326.0 342.4L326.0 342.6L326.1 342.9L326.2 343.1L326.4 343.4L326.6 343.6L326.9 343.9L327.1 344.1L327.4 344.4L327.6 344.6L327.9 344.9L328.1 345.1L328.4 345.4L328.6 345.6L328.8 345.9L328.9 346.1L329.0 346.4L329.0 346.6L329.1 346.9L329.2 347.1L329.4 347.4L329.6 347.6L329.9 347.9L330.1 348.1L330.4 348.4L330.6 348.6L330.9 348.9L331.1 349.1L331.4 349.4L331.6 349.6L331.8 349.9L331.9 350.1L332.0 350.4L332.0 350.6L332.1 350.9L332.2 351.1L332.4 351.4L332.6 351.6L332.9 351.9L333.1 352.1L333.4 352.4L333.6 352.6L333.9 352.9L334.1 353.1L334.4 353.4L334.6 353.6L334.8 353.9L334.9 354.1L335.0 354.4L335.0 354.6L335.1 354.9L335.2 355.1L335.4 355.4L335.6 355.6L335.9 355.9L336.1 356.1L336.4 356.4L336.6 356.6L336.9 356.9L337.1 357.1L337.4 357.4L337.6 357.6L337.8 357.9L337.9 358.1L338.0 358.4L338.0 358.6L338.1 358.9L338.2 359.1L338.4 359.4L338.6 359.6L338.9 359.9L339.1 360.1L339.4 360.4L339.6 360.6L339.9 360.9L340.1 361.1L340.4 361.4L340.6 361.6L340.8 361.9L340.9 362.1L341.0 362.4L341.0 362.6L341.1 362.9L341.2 363.1L341.4 363.4L341.6 363.6L341.9 363.9L342.1 364.1L342.4 364.4L342.6 364.6L342.9 364.9L343.1 365.1L343.4 365.4L343.6 365.6L343.8 365.9L343.9 366.1L344.0 366.4L344.0 366.6L344.1 366.9L344.2 367.1L344.4 367.4L344.6 367.6L344.9 367.9L345.1 368.1L345.4 368.4L345.6 368.6L345.9 368.9L346.1 369.1L346.4 369.4L346.6 369.6L346.8 369.9L346.9 370.1L347.0 370.4L347.0 370.6L347.1 370.9L347.2 371.1L347.4 371.4L347.6 371.6L347.9 371.9L348.1 372.1L348.4 372.4L348.6 372.6L348.9 372.9L349.1 373.1L349.4 373.4L349.6 373.6L349.9 373.9L350.1 374.1L350.4 374.4L350.6 374.6L350.8 374.9L350.9 375.1L351.0 375.4L351.0 375.6L351.1 375.9L351.2 376.1L351.4 376.4L351.6 376.6L351.9 376.9L352.1 377.1L352.4 377.4L352.6 377.6L352.9 377.9L353.1 378.1L353.4 378.4L353.6 378.6L353.8 378.9L353.9 379.1L354.0 379.4L354.0 379.6L354.1 379.9L354.2 380.1L354.4 380.4L354.6 380.6L354.9 380.9L355.1 381.1L355.4 381.4L355.6 381.6L355.9 381.9L356.1 382.1L356.4 382.4L356.6 382.6L356.9 382.9L357.1 383.1L357.4 383.4L357.6 383.6L357.8 383.9L357.9 384.1L358.0 384.4L358.0 384.6L358.1 384.9L358.2 385.1L358.4 385.4L358.6 385.6L358.9 385.9L359.1 386.1L359.4 386.4L359.6 386.6L359.9 386.9L360.1 387.1L360.4 387.4L360.6 387.6L360.8 387.9L360.9 388.1L361.0 388.4L361.0 388.6L361.1 388.9L361.2 389.1L361.4 389.4L361.6 389.6L361.9 389.9L362.1 390.1L362.4 390.4L362.6 390.6L362.9 390.9L363.1 391.1L363.4 391.4L363.6 391.6L363.9 391.9L364.1 392.1L364.4 392.4L364.6 392.6L364.8 392.9L364.9 393.1L365.0 393.4L365.0 393.6L365.1 393.9L365.2 394.1L365.4 394.4L365.6 394.6L365.9 394.9L366.1 395.1L366.4 395.4L366.6 395.6L366.9 395.9L367.1 396.1L367.4 396.4L367.6 396.6L367.8 396.9L367.9 397.1L368.0 397.4L368.0 397.6L368.1 397.9L368.2 398.1L368.4 398.4L368.6 398.6L368.9 398.9L369.1 399.1L369.4 399.4L369.6 399.6L369.9 399.9L370.1 400.1L370.4 400.4L370.6 400.6L370.9 400.9L371.1 401.1L371.4 401.4L371.6 401.6L371.8 401.9L371.9 402.1L372.0 402.4L372.0 402.6L372.1 402.9L372.2 403.1L372.4 403.4L372.6 403.6L372.9 403.9L373.1 404.1L373.4 404.4L373.6 404.6L373.9 404.9L374.1 405.1L374.4 405.4L374.6 405.6L374.9 405.9L375.1 406.1L375.4 406.4L375.6 406.6L375.8 406.9L375.9 407.1L376.0 407.4L376.0 407.6L376.1 407.9L376.2 408.1L376.4 408.4L376.6 408.6L376.9 408.9L377.1 409.1L377.4 409.4L377.6 409.6L377.9 409.9L378.1 410.1L378.4 410.4L378.6 410.6L378.8 410.9L378.9 411.1L379.0 411.4L379.0 411.6L379.1 411.9L379.2 412.1L379.4 412.4L379.6 412.6L379.9 412.9L380.1 413.1L380.4 413.4L380.6 413.6L380.9 413.9L381.1 414.1L381.4 414.4L381.6 414.6L381.9 414.9L382.1 415.1L382.4 415.4L382.6 415.6L382.8 415.9L382.9 416.1L383.0 416.4L383.0 416.6L383.1 416.9L383.2 417.1L383.4 417.4L383.6 417.6L383.9 417.9L384.1 418.1L384.4 418.4L384.6 418.6L384.9 418.9L385.1 419.1L385.4 419.4L385.6 419.6L385.9 419.9L386.1 420.1L386.4 420.4L386.6 420.6L386.8 420.9L386.9 421.1L387.0 421.4L387.0 421.6L387.1 421.9L387.2 422.1L387.4 422.4L387.6 422.6L387.9 422.9L388.1 423.1L388.4 423.4L388.6 423.6L388.9 423.9L389.1 424.1L389.4 424.4L389.6 424.6L389.9 424.9L390.1 425.1L390.4 425.4L390.6 425.6L390.8 425.9L390.9 426.1L391.0 426.4L391.0 426.6L391.1 426.9L391.2 427.1L391.4 427.4L391.6 427.6L391.9 427.9L392.1 428.1L392.4 428.4L392.6 428.6L392.9 428.9L393.1 429.1L393.4 429.4L393.6 429.6L393.8 429.9L393.9 430.1L394.0 430.4L394.0 430.6L394.1 430.9L394.2 431.1L394.4 431.4L394.6 431.6L394.9 431.9L395.1 432.1L395.4 432.4L395.6 432.6L395.9 432.9L396.1 433.1L396.4 433.4L396.6 433.6L396.9 433.9L397.1 434.1L397.4 434.4L397.6 434.6L397.9 434.9L398.1 435.1L398.4 435.4L398.6 435.6L398.8 435.9L398.9 436.1L399.0 436.4L399.0 436.6L399.1 436.9L399.2 437.1L399.4 437.4L399.6 437.6L399.9 437.9L400.1 438.1L400.4 438.4L400.6 438.6L400.9 438.9L401.1 439.1L401.4 439.4L401.6 439.6L401.8 439.9L401.9 440.1L402.0 440.4L402.0 440.6L402.1 440.9L402.2 441.1L402.4 441.4L402.6 441.6L402.9 441.9L403.1 442.1L403.4 442.4L403.6 442.6L403.9 442.9L404.1 443.1L404.4 443.4L404.6 443.6L404.8 443.9L404.9 444.1L405.0 444.4L405.0 444.6L405.1 444.9L405.2 445.1L405.4 445.4L405.6 445.6L405.9 445.9L406.1 446.1L406.4 446.4L406.6 446.6L406.9 446.9L407.1 447.1L407.4 447.4L407.6 447.6L407.8 447.9L407.9 448.1L408.0 448.4L408.0 448.6L408.1 448.9L408.2 449.1L408.4 449.4L408.6 449.6L408.9 449.9L409.1 450.1L409.4 450.4L409.6 450.6L409.9 450.9L410.1 451.1L410.4 451.4L410.6 451.6L410.8 451.9L410.9 452.1L411.0 452.4L411.0 452.6L411.1 452.9L411.2 453.1L411.4 453.4L411.6 453.6L411.8 453.9L411.9 454.1L412.0 454.4L412.0 454.6L412.1 454.9L412.2 455.1L412.4 455.4L412.6 455.6L412.8 455.9L412.9 456.1L413.0 456.4L413.0 456.6L413.0 456.9L413.0 457.1L413.0 457.4L413.0 457.6L413.0 457.9L413.0 458.1L413.0 458.4L413.0 458.6L413.1 458.9L413.2 459.1L413.4 459.4L413.6 459.6L413.8 459.9L413.9 460.1L414.0 460.4L414.0 460.6L414.0 460.9L414.0 461.1L414.0 461.4L414.0 461.6L414.1 461.9L414.2 462.1L414.4 462.4L414.6 462.6L414.9 462.9L415.1 463.1L415.4 463.4L415.6 463.6L415.9 463.9L416.1 464.1L416.4 464.4L416.6 464.6L416.9 464.9L417.1 465.1L417.4 465.4L417.6 465.6L417.9 465.9L418.1 466.1L418.4 466.4L418.6 466.6L418.9 466.9L419.1 467.1L419.4 467.4L419.6 467.6L419.9 467.9L420.1 468.1L420.4 468.4L420.6 468.6L420.9 468.9L421.1 469.1L421.4 469.4L421.6 469.6L421.9 469.9L422.1 470.1L422.4 470.4L422.6 470.6L422.9 470.9L423.1 471.1L423.4 471.4L423.6 471.6L423.9 471.9L424.1 472.1L424.4 472.4L424.6 472.6L424.9 472.9L425.1 473.1L425.4 473.4L425.6 473.6L425.9 473.9L426.1 474.1L426.4 474.4L426.6 474.6L426.9 474.9L427.1 475.1L427.4 475.4L427.6 475.6L427.9 475.9L428.1 476.1L428.4 476.4L428.6 476.6L428.9 476.9L429.1 477.1L429.4 477.4L429.6 477.6L429.9 477.9L430.1 478.1L430.4 478.4L430.6 478.6L430.9 478.9L431.1 479.1L431.4 479.4L431.6 479.6L431.9 479.9L432.1 480.1L432.4 480.4L432.6 480.6L432.9 480.9L433.1 481.1L433.4 481.4L433.6 481.6L433.9 481.9L434.1 482.1L434.4 482.4L434.6 482.6L434.9 482.9L435.1 483.1L435.4 483.4L435.6 483.6L435.9 483.8L436.1 483.9L436.4 484.0"/>
</g>
</svg>