<?xml version="1.0" encoding="UTF-8"?>
<svg xmlns="http://www.w3.org/2000/svg" width="1024" height="1024" viewBox="0 0 1024 1024">
<g fill="none" stroke="#000000" stroke-width="70" stroke-linecap="round" stroke-linejoin="round">
<path d="M973 144L972 144L971 144L970 144L969 144L968 144L967 144L966 144L965 144L964 144L963 144L962 144L961 144L960 144L959 144L958 144L957 144L956 144L955 145L954 145L953 144L952 144L951 144L950 144L949 144L948 144L947 144L946 144L945 144L944 144L943 144L942 144L941 144L940 144L939 144L938 144L937 144L936 144L935 144L934 144L933 144L932 144L931 144L930 144L929 144L928 144L927 144L926 144L925 144L924 144L923 144L922 144L921 144L920 144L919 144L918 144L917 144L916 144L915 144L914 144L913 144L912 144L911 144L910 144L909 144L908 144L907 144L906 144L905 144L904 144L903 144L902 144L901 144L900 144L899 144L898 144L897 144L896 144L895 144L894 144L893 144L892 144L891 144L890 144L889 144L888 144L887 144L886 144L885 144L884 144L883 144L882 144L881 144L880 144L879 144L878 144L877 144L876 144L875 144L874 144L873 144L872 144L871 144L870 144L869 144L868 144L867 144L866 144L865 144L864 144L863 144L862 144L861 144L860 144L859 144L858 144L857 144L856 144L855 144L854 144L853 144L852 144L851 144L850 144L849 144L848 144L847 144L846 144L845 144L844 144L843 144L842 144L841 144L840 144L839 144L838 144L837 144L836 144L835 144L834 144L833 144L832 144L831 144L830 144L829 144L828 144L827 144L826 144L825 144L824 144L823 144L822 144L821 144L820 144L819 144L818 144L817 144L816 144L815 144L814 144L813 144L812 144L811 144L810 144L809 144L808 144L807 144L806 144L805 144L804 144L803 144L802 144L801 144L800 144L799 144L798 144L797 144L796 144L795 144L794 144L793 144L792 144L791 144L790 144L789 144L788 144L787 144L786 144L785 144L784 144L783 144L782 144L781 144L780 144L779 144L778 144L777 144L776 144L775 144L774 144L773 144L772 144L771 144L770 144L769 144L768 144L767 144L766 144L765 144L764 144L763 144L762 144L761 144L760 144L759 144L758 144L757 144L756 144L755 144L754 144L753 144L752 144L751 144L750 144L749 144L748 144L747 144L746 144L745 144L744 144L743 144L742 144L741 144L740 144L739 144L738 144L737 144L736 144L735 144L734 144L733 144L732 144L731 144L730 144L729 144L728 144L727 144L726 144L725 144L724 144L723 144L722 144L721 144L720 144L719 144L718 144L717 144L716 144L715 144L714 144L713 144L712 144L711 144L710 144L709 144L708 144L707 144L706 144L705 144L704 144L703 144L702 144L701 144L700 144L699 144L698 144L697 144L696 144L695 144L694 144L693 144L692 144L691 144L690 144L689 144L688 144L687 144L686 144L685 144L684 144L683 144L682 144L681 144L680 144L679 144L678 144L677 144L676 144L675 144L674 144L673 144L672 144L671 144L670 144L669 144L668 144L667 144L666 144L665 144L664 144L663 144L662 144L661 144L660 144L659 144L658 144L657 144L656 144L655 144L654 144L653 144L652 144L651 144L650 144L649 144L648 144L647 144L646 144L645 144L644 144L643 144L642 144L641 144L640 144L639 144L638 144L637 144L636 144L635 144L634 144L633 144L632 144L631 144L630 144L629 144L628 144L627 144L626 144L625 144L624 144L623 144L622 144L621 144L620 144L619 144L618 144L617 144L616 144L615 144L614 144L613 144L612 144L611 144L610 144L609 144L608 144L607 144L606 144L605 144L604 144L603 144L602 144L601 144L600 144L599 144L598 144L597 144L596 144L595 144L594 144L593 144L592 144L591 144L590 144L589 144L588 144L587 144L586 144L585 144L584 144L583 144L582 144L581 144L580 144L579 144L578 144L577 144L576 144L575 144L574 144L573 144L572 144L571 144L570 144L569 144L568 144L567 144L566 144L565 144L564 144L563 144L562 144L561 144L560 144L559 144L558 144L557 144L556 144L555 144L554 144L553 144L552 144L551 144L550 144L549 144L548 144L547 144L546 144L545 144L544 144L543 144L542 144L541 144L540 144L539 144L538 144L537 144L536 144L535 144L534 144L533 144L532 144L531 144L530 144L529 144L528 144L527 144L526 144L525 144L524 144L523 144L522 144L521 144L520 144L519 144L518 144L517 144L516 144L515 144L514 144L513 144L512 144L511 144L510 144L509 144L508 144L507 144L506 144L505 144L504 144L503 144L502 144L501 144L500 144L499 144L498 144L497 144L496 144L495 144L494 144L493 144L492 144L491 144L490 144L489 144L488 144L487 143L486 143L485 143L484 143L483 143L482 143L481 143L480 143L479 143L478 143L477 143L476 143L475 143L474 143L473 143L472 143L471 143L470 143L469 143L468 143L467 143L466 143L465 143L464 143L463 143L462 143L461 143L460 143L459 143L458 143L457 143L456 143L455 143L454 143L453 143L452 143L451 143L450 143L449 143L448 143L447 143L446 143L445 143L444 143L443 143L442 143L441 143L440 143L439 143L438 143L437 143L436 143L435 143L434 143L433 143L432 143L431 143L430 143L429 143L428 143L427 143L426 143L425 143L424 143L423 143L422 143L421 143L420 143L419 143L418 143L417 143L416 143L415 143L414 143L413 143L412 143L411 143L410 143L409 143L408 143L407 143L406 143L405 143L404 143L403 143L402 143L401 143L400 143L399 143L398 143L397 143L396 143L395 143L394 143L393 143L392 143L391 143L390 143L389 143L388 143L387 143L386 143L385 143L384 143L383 143L382 143L381 143L380 143L379 143L378 143L377 143L376 143L375 143L374 143L373 143L372 143L371 143L370 143L369 143L368 143L367 143L366 143L365 143L364 143L363 143L362 143L361 143L360 143L359 143L358 143L357 143L356 143L355 143L354 143L353 143L352 143L351 143L350 143L349 143L348 143L347 143L346 143L345 143L344 144L343 144L342 144L341 144L340 144L339 144L338 144L337 144L336 144L335 144L334 144L333 144L332 144L331 144L330 144L329 144L328 144L327 144L326 144L325 144L324 144L323 144L322 144L321 144L320 144L319 144L318 144L317 144L316 144L315 144L314 144L313 145L312 145L311 145L310 145L309 145L308 145L307 145L306 145L305 145L304 145L303 145L302 145L301 145L300 145L299 145L298 145L297 145L296 145L295 145L294 145L293 145L292 145L291 145L290 145L289 145L288 145L287 145L286 146L285 146L284 146L283 146L282 146L281 146L280 146L279 147L278 147L277 148L276 148L275 148L274 148L273 149L272 149L271 149L270 149L269 150L268 151L267 152L266 153L266 154L266 155L265 156L265 157L265 158L265 159L264 160L264 161L264 162L264 163L263 164L263 165L263 166L263 167L263 168L262 169L262 170L262 171L262 172L262 173L262 174L262 175L262 176L262 177L261 178L261 179L261 180L261 181L261 182L261 183L261 184L261 185L261 186L261 187L261 188L261 189L261 190L261 191L261 192L261 193L261 194L261 195L261 196L261 197L261 198L261 199L261 200L261 201L261 202L261 203L261 204L261 205L261 206L261 207L261 208L261 209L261 210L261 211L261 212L261 213L261 214L261 215L261 216L261 217L261 218L261 219L261 220L261 221L261 222L261 223L261 224L261 225L261 226L261 227L261 228L261 229L261 230L261 231L261 232L261 233L261 234L261 235L261 236L261 237L261 238L261 239L261 240L261 241L261 242L261 243L261 244L261 245L261 246L261 247L261 248L261 249L261 250L261 251L261 252L261 253L261 254L261 255L261 256L261 257L261 258L261 259L261 260L261 261L261 262L261 263L261 264L261 265L261 266L261 267L261 268L261 269L261 270L261 271L261 272L261 273L261 274L261 275L261 276L261 277L261 278L261 279L261 280L261 281L261 282L261 283L261 284L261 285L261 286L261 287L261 288L261 289L261 290L261 291L261 292L261 293L261 294L261 295L261 296L261 297L261 298L261 299L261 300L261 301L261 302L261 303L261 304L261 305L261 306L261 307L261 308L261 309L261 310L261 311L261 312L261 313L261 314L261 315L261 316L261 317L261 318L261 319L261 320L261 321L261 322L261 323L261 324L261 325L261 326L261 327L261 328L261 329L261 330L261 331L261 332L261 333L261 334L261 335L261 336L261 337L261 338L261 339L261 340L261 341L261 342L261 343L261 344L261 345L261 346L261 347L261 348L261 349L261 350L261 351L261 352L261 353L261 354L261 355L261 356L261 357L261 358L261 359L261 360L261 361L261 362L261 363L261 364L261 365L261 366L261 367L261 368L261 369L261 370L261 371L261 372L261 373L261 374L261 375L261 376L261 377L261 378L261 379L261 380L261 381L261 382L261 383L261 384L261 385L261 386L261 387L261 388L261 389L261 390L261 391L261 392L261 393L261 394L261 395L261 396L261 397L261 398L261 399L261 400L261 401L261 402L261 403L261 404L261 405L261 406L261 407L261 408L261 409L261 410L261 411L261 412L261 413L261 414L261 415L261 416L261 417L261 418L261 419L261 420L261 421L261 422L261 423L261 424L261 425L261 426L261 427L261 428L261 429L261 430L261 431L261 432L261 433L261 434L261 435L261 436L261 437L261 438L261 439L261 440L261 441L261 442L261 443L261 444L261 445L261 446L261 447L261 448L261 449L261 450L261 451L261 452L261 453L261 454L261 455L261 456L261 457L261 458L261 459L261 460L261 461L261 462L261 463L261 464L261 465L261 466L261 467L261 468L261 469L261 470L261 471L261 472L261 473L261 474L261 475L261 476L261 477L261 478L261 479L261 480L261 481L261 482L261 483L261 484L261 485L261 486L261 487L261 488L261 489L261 490L261 491L261 492L261 493L261 494L261 495L261 496L261 497L261 498L261 499L261 500L261 501L261 502L261 503L261 504L261 505L261 506L261 507L261 508L261 509L261 510L261 511L260 512L260 513L260 514L260 515L260 516L260 517L260 518L260 519L260 520L260 521L260 522L260 523L260 524L260 525L260 526L260 527L260 528L260 529L260 530L260 531L260 532L260 533L260 534L260 535L260 536L260 537L260 538L260 539L260 540L260 541L260 542L260 543L260 544L260 545L260 546L260 547L260 548L260 549L260 550L260 551L260 552L260 553L260 554L260 555L260 556L260 557L260 558L260 559L260 560L260 561L260 562L260 563L260 564L260 565L260 566L260 567L260 568L260 569L260 570L260 571L260 572L260 573L260 574L260 575L260 576L260 577L260 578L260 579L260 580L260 581L260 582L260 583L260 584L260 585L260 586L260 587L260 588L260 589L260 590L260 591L260 592L260 593L260 594L260 595L260 596L260 597L260 598L260 599L260 600L260 601L260 602L260 603L260 604L260 605L260 606L260 607L260 608L260 609L260 610L260 611L260 612L260 613L260 614L260 615L260 616L260 617L260 618L260 619L260 620L260 621L260 622L260 623L260 624L260 625L260 626L260 627L260 628L260 629L260 630L260 631L260 632L260 633L260 634L260 635L260 636L260 637L260 638L260 639L260 640L260 641L260 642L260 643L260 644L260 645L260 646L260 647L260 648L260 649L260 650L260 651L260 652L260 653L260 654L260 655L260 656L260 657L260 658L260 659L260 660L260 661L260 662L260 663L260 664L260 665L260 666L260 667L260 668L260 669L260 670L260 671L260 672L260 673L260 674L260 675L260 676L260 677L260 678L260 679L260 680L260 681L260 682L260 683L260 684L260 685L260 686L260 687L260 688L260 689L260 690L260 691L260 692L260 693L260 694L260 695L260 696L260 697L260 698L260 699L260 700L260 701L260 702L260 703L260 704L260 705L260 706L260 707L260 708L260 709L260 710L260 711L260 712L260 713L260 714L260 715L260 716L260 717L260 718L260 719L260 720L260 721L260 722L260 723L260 724L260 725L260 726L260 727L260 728L260 729L260 730L260 731L260 732L260 733L260 734L260 735L260 736L260 737L260 738L260 739L260 740L260 741L260 742L260 743L260 744L260 745L260 746L260 747L260 748L260 749L260 750L260 751L260 752L260 753L260 754L260 755L260 756L260 757L260 758L260 759L260 760L260 761L260 762L260 763L260 764L260 765L260 766L260 767L260 768L260 769L260 770L260 771L260 772L260 773L260 774L260 775L260 776L260 777L260 778L260 779L260 780L260 781L260 782L260 783L260 784L260 785L260 786L260 787L260 788L260 789L260 790L260 791L260 792L260 793L260 794L260 795L260 796L260 797L260 798L260 799L260 800L260 801L260 802L260 803L260 804L260 805L260 806L260 807L260 808L260 809L260 810L260 811L260 812L260 813L260 814L260 815L260 816L260 817L260 818L260 819L260 820L260 821L260 822L260 823L259 824L258 825L257 826L256 827L255 828L254 829L253 830"/>
<path d="M40 648L41 649L42 650L43 651L44 652L45 653L46 654L47 655L48 656L49 657L50 658L51 659L52 660L53 661L53 662L54 663L55 664L56 665L57 666L58 667L59 668L60 669L61 670L62 671L63 672L64 673L65 674L66 675L67 676L68 677L69 678L70 679L71 680L72 681L73 682L74 683L75 684L76 685L77 686L78 687L79 688L80 689L81 690L82 691L83 692L84 693L85 694L86 695L87 696L88 697L89 698L90 699L91 700L92 701L93 702L94 703L95 704L96 705L97 706L98 707L99 708L100 709L101 710L102 711L103 712L104 713L105 714L106 715L107 716L108 717L109 718L110 719L111 720L112 721L113 722L114 723L115 724L116 725L116 726L117 727L118 728L119 729L120 730L121 731L122 732L123 733L124 734L125 735L126 736L127 737L128 738L129 739L130 740L131 741L132 742L133 743L134 744L135 745L136 746L137 747L138 748L139 749L140 750L141 751L142 752L143 753L144 754L145 755L146 756L147 757L148 758L149 759L150 760L151 761L152 762L153 763L154 764L155 765L156 766L157 767L158 768L159 769L160 770L161 771L162 772L163 773L164 774L165 775L166 776L167 777L168 778L169 779L170 780L171 781L172 782L173 783L174 784L175 785L176 786L177 787L178 788L179 789L180 790L180 791L181 792L182 793L183 794L184 795L185 796L186 797L187 798L188 799L189 800L190 801L191 802L192 803L193 804L194 805L194 806L195 807L196 808L197 809L198 810L199 811L200 812L201 812L202 813L203 813L204 813L205 814L206 814L207 814L208 815L209 815L210 815L211 816L212 816L213 816L214 817L215 817L216 817L217 818L218 818L219 819L220 819L221 819L222 820L223 820L224 820L225 821L226 821L227 821L228 822L229 822L230 822L231 823L232 823L233 823L234 824L235 824L236 824L237 825L238 825L239 825L240 826L241 826L242 827L243 827L244 827L245 828L246 828L247 828L248 829L249 829L250 829L251 830L252 830L253 830"/>
<path d="M253 830L253 831L253 832L253 833L254 834L254 835L255 836L255 837L256 838L256 839L256 840L257 841L257 842L258 843L259 844L260 844L261 845L262 845L263 845L264 846L265 846L266 846L267 846L268 845L269 845L270 845L271 844L272 844L273 844L274 844L275 843L276 843L277 843L278 842L279 842L280 842L281 841L282 841L283 841L284 840L285 840L286 840L287 840L288 839L289 839L290 839L291 838L292 838L293 838L294 837L295 837L296 837L297 837L298 836L299 836L300 836L301 835L302 835L303 835L304 834L305 834L306 834L307 834L308 833L309 833L310 833L311 832L312 832L313 832L314 831L315 831L316 831L317 831L318 830L319 830L320 830L321 829L322 829L323 828L324 827L325 826L326 825L327 825L328 824L329 823L330 822L331 821L332 821L333 820L334 819L335 818L336 817L337 816L338 815L339 815L340 814L341 813L342 812L343 811L344 810L345 809L346 808L347 807L348 806L349 805L350 804L351 803L352 802L353 801L354 800L355 799L356 798L357 797L358 796L359 795L360 794L361 793L362 792L363 791L364 790L365 789L366 788L367 787L368 786L369 785L370 784L371 783L372 782L373 781L374 780L375 779L376 778L377 777L378 776L379 775L380 774L381 773L382 772L383 771L384 770L385 769L386 768L387 767L388 766L389 765L390 764L391 763L392 762L393 761L394 760L395 759L396 758L397 757L398 756L399 755L400 754L401 753L402 752L403 751L404 750L405 749L406 748L407 747L408 746L409 745L410 744L411 743L412 742L413 741L414 740L415 739L416 738L417 737L418 736L419 735L420 734L421 733L422 732L423 731L424 730L425 729L426 728L427 727L428 726L429 725L430 724L431 723L432 722L433 721L434 720L435 719L436 718L437 717L438 716L439 715L440 714L441 713L442 712L443 711L444 710L445 709L446 708L447 707L448 706L449 705L450 704L451 703L452 702L453 701L454 700L455 699L456 698L457 697L458 696L459 695L460 694L461 693L462 692L463 691L464 690L465 689L466 688L467 687L468 686L469 685L470 684L471 683L472 682L473 681L474 680L475 679L476 678L477 678L478 677L479 676L480 675L481 674L482 673L483 672L484 671L485 670L486 669L487 668L488 667L489 666L490 665L491 664L492 663L493 662L494 661L495 660L496 659L497 658L498 657L499 656L500 655"/>
</g>
</svg>