<?xml version="1.0" encoding="UTF-8"?>
<svg xmlns="http://www.w3.org/2000/svg" width="1024" height="1024" viewBox="0 0 1024 1024">
<g fill="none" stroke="#000000" stroke-width="70" stroke-linecap="round" stroke-linejoin="round">
<path d="M973.0 144.0L933.8 143.9L855.2 143.8L737.5 143.6L580.5 143.4L459.1 143.3L373.4 143.4L323.2 143.8L308.8 144.2L296.8 144.9L287.4 145.6L280.6 146.5L276.4 147.5L272.9 148.7L270.1 150.1L268.1 151.6L266.9 153.4L265.7 156.1L264.6 159.7L263.5 164.2L262.5 169.8L261.7 210.2L261.1 285.8L260.6 396.2L260.4 541.8L259.8 655.2L258.8 736.8L257.4 786.2L255.6 803.8L254.3 816.9L253.4 825.6L270.3 882.4"/>
<path d="M39.9 648.1L270.3 882.4"/>
<path d="M270.3 882.4L499.9 654.9"/>
</g>
</svg>