<?xml version="1.0" encoding="UTF-8"?>
<svg xmlns="http://www.w3.org/2000/svg" width="1024" height="1024" viewBox="0 0 1024 1024">
<g fill="none" stroke="#000000" stroke-width="71.9" stroke-linecap="round" stroke-linejoin="round">
<path d="M802 465L802 464L801 463L801 462L800 461L800 460L799 459L799 458L799 457L798 456L798 455L797 454L797 453L796 452L796 451L796 450L795 449L795 448L794 447L794 446L793 445L793 444L793 443L792 442L792 441L791 440L791 439L790 438L790 437L790 436L789 435L789 434L788 433L787 432L786 432L785 431L784 430L783 430L782 429L781 428L780 428L779 427L778 426L777 426L776 425L775 424L774 424L773 423L772 422L771 422L770 421L769 420L768 420L767 419L766 418L765 418L764 417L763 416L762 416L761 415L760 414L759 414L758 413L757 412L756 412L755 411L754 410L753 410L752 409L751 408L750 408L749 407L748 406L747 406L746 405L745 404L744 404L743 403L742 402L741 402L740 401L739 400L738 400L737 399L736 398L735 398L734 397L733 396L732 396L731 395L730 395L729 394L728 393L727 393L726 392L725 391L724 391L723 390L722 389L721 389L720 388L719 388L718 387L717 386L716 386L715 385L714 384L713 384L712 383L711 382L710 382L709 381L708 380L707 380L706 379L705 379L704 378L703 377L702 377L701 376L700 375L699 375L698 374L697 373L696 373L695 372L694 372L693 371L692 370L691 370L690 369L689 368L688 368L687 367L686 366L685 366L684 365L683 364L682 364L681 363L680 363L679 362L678 361L677 361L676 360L675 359L674 359L673 358L672 357L671 357L670 356L669 355L668 355L667 354L666 353L665 353L664 352L663 352L662 351L661 350L660 350L659 349L658 348L657 348L656 347L655 346L654 346L653 345L652 344L651 344L650 343L649 342L648 342L647 341L646 340L645 340L644 339L643 338L642 338L641 337L640 336L639 336L638 335L637 334L636 334L635 333L634 333L633 332L632 331L631 331L630 330L629 329L628 329L627 328L626 327L625 327L624 326L623 325L622 325L621 324L620 323L619 323L618 322L617 321L616 321L615 320L614 319L613 319L612 318L611 317L610 317L609 316L608 316L607 315L606 314L605 314L604 313L603 312L602 312L601 311L600 310L599 310L598 309L597 308L596 308L595 307L594 306L593 306L592 305L591 304L590 304L589 303L588 302L587 302L586 301L585 300L584 300L583 299L582 298L581 298L580 297L579 296L578 296L577 295L576 295L575 294L574 293L573 293L572 292L571 291L570 291L569 290L568 289L567 289L566 288L565 287L564 287L563 286L562 285L561 285L560 284L559 283L558 283L557 282L556 281L555 281L554 280L553 279L552 279L551 278L550 277L549 277L548 276L547 275L546 275L545 274L544 274L543 273L542 272L541 272L540 271L539 270L538 270L537 269L536 268L535 268L534 267L533 266L532 266L531 265L530 264L529 264L528 263L527 262L526 262L525 261L524 260L523 260L522 259L521 258L520 258L519 257L518 256L517 256L516 255L515 255L514 254L513 253L512 253L511 252L510 251L509 251L508 250L507 249L506 249L505 248L504 247L503 247L502 246L501 245L500 245L499 244L498 243L497 243L496 242L495 241L494 241L493 240L492 239L491 239L490 238L489 238L488 237L487 236L486 236L485 235L484 234L483 234L482 233L481 232L480 232L479 231L478 230L477 230L476 229L475 228L474 228L473 227L472 226L471 226L470 225L469 224L468 224L467 223L466 222L465 222L464 221L463 220L462 220L461 219L460 218L459 218L458 217L457 216L456 216L455 215L454 215L453 214L452 213L451 213L450 212L449 211L448 211L447 210L446 209L445 209L444 208L443 207L442 207L441 206L440 205L439 205L438 204L437 203L436 203L435 202L434 201L433 201L432 200L431 199L430 199L429 198L428 198L427 197L426 196L425 196L424 195L423 194L422 194L421 193L420 192L419 192L418 191L417 190L416 190L415 189L414 188L413 188L412 187L411 186L410 186L409 185L408 184L407 184L406 183L405 182L404 182L403 181L402 180L401 180L400 179L399 178L398 178L397 177L396 177L395 176L394 175L393 175L392 174L391 173L390 173L389 172L388 171L387 171L386 170L385 169L384 169L383 168L382 167L381 167L380 166L379 165L378 165L377 164L376 163L375 163L374 162L373 161L372 161L371 160L370 159L369 159L368 158L367 158L366 157L365 156L364 156L363 155L362 154L361 154L360 153L359 152L358 152L357 151L356 150L355 150L354 149L353 148L352 148L351 147L350 146L349 146L348 145L347 144L346 144L345 143L344 142L343 142L342 141L341 140L340 140L339 139L338 138L337 138L336 137L335 137L334 136L333 135L332 135L331 134L330 133L329 133L328 132L327 131L326 131L325 130L324 129L323 129L322 128L321 127L320 127L319 126L318 125L317 125L316 124L315 123L314 123L313 122L312 121L311 121L310 120L309 120L308 119L307 118L306 118L305 117L304 116L303 116L302 115L301 114L300 114L299 113L298 112L297 112L296 111L295 110L294 110L293 109L292 108L291 108L290 107L289 106L288 106L287 105L286 105L285 104L284 103L283 103L282 102L281 101L280 101L279 100L278 100L277 99L276 98L275 98L274 97L273 96L272 96L271 95L270 94L269 94L268 93L267 93L266 92L265 91L264 91L263 90L262 90L261 89L260 89L259 88L258 87L257 86L256 86L255 85L254 85L253 84L252 83L251 83L250 82L249 82L248 81L247 80L246 80L245 79L244 79L243 79L242 79L241 78L240 78L239 78L238 78L237 78L236 77L235 77L234 77L233 77L232 76L231 76L230 76L229 76L228 75L227 75L226 75L225 75L224 75L223 74L222 74L221 74L220 74L219 73L218 73L217 73L216 73L215 72L214 72L213 72L212 72L211 71L210 71L209 71L208 71L207 70L206 70L205 70L204 70L203 69L202 69L201 69L200 69L199 69L198 68L197 68L196 68L195 68L194 68L193 67L192 67L191 67L190 67L189 68L188 68L187 69L186 69L185 70L184 71L184 72L184 73L184 74L184 75L184 76L184 77L184 78L184 79L184 80L184 81L184 82L184 83L184 84L184 85L184 86L184 87L184 88L184 89L184 90L184 91L184 92L184 93L184 94L184 95L184 96L184 97L184 98L184 99L184 100L184 101L184 102L184 103L184 104L184 105L184 106L184 107L184 108L184 109L184 110L184 111L184 112L184 113L184 114L184 115L184 116L184 117L184 118L184 119L184 120L184 121L184 122L184 123L184 124L184 125L184 126L184 127L184 128L184 129L184 130L184 131L184 132L184 133L184 134L184 135L184 136L184 137L184 138L184 139L184 140L184 141L184 142L184 143L184 144L184 145L184 146L184 147L184 148L184 149L184 150L184 151L184 152L184 153L184 154L184 155L184 156L184 157L184 158L184 159L184 160L184 161L184 162L184 163L184 164L184 165L184 166L184 167L184 168L184 169L184 170L184 171L184 172L184 173L184 174L184 175L184 176L184 177L184 178L184 179L184 180L184 181L184 182L184 183L184 184L184 185L184 186L184 187L184 188L184 189L184 190L184 191L184 192L184 193L184 194L184 195L184 196L184 197L184 198L184 199L184 200L184 201L184 202L184 203L184 204L184 205L184 206L184 207L184 208L184 209L184 210L184 211L184 212L184 213L184 214L184 215L184 216L184 217L184 218L184 219L184 220L184 221L184 222L184 223L184 224L184 225L184 226L184 227L184 228L184 229L184 230L184 231L184 232L184 233L184 234L184 235L184 236L184 237L184 238L184 239L184 240L184 241L184 242L184 243L184 244L184 245L184 246L184 247L184 248L184 249L184 250L184 251L184 252L184 253L184 254L184 255L184 256L184 257L184 258L184 259L184 260L184 261L184 262L184 263L184 264L184 265L184 266L184 267L184 268L184 269L184 270L184 271L184 272L184 273L184 274L184 275L184 276L184 277L184 278L184 279L184 280L184 281L184 282L184 283L184 284L184 285L184 286L184 287L184 288L184 289L184 290L184 291L184 292L184 293L184 294L184 295L184 296L184 297L184 298L184 299L184 300L184 301L184 302L184 303L184 304L184 305L184 306L184 307L184 308L184 309L184 310L184 311L184 312L184 313L184 314L184 315L184 316L184 317L184 318L184 319L184 320L184 321L184 322L184 323L184 324L184 325L184 326L184 327L184 328L184 329L184 330L184 331L184 332L184 333L184 334L184 335L184 336L184 337L184 338L184 339L184 340L184 341L184 342L184 343L184 344L184 345L184 346L184 347L184 348L184 349L184 350L184 351L184 352L184 353L184 354L184 355L184 356L184 357L184 358L184 359L184 360L184 361L184 362L184 363L184 364L184 365L184 366L184 367L184 368L184 369L184 370L184 371L184 372L184 373L184 374L184 375L184 376L184 377L184 378L184 379L184 380L184 381L184 382L184 383L184 384L184 385L184 386L184 387L184 388L184 389L184 390L184 391L184 392L184 393L184 394L184 395L184 396L184 397L184 398L184 399L184 400L184 401L184 402L184 403L184 404L184 405L184 406L184 407L184 408L184 409L184 410L184 411L184 412L184 413L184 414L184 415L184 416L184 417L184 418L184 419L184 420L184 421L184 422L184 423L184 424L184 425L184 426L184 427L184 428L184 429L184 430L184 431L184 432L184 433L184 434L184 435L184 436L184 437L184 438L184 439L184 440L184 441L184 442L184 443L184 444L184 445L184 446L184 447L184 448L184 449L184 450L184 451L184 452L184 453L184 454L184 455L184 456L184 457L184 458L184 459L184 460L184 461L184 462L184 463L184 464L184 465L184 466L184 467L184 468L184 469L184 470L184 471L184 472L184 473L184 474L184 475L184 476L184 477L184 478L184 479L184 480L184 481L184 482L184 483L184 484L184 485L184 486L184 487L184 488L184 489L184 490L184 491L184 492L184 493L184 494L184 495L184 496L184 497L184 498L184 499L184 500L184 501L184 502L184 503L184 504L184 505L184 506L184 507L184 508L184 509L184 510L184 511L184 512L184 513L184 514L184 515L184 516L184 517L184 518L184 519L184 520L184 521L184 522L184 523L184 524L184 525L184 526L184 527L184 528L184 529L184 530L184 531L184 532L184 533L184 534L184 535L184 536L184 537L184 538L184 539L184 540L184 541L184 542L184 543L184 544L184 545L184 546L184 547L184 548L184 549L184 550L184 551L184 552L184 553L184 554L184 555L184 556L184 557L184 558L184 559L184 560L184 561L184 562L184 563L184 564L184 565L184 566L184 567L184 568L184 569L184 570L184 571L184 572L184 573L184 574L184 575L184 576L184 577L184 578L184 579L184 580L184 581L184 582L184 583L184 584L184 585L184 586L184 587L184 588L184 589L184 590L184 591L184 592L184 593L184 594L184 595L184 596L184 597L184 598L184 599L184 600L184 601L184 602L184 603L184 604L184 605L184 606L184 607L184 608L184 609L184 610L184 611L184 612L184 613L184 614L184 615L184 616L184 617L184 618L184 619L184 620L184 621L184 622L184 623L184 624L184 625L184 626L184 627L184 628L184 629L184 630L184 631L184 632L184 633L184 634L184 635L184 636L184 637L184 638L184 639L184 640L184 641L184 642L184 643L184 644L184 645L184 646L184 647L184 648L184 649L184 650L184 651L184 652L184 653L184 654L184 655L184 656L184 657L184 658L184 659L184 660L184 661L184 662L184 663L184 664L184 665L184 666L184 667L184 668L184 669L184 670L184 671L184 672L184 673L184 674L184 675L184 676L184 677L184 678L184 679L184 680L184 681L184 682L184 683L184 684L184 685L184 686L184 687L184 688L184 689L184 690L184 691L184 692L184 693L184 694L184 695L184 696L184 697L184 698L184 699L184 700L184 701L184 702L184 703L184 704L184 705L184 706L184 707L184 708L184 709L184 710L184 711L184 712L184 713L184 714L184 715L184 716L184 717L184 718L184 719L184 720L184 721L184 722L184 723L184 724L184 725L184 726L184 727L184 728L184 729L184 730L184 731L184 732L184 733L184 734L184 735L184 736L184 737L184 738L184 739L184 740L184 741L184 742L184 743L184 744L184 745L184 746L184 747L184 748L184 749L184 750L184 751L184 752L184 753L184 754L184 755L184 756L184 757L184 758L184 759L184 760L184 761L184 762L184 763L184 764L184 765L184 766L184 767L184 768L184 769L184 770L184 771L184 772L184 773L184 774L184 775L184 776L184 777L184 778L184 779L184 780L184 781L184 782L184 783L184 784L184 785L184 786L184 787L184 788L184 789L184 790L184 791L184 792L184 793L184 794L184 795L184 796L184 797L184 798L184 799L184 800L184 801L184 802L184 803L184 804L184 805L184 806L184 807L184 808L184 809L184 810L184 811L184 812L184 813L184 814L184 815L184 816L184 817L185 818L186 819L187 820L188 821L189 822L190 823L191 823"/>
<path d="M191 823L192 823L193 823L194 822L195 822L196 822L197 821L198 821L199 821L200 821L201 820L202 820L203 820L204 819L205 819L206 819L207 818L208 818L209 818L210 818L211 817L212 817L213 817L214 816L215 816L216 816L217 815L218 815L219 815L220 815L221 814L222 814L223 814L224 813L225 813L226 813L227 813L228 812L229 812L230 812L231 811L232 811L233 811L234 810L235 810L236 810L237 810L238 809L239 809L240 809L241 808L242 808L243 808L244 807L245 807L246 807L247 806L248 805L249 804L250 803L251 802L252 802L253 801L254 800L255 799L256 798L257 797L258 796L259 796L260 795L261 794L262 793L263 792L264 791L265 791L266 790L267 789L268 788L269 787L270 786L271 785L272 785L273 784L274 783L275 782L276 781L277 780L278 780L279 779L280 778L281 777L282 776L283 775L284 774L285 773L286 773L287 772L288 771L289 770L290 769L291 768L292 768L293 767L294 766L295 765L296 764L297 763L298 762L299 762L300 761L301 760L302 759L303 758L304 757L305 756L306 756L307 755L308 754L309 753L310 752L311 751L312 751L313 750L314 749L315 748L316 747L317 746L318 745L319 744L320 744L321 743L322 742L323 741L324 740L325 739L326 738L327 738L328 737L329 736L330 735L331 734L332 733L333 732L334 732L335 731L336 730L337 729L338 728L339 727L340 727L341 726L342 725L343 724L344 723L345 722L346 721L347 721L348 720L349 719L350 718L351 717L352 716L353 716L354 715L355 714L356 713L357 712L358 711L359 710L360 709L361 709L362 708L363 707L364 706L365 705L366 704L367 703L368 703L369 702L370 701L371 700L372 699L373 698L374 698L375 698L376 697L377 697L378 697L379 697L380 696L381 696L382 696L383 695L384 695L385 695L386 694L387 694L388 694L389 694L390 693L391 693L392 693L393 692L394 692L395 692L396 691L397 691L398 691L399 691L400 690L401 690L402 690L403 689L404 689L405 688L405 687L405 686L406 685"/>
<path d="M405 689L406 690L407 690L408 690L409 691L410 691L411 692L412 692L413 693L414 693L415 694L416 694L417 695L418 695L419 695L420 696L421 696L422 697L423 697L424 698L425 699L426 700L427 701L427 702L428 703L428 704L429 705L430 706L430 707L431 708L432 709L432 710L433 711L433 712L434 713L435 714L435 715L436 716L436 717L437 718L438 719L438 720L439 721L440 722L440 723L441 724L441 725L442 726L443 727L443 728L444 729L445 730L445 731L446 732L446 733L447 734L448 735L448 736L449 737L449 738L450 739L451 740L451 741L452 742L452 743L453 744L454 745L454 746L455 747L456 748L456 749L457 750L457 751L458 752L459 753L459 754L460 755L460 756L461 757L462 758L462 759L463 760L463 761L464 762L465 763L465 764L466 765L467 766L467 767L468 768L468 769L469 770L470 771L470 772L471 773L471 774L472 775L473 776L473 777L474 778L475 779L475 780L476 781L476 782L477 783L478 784L478 785L479 786L479 787L480 788L481 789L481 790L482 791L482 792L483 793L484 794L484 795L485 796L486 797L486 798L487 799L487 800L488 801L489 802L489 803L490 804L490 805L491 806L492 807L492 808L493 809L493 810L494 811L495 812L495 813L496 814L497 815L497 816L498 817L498 818L499 819L500 820L500 821L501 822L501 823L502 824L503 825L503 826L504 827L505 828L505 829L506 830L506 831L507 832L508 833L508 834L509 835L509 836L510 837L511 838L511 839L512 840L512 841L513 842L514 843L514 844L515 845L516 846L516 847L517 848L517 849L518 850L519 851L519 852L520 853L520 854L521 855L522 856L522 857L523 858L523 859L524 860L525 861L525 862L526 863L526 864L527 865L528 866L528 867L529 868L529 869L530 870L531 871L531 872L532 873L532 874L533 875L534 876L534 877L535 878L535 879L536 880L536 881L537 882L538 883L538 884L539 885L539 886L540 887L541 888L541 889L542 890L542 891L543 892L543 893L544 894L545 895L545 896L546 897L547 898L547 899L548 900L548 901L549 902L550 903L550 904L551 905L551 906L552 907L553 908L553 909L554 910L554 911L555 912L556 913L556 914L557 915L557 916L558 917L559 918L559 919L560 920L560 921L561 922L562 923L562 924L563 925L563 926L564 927L564 928L565 929L566 930L566 931L567 932L568 933L568 934L569 935L569 936L570 937L571 938L571 939L572 940L572 941L573 942L574 943L574 944L575 945L575 946L576 947L577 948L577 949L578 950L578 951L579 952L579 953L580 954L581 955L581 956L582 957L583 957L584 958L585 958L586 959L587 959L588 960L589 960L590 961L591 961L592 962L593 962L594 962L595 963L596 963L597 964L598 964L599 965L600 965L601 964L602 964L603 964L604 964L605 963L606 963L607 963L608 963L609 963L610 962L611 962L612 962L613 962L614 961L615 961L616 961L617 961L618 960L619 960L620 960L621 960L622 960L623 959L624 959L625 959L626 959L627 958L628 958L629 958L630 958L631 958L632 957L633 957L634 957L635 956L636 956L637 955L638 955L639 954L640 954L641 953L642 952L643 952L644 951L645 951L646 950L647 949L648 948L649 948L650 947L651 947L652 946L653 946L654 945L655 945L656 944L657 943L658 943L659 942L660 942L661 941L662 940L663 940L664 939L665 939L666 938L667 938L668 937L669 936L670 936L671 935L672 935L673 934L674 933L675 932L676 932L677 932L678 931L679 930L680 930L681 929L682 929L683 928L684 927L685 927L686 926L687 926L688 925L689 924L690 924L691 923L692 923L693 922L694 921L695 921L696 920L697 920L698 919L699 918L700 918L701 917L702 916L703 916L704 915L705 915L706 914L707 913L708 913L709 912L710 912L711 911L712 910L713 910L714 909L715 909L716 908L717 907L718 906L719 906L720 905L721 905L722 904L723 903L724 903L725 902L726 902L727 901L728 900L729 900L730 899L731 898L732 898L733 897L734 897L735 896L736 895L737 895L738 894L739 894L740 893L741 892L742 891L743 890L743 889L743 888L744 887L744 886L745 885L745 884L746 883L746 882L747 881L747 880L748 879L748 878L748 877L749 876L749 875L750 874L750 873L750 872L750 871L749 870L749 869L749 868L749 867L748 866L748 865L748 864L747 863L747 862L747 861L746 860L746 859L746 858L746 857L746 856L746 855L745 854L745 853L745 852L745 851L745 850L745 849L744 848L744 847L744 846L744 845L744 844L743 843L743 842L743 841L743 840L742 839L741 838L741 837L740 836L740 835L739 834L739 833L738 832L738 831L737 830L737 829L736 828L736 827L735 826L735 825L734 824L734 823L733 822L733 821L732 820L732 819L731 818L730 817L730 816L729 815L728 814L728 813L727 812L727 811L726 810L725 809L725 808L724 807L724 806L723 805L722 804L722 803L721 802L721 801L720 800L719 799L719 798L718 797L718 796L717 795L716 794L716 793L715 792L715 791L714 790L713 789L713 788L712 787L712 786L711 785L710 784L710 783L709 782L709 781L708 780L707 779L707 778L706 777L706 776L705 775L704 774L704 773L703 772L703 771L702 770L701 769L701 768L700 767L700 766L699 765L698 764L698 763L697 762L697 761L696 760L695 759L695 758L694 757L694 756L693 755L692 754L692 753L691 752L691 751L690 750L689 749L689 748L688 747L687 746L687 745L686 744L686 743L685 742L684 741L684 740L683 739L683 738L682 737L681 736L681 735L680 734L680 733L679 732L678 731L678 730L677 729L677 728L676 727L675 726L675 725L674 724L674 723L673 722L672 721L672 720L671 719L671 718L670 717L669 716L669 715L668 714L668 713L667 712L666 711L666 710L665 709L665 708L664 707L663 706L663 705L662 704L662 703L661 702L660 701L660 700L659 699L659 698L658 697L657 696L657 695L656 694L656 693L655 692L654 691L654 690L653 689L653 688L652 687L651 686L651 685L650 684L650 683L649 682L648 681L648 680L647 679L646 678L646 677L645 676L645 675L644 674L643 673L643 672L642 671L642 670L641 669L640 668L640 667L639 666L639 665L638 664L637 663L637 662L636 661L636 660L635 659L634 658L634 657L633 656L633 655L632 654L631 653L631 652L630 651L630 650L629 649L628 648L628 647L627 646L626 645L626 644L625 643L625 642L624 641L623 640L623 639L622 638L622 637L621 636L620 635L620 634L619 633L619 632L618 631L617 630L617 629L616 628L615 627L615 626L614 625L613 624L613 623L612 622L612 621L611 620L610 619L610 618L609 617L608 616L608 615L607 614L607 613L606 612L606 611L606 610L606 609L605 608L605 607L605 606L605 605L604 604L604 603L604 602L604 601L604 600L603 599L603 598L603 597L603 596L602 595L602 594L602 593L602 592L601 591L601 590L601 589L601 588L600 587L600 586L600 585L600 584L599 583L599 582L599 581L599 580L598 579L598 578L598 577L598 576L598 575L599 574L599 573L599 572L600 571L600 570L601 569L601 568L602 567L602 566L603 565L603 564L604 563L604 562L605 561L606 560L607 559L608 559L609 559L610 558L611 558L612 557L613 557L614 557L615 556L616 556L617 555L618 555L619 555L620 554L621 554L622 554L623 553L624 553L625 552L626 552L627 552L628 551L629 551L630 550L631 550L632 549L633 549L634 549L635 548L636 548L637 548L638 547L639 547L640 546L641 546L642 545L643 545L644 545L645 544L646 544L647 544L648 543L649 543L650 542L651 542L652 541L653 541L654 541L655 540L656 540L657 540L658 539L659 539L660 538L661 538L662 538L663 537L664 537L665 536L666 536L667 536L668 535L669 535L670 534L671 534L672 533L673 533L674 533L675 533L676 532L677 532L678 531L679 531L680 531L681 530L682 530L683 529L684 529L685 529L686 528L687 528L688 527L689 527L690 527L691 526L692 525L693 525L694 525L695 525L696 524L697 524L698 523L699 523L700 523L701 522L702 522L703 522L704 521L705 521L706 520L707 520L708 520L709 519L710 519L711 518L712 518L713 517L714 517L715 517L716 516L717 516L718 516L719 515L720 515L721 514L722 514L723 514L724 513L725 513L726 512L727 512L728 512L729 511L730 511L731 510L732 510L733 509L734 509L735 509L736 508L737 508L738 507L739 507L740 507L741 506L742 506L743 506L744 505L745 505L746 505L747 504L748 504L749 503L750 503L751 502L752 502L753 501L754 501L755 501L756 500L757 500L758 500L759 499L760 499L761 498L762 498L763 498L764 497L765 497L766 496L767 496L768 496L769 495L770 495L771 494L772 494L773 493L774 493L775 493L776 492L777 492L778 492L779 491L780 491L781 490L782 490L783 490L784 489L785 489L786 488L787 488L788 488L789 487L790 487L791 486L791 485L792 484L792 483L793 482L794 481L794 480L795 479L795 478L796 477L796 476L797 475L797 474L798 473L799 472L799 471L800 470L800 469L801 468L801 467"/>
</g>
</svg>