<?xml version="1.0" encoding="UTF-8"?>
<svg xmlns="http://www.w3.org/2000/svg" width="1024" height="1024" viewBox="0 0 1024 1024">
<g fill="none" stroke="#000000" stroke-width="71.9" stroke-linecap="round" stroke-linejoin="round">
<path d="M802.0 465.0L799.0 461.6L793.0 454.7L784.0 444.4L772.0 430.6L733.9 401.3L669.8 356.4L579.6 296.0L463.4 220.0L373.4 161.3L309.8 119.9L272.5 95.9L261.5 89.1L250.0 83.3L238.0 78.4L225.5 74.5L212.5 71.5L202.3 69.4L194.9 68.1L190.4 67.8L188.6 68.2L187.3 68.6L186.4 68.9L186.0 69.0L185.9 111.6L185.6 196.9L185.2 324.8L184.8 495.2L184.8 627.6L185.4 721.9L186.6 778.0L188.4 796.0L189.7 809.5L190.6 818.5L191.0 823.0"/>
<path d="M191.0 823.0L398.7 676.4"/>
<path d="M405.0 689.0L408.2 692.7L414.6 700.1L424.1 711.1L436.9 725.9L454.2 749.9L476.2 783.3L502.9 826.0L534.1 878.0L558.8 917.6L576.8 944.7L588.1 959.4L592.9 961.6L598.9 962.6L606.3 962.4L615.0 960.9L625.0 958.1L638.7 952.3L656.1 943.4L677.1 931.5L701.9 916.5L721.1 903.8L734.9 893.4L743.1 885.4L745.9 879.6L747.5 873.4L748.0 866.6L747.4 859.4L745.6 851.6L743.6 844.5L741.4 838.0L738.9 832.1L736.1 826.9L726.3 810.2L709.4 782.2L685.5 742.9L654.5 692.1L630.6 651.5L613.9 621.0L604.2 600.6L601.8 590.4L600.4 581.7L600.3 574.6L601.4 569.0L603.6 565.0L616.8 557.5L640.8 546.5L675.6 532.0L721.4 514.0L756.4 499.2L780.6 487.8L794.1 479.5L796.9 474.5L798.9 470.8L800.3 468.2L801.0 467.0"/>
</g>
</svg>