<?xml version="1.0" encoding="UTF-8"?>
<svg xmlns="http://www.w3.org/2000/svg" width="1024" height="1024" viewBox="0 0 1024 1024">
<g fill="none" stroke="#000000" stroke-width="64" stroke-linecap="round" stroke-linejoin="round">
<path d="M284 51L284 52L284 53L284 54L284 55L284 56L284 57L284 58L284 59L284 60L284 61L284 62L284 63L284 64L284 65L284 66L284 67L284 68L284 69L284 70L284 71L284 72L284 73L284 74L284 75L284 76L284 77L284 78L284 79L284 80L284 81L284 82L284 83L284 84L284 85L284 86L284 87L284 88L284 89L284 90L284 91L284 92L284 93L284 94L284 95L284 96L284 97L284 98L284 99L284 100L284 101L284 102L284 103L284 104L284 105L284 106L284 107L284 108L284 109L284 110L284 111L284 112L284 113L284 114L284 115L284 116L284 117L284 118L284 119L284 120L284 121L284 122L284 123L284 124L284 125L284 126L284 127L284 128L284 129L284 130L284 131L284 132L284 133L284 134L284 135L284 136L284 137L284 138L284 139L284 140L284 141L284 142L284 143L284 144L284 145L284 146L284 147L284 148L284 149L284 150L284 151L284 152L284 153L284 154L284 155L284 156L284 157L284 158L284 159L284 160L284 161L284 162L284 163L284 164L284 165L284 166L284 167L284 168L284 169L284 170L284 171L284 172L284 173L284 174L284 175L284 176L284 177L284 178L284 179L284 180L284 181L284 182L284 183L284 184L284 185L284 186L284 187L284 188L284 189L284 190L284 191L284 192L284 193L284 194L284 195L284 196L284 197L284 198L284 199L284 200L284 201L284 202L284 203L284 204L284 205L284 206L284 207L284 208L284 209L284 210L284 211L284 212L284 213L284 214L284 215L284 216L284 217L284 218L284 219L284 220L284 221L284 222L284 223L284 224L284 225L284 226L284 227L284 228L284 229L284 230L284 231L284 232L284 233L284 234L284 235L284 236L284 237L284 238L284 239L284 240L284 241L284 242L284 243L284 244L284 245L284 246L284 247L284 248L284 249L284 250L284 251L284 252L284 253L284 254L284 255L284 256L284 257L284 258L284 259L284 260L284 261L284 262L284 263L284 264L284 265L284 266L284 267L284 268L284 269L284 270L284 271L284 272L284 273L284 274L284 275L284 276L284 277L284 278L284 279L284 280L284 281L284 282L284 283L284 284L284 285L284 286L284 287L284 288L284 289L284 290L284 291L284 292L284 293L284 294L284 295L284 296L284 297L284 298L284 299L284 300L284 301L284 302L284 303L284 304L284 305L284 306L284 307L284 308L284 309L284 310L284 311L284 312L284 313L284 314L284 315L284 316L284 317L284 318L284 319L284 320L284 321L284 322L284 323L284 324L284 325L284 326L284 327L284 328L284 329L284 330L284 331L284 332L284 333L284 334L284 335L284 336L284 337L284 338L284 339L284 340L284 341L284 342L284 343L284 344L284 345L284 346L284 347L284 348L284 349L284 350L284 351L284 352L284 353L284 354L284 355L284 356L284 357L284 358L284 359L284 360L284 361L284 362L284 363L284 364L284 365L284 366L284 367L284 368L284 369L284 370L284 371L284 372L284 373L284 374L284 375L284 376L284 377L284 378L284 379L284 380L284 381L284 382L284 383L284 384L284 385L284 386L284 387L284 388L284 389L284 390L284 391L284 392L284 393L284 394L284 395L284 396L284 397L284 398L284 399L284 400L284 401L284 402L284 403L284 404L284 405L284 406L284 407L284 408L284 409L284 410L284 411L284 412L284 413L284 414L284 415L284 416L284 417L284 418L284 419L284 420L284 421L284 422L284 423L284 424L284 425L284 426L284 427L284 428L284 429L284 430L284 431L284 432L284 433L284 434L284 435L284 436L284 437L284 438L284 439L284 440L284 441L284 442L284 443L284 444L284 445L284 446L284 447L284 448L284 449L284 450L284 451L284 452L284 453L284 454L284 455L284 456L284 457L284 458L284 459L284 460L284 461L284 462L284 463L284 464L284 465L284 466L284 467L284 468L284 469L284 470L284 471L284 472L284 473L284 474L284 475L284 476L284 477L284 478L284 479L284 480L284 481L284 482L284 483L284 484L284 485L284 486L284 487L284 488L284 489L284 490L284 491L284 492L284 493L285 494L286 495L287 496L288 497"/>
<path d="M288 497L289 497L290 497L291 496L292 496L293 496L294 496L295 495L296 495L297 495L298 495L299 494L300 494L301 494L302 494L303 493L304 493L305 493L306 493L307 493L308 492L309 492L310 492L311 492L312 491L313 491L314 491L315 491L316 490L317 490L318 490L319 490L320 489L321 489L322 489L323 489L324 488L325 488L326 488L327 488L328 487L329 487L330 487L331 487L332 486L333 486L334 486L335 486L336 485L337 485L338 485L339 485L340 484L341 484L342 484L343 483L344 482L345 482L346 481L347 480L348 480L349 479L350 478L351 477L352 477L353 476L354 476L355 475L356 475L357 475L358 474L359 474L360 474L361 474L362 473L363 473L364 473L365 473L366 472L367 472L368 472L369 472L370 472L371 471L372 471L373 471L374 471L375 470L376 470L377 470L378 470L379 469L380 469L381 469L382 469L383 468L384 468L385 468L386 468L387 467L388 467L389 467L390 467L391 466L392 466L393 466L394 466L395 465L396 465L397 465L398 465L399 464L400 464"/>
<path d="M288 497L288 498L287 499L287 500L286 501L286 502L286 503L285 504L285 505L284 506L284 507L284 508L284 509L284 510L284 511L284 512L284 513L284 514L284 515L284 516L284 517L284 518L284 519L284 520L284 521L284 522L284 523L284 524L284 525L284 526L284 527L284 528L284 529L284 530L284 531L284 532L284 533L284 534L284 535L284 536L284 537L284 538L284 539L284 540L284 541L284 542L284 543L284 544L284 545L284 546L284 547L284 548L284 549L284 550L284 551L284 552L284 553L284 554L284 555L284 556L284 557L284 558L284 559L284 560L284 561L284 562L284 563L284 564L284 565L284 566L284 567L284 568L284 569L284 570L284 571L284 572L284 573L284 574L284 575L284 576L284 577L284 578L284 579L284 580L284 581L284 582L284 583L284 584L284 585L284 586L284 587L284 588L284 589L284 590L284 591L284 592L284 593L284 594L284 595L284 596L284 597L284 598L284 599L284 600L284 601L284 602L284 603L284 604L284 605L284 606L284 607L284 608L284 609L284 610L284 611L284 612L284 613L284 614L284 615L284 616L284 617L284 618L284 619L284 620L284 621L284 622L284 623L284 624L284 625L284 626L284 627L284 628L284 629L284 630L284 631L284 632L284 633L284 634L284 635L284 636L284 637L284 638L284 639L284 640L284 641L284 642L284 643L284 644L284 645L284 646L284 647L284 648L284 649L284 650L284 651L284 652L284 653L284 654L284 655L284 656L284 657L284 658L284 659L284 660L284 661L284 662L284 663L284 664L284 665L284 666L284 667L284 668L284 669L284 670L284 671L284 672L284 673L284 674L284 675L284 676L284 677L284 678L284 679L284 680L284 681L284 682L284 683L284 684L284 685L284 686L284 687L284 688L284 689L284 690L284 691L284 692L284 693L284 694L284 695L284 696L284 697L284 698L284 699L284 700L284 701L284 702L284 703L284 704L284 705L284 706L284 707L284 708L284 709L284 710L284 711L284 712L284 713L284 714L284 715L284 716L284 717L284 718L284 719L284 720L284 721L284 722L284 723L284 724L284 725L284 726L284 727L284 728L284 729L284 730L284 731L284 732L284 733L284 734L284 735L284 736L284 737L284 738L284 739L284 740L284 741L284 742L284 743L284 744L284 745L284 746L284 747L284 748L284 749L284 750L284 751L284 752L284 753L284 754L284 755L284 756L284 757L284 758L284 759L284 760L284 761L284 762L284 763L284 764L284 765L284 766L284 767L284 768L284 769L284 770L284 771L284 772L284 773L284 774L284 775L284 776L284 777L284 778L284 779L284 780L284 781L284 782L284 783L284 784L284 785L284 786L284 787L284 788L284 789L284 790L284 791L284 792L284 793L284 794L284 795L284 796L284 797L284 798L284 799L284 800L284 801L284 802L284 803L284 804L284 805L284 806L284 807L284 808L284 809L284 810L284 811L284 812L284 813L284 814L284 815L284 816L284 817L284 818L284 819L284 820L284 821L284 822L284 823L284 824L284 825L284 826L284 827L284 828L284 829L284 830L284 831L284 832L284 833L284 834L284 835L284 836L284 837L284 838L284 839L284 840L284 841L284 842L284 843L284 844L284 845L284 846L284 847L284 848L284 849L284 850L284 851L284 852L284 853L284 854L284 855L284 856L284 857L284 858L284 859L284 860L284 861L284 862L284 863L284 864L284 865L284 866L284 867L284 868L284 869L284 870L284 871L284 872L284 873L284 874L284 875L284 876L284 877L284 878L284 879L284 880L284 881L284 882L284 883L284 884L284 885L284 886L284 887L284 888L284 889L284 890L284 891L284 892L284 893L284 894L284 895L284 896L284 897L284 898L284 899L284 900L284 901L284 902L284 903L284 904L284 905L284 906L284 907L284 908L284 909L284 910L284 911L284 912L284 913L284 914L284 915L284 916L284 917L284 918L284 919L284 920L284 921L284 922L284 923L284 924L284 925L284 926L284 927L284 928L284 929L284 930L284 931L284 932L284 933L284 934L284 935L284 936L284 937L284 938L284 939L284 940L284 941L284 942L284 943L284 944L284 945L284 946L284 947L284 948L284 949L284 950L284 951L284 952L284 953L284 954L284 955L284 956L284 957L284 958L284 959L284 960L284 961L284 962L284 963L284 964L284 965L284 966L284 967L284 968"/>
<path d="M763 973L762 972L761 971L760 970L759 969L759 968L758 967L757 966L757 965L756 964L755 963L754 962L754 961L753 960L752 959L752 958L751 957L750 956L749 955L749 954L748 953L747 952L746 951L746 950L745 949L744 948L744 947L743 946L742 945L741 944L741 943L740 942L739 941L739 940L738 939L737 938L736 937L736 936L735 935L734 934L733 933L733 932L732 931L731 930L731 929L730 928L729 927L728 926L728 925L727 924L726 923L726 922L725 921L724 920L723 919L723 918L722 917L721 916L720 915L720 914L719 913L718 912L718 911L717 910L716 909L715 908L715 907L714 906L713 905L712 904L712 903L711 902L710 901L710 900L709 899L708 898L707 897L707 896L706 895L705 894L705 893L704 892L703 891L702 890L702 889L701 888L700 887L699 886L699 885L698 884L697 883L697 882L696 881L695 880L694 879L694 878L693 877L692 876L692 875L691 874L690 873L689 872L689 871L688 870L687 869L686 868L686 867L685 866L684 865L684 864L683 863L682 862L681 861L681 860L680 859L679 858L679 857L678 856L677 855L676 854L676 853L675 852L674 851L673 850L673 849L672 848L671 847L671 846L670 845L669 844L668 843L668 842L667 841L666 840L666 839L665 838L664 837L663 836L663 835L662 834L661 833L660 832L660 831L659 830L658 829L658 828L657 827L656 826L655 825L655 824L654 823L653 822L653 821L652 820L651 819L650 818L650 817L649 816L648 815L647 814L647 813L646 812L645 811L645 810L644 809L643 808L642 807L642 806L641 805L640 804L640 803L639 802L638 801L637 800L637 799L636 798L635 797L634 796L634 795L633 794L632 793L632 792L631 791L630 790L629 789L629 788L628 787L627 786L627 785L626 784L625 783L624 782L624 781L623 780L622 779L621 778L621 777L620 776L619 775L619 774L618 773L617 772L616 771L616 770L615 769L614 768L614 767L613 766L612 765L611 764L611 763L610 762L609 761L608 760L608 759L607 758L606 757L606 756L605 755L604 754L603 753L603 752L602 751L601 750L601 749L600 748L599 747L598 746L598 745L597 744L596 743L595 742L595 741L594 740L593 739L593 738L592 737L591 736L590 735L590 734L589 733L588 732L588 731L587 730L586 729L585 728L585 727L584 726L583 725L582 724L582 723L581 722L580 721L580 720L579 719L578 718L577 717L577 716L576 715L575 714L575 713L574 712L573 711L572 710L572 709L571 708L570 707L569 706L569 705L568 704L567 703L567 702L566 701L565 700L564 699L564 698L563 697L562 696L562 695L561 694L560 693L559 692L559 691L558 690L557 689L556 688L556 687L555 686L554 685L554 684L553 683L552 682L551 681L551 680L550 679L549 678L549 677L548 676L547 675L546 674L546 673L545 672L544 671L543 670L543 669L542 668L541 667L541 666L540 665L539 664L538 663L538 662L537 661L536 660L535 659L535 658L534 657L533 656L533 655L532 654L531 653L530 652L530 651L529 650L528 649L528 648L527 647L526 646L525 645L525 644L524 643L523 642L522 641L522 640L521 639L520 638L520 637L519 636L518 635L517 634L517 633L516 632L515 631L515 630L514 629L513 628L512 627L512 626L511 625L510 624L509 623L509 622L508 621L507 620L507 619L506 618L505 617L504 616L504 615L503 614L502 613L502 612L501 611L500 610L499 609L499 608L498 607L497 606L496 605L496 604L495 603L494 602L494 601L493 600L492 599L491 598L491 597L490 596L489 595L489 594L488 593L487 592L486 591L486 590L485 589L484 588L483 587L483 586L482 585L481 584L481 583L480 582L479 581L478 580L478 579L477 578L476 577L476 576L475 575L474 574L473 573L473 572L472 571L471 570L470 569L470 568L469 567L468 566L468 565L467 564L466 563L465 562L465 561L464 560L463 559L463 558L462 557L461 556L460 555L460 554L459 553L458 552L457 551L457 550L456 549L455 548L455 547L454 546L453 545L452 544L452 543L451 542L450 541L450 540L449 539L448 538L447 537L447 536L446 535L445 534L444 533L444 532L443 531L442 530L442 529L441 528L440 527L439 526L439 525L438 524L437 523L437 522L436 521L435 520L434 519L434 518L433 517L432 516L431 515L431 514L430 513L429 512L429 511L428 510L427 509L426 508L426 507L425 506L424 505L424 504L423 503L422 502L421 501L421 500L420 499L419 498L418 497L418 496L417 495L416 494L416 493L415 492L414 491L413 490L413 489L412 488L411 487L411 486L411 485L411 484L410 483L410 482L410 481L409 480L409 479L409 478L409 477L408 476L408 475L408 474L408 473L407 472L407 471L406 470L405 469L404 468L403 467L402 466L401 465L400 464"/>
<path d="M400 464L401 463L401 462L402 461L402 460L403 459L403 458L403 457L404 456L404 455L405 454L405 453L406 452L406 451L406 450L407 449L407 448L408 447L408 446L409 445L409 444L410 443L410 442L410 441L411 440L412 439L413 438L414 437L415 437L416 436L417 435L418 435L419 434L420 434L421 433L422 432L423 432L424 431L425 430L426 429L427 429L428 428L429 428L430 427L431 426L432 426L433 425L434 425L435 424L436 423L437 423L438 422L439 421L440 421L441 420L442 419L443 419L444 418L445 418L446 417L447 416L448 416L449 415L450 414L451 413L452 413L453 412L454 412L455 411L456 410L457 410L458 409L459 409L460 408L461 407L462 407L463 406L464 405L465 405L466 404L467 403L468 403L469 402L470 401L471 401L472 400L473 400L474 399L475 398L476 397L477 397L478 396L479 396L480 395L481 394L482 394L483 393L484 393L485 392L486 391L487 391L488 390L489 389L490 389L491 388L492 387L493 387L494 386L495 385L496 385L497 384L498 384L499 383L500 382L501 381L502 381L503 380L504 380L505 379L506 378L507 378L508 377L509 377L510 376L511 375L512 375L513 374L514 373L515 373L516 372L517 371L518 371L519 370L520 369L521 369L522 368L523 368L524 367L525 366L526 365L527 365L528 364L529 364L530 363L531 362L532 362L533 361L534 360L535 360L536 359L537 359L538 358L539 357L540 357L541 356L542 355L543 355L544 354L545 353L546 353L547 352L548 352L549 351L550 350L551 349L552 349L553 348L554 348L555 347L556 346L557 346L558 345L559 344L560 344L561 343L562 343L563 342L564 341L565 341L566 340L567 339L568 339L569 338L570 337L571 337L572 336L573 335L574 335L575 334L576 333L577 333L578 332L579 332L580 331L581 330L582 330L583 329L584 328L585 328L586 327L587 327L588 326L589 325L590 325L591 324L592 323L593 323L594 322L595 321L596 321L597 320L598 319L599 319L600 318L601 317L602 317L603 316L604 316L605 315L606 314L607 314L608 313L609 312L610 312L611 311L612 310L613 310L614 309L615 309L616 308L617 307L618 307L619 306L620 305L621 305L622 304L623 303L624 303L625 302L626 301L627 301L628 300L629 300L630 299L631 298L632 298L633 297L634 296L635 296L636 295L637 294L638 294L639 293L640 293L641 292L642 291L643 291L644 290L645 289L646 289L647 288L648 287L649 287L650 286L651 285L652 285L653 284L654 284L655 283L656 282L657 282L658 281L659 280L660 280L661 279L662 278L663 277L664 277L665 277L666 276L667 275L668 275L669 274L670 273L671 273L672 272L673 271L674 271L675 270L676 269L677 269L678 268L679 268L680 267L681 266L682 266L683 265L684 264L685 264L686 263L687 262L688 261L689 261L690 261L691 260L692 259L693 259L694 258L695 257L696 257L697 256L698 255L699 255L700 254L701 253L702 253L703 252L704 252L705 251L706 250L707 250L708 249L709 248L710 248L711 247L712 246L713 246"/>
</g>
</svg>