<?xml version="1.0" encoding="UTF-8"?>
<svg xmlns="http://www.w3.org/2000/svg" width="1024" height="1024" viewBox="0 0 1024 1024">
<g fill="none" stroke="#000000" stroke-width="64" stroke-linecap="round" stroke-linejoin="round">
<path d="M192 514L192 513L192 512L192 511L192 510L192 509L192 508L192 507L192 506L192 505L192 504L192 503L192 502L192 501L192 500L192 499L192 498L192 497L192 496L192 495L192 494L192 493L192 492L192 491L192 490L192 489L192 488L192 487L192 486L192 485L192 484L192 483L192 482L192 481L192 480L192 479L192 478L192 477L192 476L192 475L192 474L192 473L192 472L192 471L192 470L192 469L192 468L192 467L192 466L192 465L192 464L192 463L192 462L192 461L192 460L192 459L192 458L192 457L192 456L192 455L192 454L192 453L192 452L192 451L192 450L192 449L192 448L192 447L192 446L192 445L192 444L192 443L192 442L192 441L192 440L192 439L192 438L192 437L192 436L192 435L192 434L192 433L192 432L192 431L192 430L192 429L192 428L192 427L192 426L192 425L192 424L192 423L192 422L192 421L192 420L192 419L192 418L192 417L192 416L192 415L192 414L192 413L192 412L192 411L192 410L192 409L192 408L192 407L192 406L192 405L192 404L192 403L192 402L192 401L192 400L192 399L192 398L192 397L192 396L192 395L192 394L192 393L192 392L192 391L192 390L192 389L192 388L192 387L192 386L192 385L192 384L192 383L192 382L192 381L192 380L192 379L192 378L192 377L192 376L192 375L192 374L192 373L192 372L192 371L192 370L192 369L192 368L192 367L192 366L192 365L192 364L192 363L192 362L192 361L192 360L192 359L192 358L192 357L192 356L192 355L192 354L192 353L192 352L192 351L192 350L192 349L192 348L192 347L192 346L192 345L192 344L192 343L192 342L192 341L192 340L192 339L192 338L192 337L192 336L192 335L192 334L192 333L192 332L192 331L192 330L192 329L192 328L192 327L192 326L192 325L192 324L192 323L192 322L192 321L192 320L192 319L192 318L192 317L192 316L192 315L192 314L192 313L192 312L192 311L192 310L192 309L192 308L192 307L192 306L192 305L192 304L192 303L192 302L192 301L192 300L192 299L192 298L192 297L192 296L192 295L192 294L192 293L192 292L192 291L192 290L192 289L192 288L192 287L192 286L192 285L192 284L192 283L192 282L192 281L192 280L192 279L192 278L192 277L192 276L192 275L191 274L191 273L191 272L191 271L191 270L191 269L191 268L191 267L191 266L191 265L191 264L191 263L191 262L191 261L191 260L191 259L191 258L191 257L191 256L191 255L191 254L191 253L191 252L191 251L191 250L191 249L191 248L191 247L191 246L191 245L191 244L191 243L191 242L191 241L191 240L191 239L191 238L191 237L191 236L191 235L191 234L191 233L191 232L191 231L191 230L191 229L191 228L191 227L191 226L191 225L191 224L191 223L191 222L191 221L191 220L191 219L191 218L191 217L191 216L191 215L191 214L191 213L191 212L191 211L191 210L191 209L191 208L191 207L191 206L191 205L191 204L191 203L191 202L191 201L191 200L191 199L191 198L191 197L191 196L191 195L191 194L191 193L191 192L191 191L191 190L191 189L191 188L191 187L191 186L191 185L191 184L191 183L191 182L191 181L191 180L191 179L191 178L191 177L191 176L191 175L191 174L191 173L191 172L191 171L191 170L191 169L191 168L191 167L191 166L191 165L191 164L191 163L191 162L191 161L191 160L191 159L191 158L191 157L191 156L191 155L191 154L191 153L191 152L191 151L191 150L191 149L191 148L191 147L191 146L191 145L191 144L191 143L191 142L191 141L191 140L191 139L191 138L191 137L191 136L191 135L191 134L191 133L191 132L191 131L191 130L191 129L191 128L191 127L191 126L191 125L191 124L191 123L191 122L191 121L191 120L191 119L191 118L191 117L191 116L191 115L191 114L191 113L191 112L191 111L191 110L191 109L191 108L191 107L191 106L191 105L191 104L191 103L191 102L191 101L191 100L191 99L191 98L191 97L191 96L191 95L191 94L191 93L191 92L191 91L191 90L191 89L191 88L191 87L191 86L191 85L191 84L191 83L191 82L191 81L191 80L191 79L192 78L192 77L192 76L191 75L191 74L191 73L192 72L192 71L192 70L192 69L192 68L192 67L192 66L192 65L192 64L192 63L192 62L192 61L192 60L192 59L192 58"/>
<path d="M192 514L193 514L194 514L195 514L196 514L197 514L198 514L199 514L200 514L201 514L202 514L203 514L204 514L205 514L206 514L207 514L208 514L209 514L210 514L211 514L212 514L213 514L214 514L215 514L216 514L217 514L218 514L219 514L220 514L221 514L222 514L223 514L224 514L225 514L226 514L227 514L228 514L229 514L230 514L231 514L232 514L233 514L234 514L235 514L236 514L237 514L238 514L239 514L240 514L241 514L242 514L243 514L244 514L245 514L246 514L247 514L248 514L249 514L250 514L251 514L252 514L253 514L254 514L255 514L256 514L257 514L258 514L259 514L260 514L261 514L262 514L263 514L264 514L265 514L266 514L267 514L268 514L269 514L270 514L271 514L272 514L273 514L274 514L275 514L276 514L277 514L278 514L279 514L280 514L281 514L282 514L283 514L284 514L285 514L286 514L287 514L288 514L289 514L290 514L291 514L292 514L293 514L294 514L295 514L296 514L297 514L298 514L299 514L300 514L301 514L302 514L303 514L304 514L305 514L306 514L307 514L308 514L309 514L310 514L311 514L312 514L313 514L314 514L315 514L316 514L317 514L318 514L319 514L320 514L321 514L322 514L323 514L324 514L325 514L326 514L327 514L328 514L329 514L330 514L331 514L332 514L333 514L334 514L335 514L336 514L337 514L338 514L339 514L340 514L341 514L342 514L343 514L344 514L345 514L346 514L347 514L348 514L349 514L350 514L351 514L352 514L353 514L354 514L355 514L356 514L357 514L358 514L359 514L360 514L361 514L362 514L363 514L364 514L365 514L366 514L367 514L368 514L369 514L370 514L371 514L372 514L373 514L374 514L375 514L376 514L377 514L378 514L379 514L380 514L381 514L382 514L383 514L384 514L385 514L386 514L387 514L388 514L389 514L390 514L391 514L392 514L393 514L394 514L395 514L396 514L397 514L398 514L399 514L400 514L401 514L402 514L403 514L404 514L405 514L406 514L407 515L408 515L409 515L410 515L411 515L412 515L413 515L414 515L415 515L416 515L417 515L418 515L419 515L420 515L421 515L422 515L423 515L424 515L425 515L426 515L427 515L428 515L429 515L430 515L431 515L432 515L433 515L434 515L435 515L436 515L437 515L438 515L439 515L440 515L441 515L442 515L443 515L444 515L445 515L446 515L447 515L448 515L449 515L450 515L451 515L452 515L453 515L454 515L455 515L456 515L457 515L458 515L459 515L460 515L461 515L462 515L463 515L464 515L465 515L466 515L467 515L468 515L469 515L470 515L471 515L472 515L473 515L474 515L475 515L476 515L477 515L478 515L479 515L480 515L481 515L482 515L483 515L484 515L485 515L486 515L487 515L488 515L489 515L490 515L491 515L492 515L493 515L494 515L495 515L496 515L497 515L498 515L499 515L500 515L501 515L502 515L503 515L504 515L505 515L506 515L507 515L508 515L509 515L510 515L511 515L512 515L513 515L514 515L515 515L516 515L517 515L518 515L519 515L520 515L521 515L522 515L523 515L524 515L525 515L526 515L527 515L528 515L529 515L530 515L531 515L532 515L533 515L534 515L535 515L536 515L537 515L538 515L539 515L540 515L541 515L542 515L543 515L544 515L545 515L546 515L547 515L548 515L549 515L550 515L551 515L552 515L553 515L554 515L555 515L556 515L557 515L558 515L559 515L560 515L561 515L562 515L563 515L564 515L565 515L566 515L567 515L568 515L569 515L570 515L571 515L572 515L573 515L574 515L575 515L576 515L577 515L578 515L579 515L580 515L581 515L582 515L583 515L584 515L585 515L586 515L587 515L588 515L589 515L590 515L591 515L592 515L593 515L594 515L595 515L596 515L597 515L598 515L599 515L600 515L601 515L602 515L603 515L604 515L605 515L606 515L607 515L608 515L609 515L610 515L611 515L612 515L613 515L614 515L615 515L616 515L617 515L618 515L619 515L620 515L621 515L622 515L623 515L624 515L625 515L626 515L627 515L628 515L629 515L630 515L631 515L632 515L633 515L634 515L635 515L636 515L637 515L638 515L639 515L640 515L641 515L642 515L643 515L644 515L645 515L646 515L647 515L648 515L649 515L650 515L651 515L652 515L653 515L654 515L655 515L656 515L657 515L658 515L659 515L660 515L661 515L662 515L663 515L664 515L665 515L666 515L667 515L668 515L669 515L670 515L671 515L672 515L673 515L674 515L675 515L676 515L677 515L678 515L679 515L680 515L681 515L682 515L683 515L684 515L685 515L686 515L687 515L688 515L689 515L690 515L691 515L692 515L693 515L694 515L695 515L696 515L697 515L698 515L699 515L700 515L701 515L702 515L703 515L704 515L705 515L706 515L707 515L708 515L709 515L710 515L711 515L712 515L713 515L714 515L715 515L716 515L717 515L718 515L719 515L720 515L721 515L722 515L723 515L724 515L725 515L726 515L727 515L728 515L729 515L730 515L731 515L732 515L733 515L734 515L735 515L736 515L737 515L738 515L739 515L740 515L741 515L742 515L743 515L744 515L745 515L746 515L747 515L748 515L749 515L750 515L751 515L752 515L753 515L754 515L755 515L756 515L757 515L758 515L759 515L760 515L761 515L762 515L763 515L764 515L765 515L766 515L767 515L768 515L769 515L770 515L771 515L772 515L773 515L774 515L775 515L776 515L777 515L778 515L779 515L780 515L781 515L782 515L783 515L784 515L785 515L786 515L787 515L788 515L789 515L790 515L791 515L792 515L793 515L794 515L795 515L796 515L797 515L798 515L799 515L800 515L801 515L802 515L803 515L804 515L805 515L806 515L807 515L808 515L809 515L810 515L811 515L812 515L813 515L814 515L815 515L816 515L817 515L818 515L819 515L820 515L821 515L822 515L823 515L824 515L825 515L826 515L827 515L828 515L829 515L830 515L831 514L831 513L831 512L831 511L831 510L831 509L831 508L831 507L831 506L831 505L831 504L831 503L831 502L831 501L831 500L831 499L831 498L831 497L831 496L831 495L831 494L831 493L831 492L831 491L831 490L831 489L831 488L831 487L831 486L831 485L831 484L831 483L831 482L831 481L831 480L831 479L831 478L831 477L831 476L831 475L831 474L831 473L831 472L831 471L831 470L831 469L831 468L831 467L831 466L831 465L831 464L831 463L831 462L831 461L831 460L831 459L831 458L831 457L831 456L831 455L831 454L831 453L831 452L831 451L831 450L831 449L831 448L831 447L831 446L831 445L831 444L831 443L831 442L831 441L831 440L831 439L831 438L831 437L831 436L831 435L831 434L831 433L831 432L831 431L831 430L831 429L831 428L831 427L831 426L831 425L831 424L831 423L831 422L831 421L831 420L831 419L831 418L831 417L831 416L831 415L831 414L831 413L831 412L831 411L831 410L831 409L831 408L831 407L831 406L831 405L831 404L831 403L831 402L831 401L831 400L831 399L831 398L831 397L831 396L831 395L831 394L831 393L831 392L831 391L831 390L831 389L831 388L831 387L831 386L831 385L831 384L831 383L831 382L831 381L831 380L831 379L831 378L831 377L831 376L831 375L831 374L831 373L831 372L831 371L831 370L831 369L831 368L831 367L831 366L831 365L831 364L831 363L831 362L831 361L831 360L831 359L831 358L831 357L831 356L831 355L831 354L831 353L831 352L831 351L831 350L831 349L831 348L831 347L831 346L831 345L831 344L831 343L831 342L831 341L831 340L831 339L831 338L831 337L831 336L831 335L831 334L831 333L831 332L831 331L831 330L831 329L831 328L831 327L831 326L831 325L831 324L831 323L831 322L831 321L831 320L831 319L831 318L831 317L831 316L831 315L831 314L831 313L831 312L831 311L831 310L831 309L831 308L831 307L831 306L831 305L831 304L831 303L831 302L831 301L831 300L831 299L831 298L831 297L831 296L831 295L831 294L831 293L831 292L831 291L831 290L831 289L831 288L831 287L831 286L831 285L831 284L831 283L831 282L831 281L831 280L831 279L831 278L831 277L831 276L831 275L831 274L831 273L831 272L831 271L831 270L831 269L831 268L831 267L831 266L831 265L831 264L831 263L831 262L831 261L831 260L831 259L831 258L831 257L831 256L831 255L831 254L831 253L831 252L831 251L831 250L831 249L831 248L831 247L831 246L831 245L831 244L831 243L831 242L831 241L831 240L831 239L831 238L831 237L831 236L831 235L831 234L831 233L831 232L831 231L831 230L831 229L831 228L831 227L831 226L831 225L831 224L831 223L831 222L831 221L831 220L831 219L831 218L831 217L831 216L831 215L831 214L831 213L831 212L831 211L831 210L831 209L831 208L831 207L831 206L831 205L831 204L831 203L831 202L831 201L831 200L831 199L831 198L831 197L831 196L831 195L831 194L831 193L831 192L831 191L831 190L831 189L831 188L831 187L831 186L831 185L831 184L831 183L831 182L831 181L831 180L831 179L831 178L831 177L831 176L831 175L831 174L831 173L831 172L831 171L831 170L831 169L831 168L831 167L831 166L831 165L831 164L831 163L831 162L831 161L831 160L831 159L831 158L831 157L831 156L831 155L831 154L831 153L831 152L831 151L831 150L831 149L831 148L831 147L831 146L831 145L831 144L831 143L831 142L831 141L831 140L831 139L831 138L831 137L831 136L831 135L831 134L831 133L831 132L831 131L831 130L831 129L831 128L831 127L831 126L831 125L831 124L831 123L831 122L831 121L831 120L831 119L831 118L831 117L831 116L831 115L831 114L831 113L831 112L831 111L831 110L831 109L831 108L831 107L831 106L831 105L831 104L831 103L831 102L831 101L831 100L831 99L831 98L831 97L831 96L831 95L831 94L831 93L831 92L831 91L831 90L831 89L831 88L831 87L831 86L831 85L831 84L831 83L831 82L831 81L831 80L831 79L831 78L831 77L831 76L831 75L831 74L831 73L831 72L831 71L831 70L831 69L831 68L831 67L831 66L831 65L831 64L831 63L831 62L831 61L831 60L831 59"/>
<path d="M192 514L192 515L192 516L192 517L192 518L192 519L192 520L192 521L192 522L192 523L192 524L192 525L192 526L192 527L192 528L192 529L192 530L192 531L192 532L192 533L192 534L192 535L192 536L192 537L192 538L192 539L192 540L192 541L192 542L192 543L192 544L192 545L192 546L192 547L192 548L192 549L192 550L192 551L192 552L192 553L192 554L192 555L192 556L192 557L192 558L192 559L192 560L192 561L192 562L192 563L192 564L192 565L192 566L192 567L192 568L192 569L192 570L192 571L192 572L192 573L192 574L192 575L192 576L192 577L192 578L192 579L192 580L192 581L192 582L192 583L192 584L192 585L192 586L192 587L192 588L192 589L192 590L192 591L192 592L192 593L192 594L192 595L192 596L192 597L192 598L192 599L192 600L192 601L192 602L192 603L192 604L192 605L192 606L192 607L192 608L192 609L192 610L192 611L192 612L192 613L192 614L192 615L192 616L192 617L192 618L192 619L192 620L192 621L192 622L192 623L192 624L192 625L192 626L192 627L192 628L192 629L192 630L192 631L192 632L192 633L192 634L192 635L192 636L192 637L192 638L192 639L192 640L192 641L192 642L192 643L192 644L192 645L192 646L192 647L192 648L192 649L192 650L192 651L192 652L192 653L192 654L192 655L192 656L192 657L192 658L192 659L192 660L192 661L192 662L192 663L192 664L192 665L192 666L192 667L192 668L192 669L192 670L192 671L192 672L192 673L192 674L192 675L192 676L192 677L192 678L192 679L192 680L192 681L192 682L192 683L192 684L192 685L192 686L192 687L192 688L192 689L192 690L192 691L192 692L192 693L192 694L192 695L192 696L192 697L192 698L192 699L192 700L192 701L192 702L192 703L192 704L192 705L192 706L192 707L192 708L192 709L192 710L192 711L192 712L192 713L192 714L192 715L192 716L192 717L192 718L192 719L192 720L192 721L192 722L192 723L192 724L192 725L192 726L192 727L192 728L192 729L192 730L192 731L192 732L192 733L192 734L192 735L192 736L192 737L192 738L192 739L192 740L192 741L192 742L192 743L192 744L192 745L192 746L192 747L192 748L192 749L192 750L192 751L192 752L192 753L192 754L192 755L192 756L192 757L192 758L192 759L192 760L192 761L192 762L192 763L192 764L192 765L192 766L192 767L192 768L192 769L192 770L192 771L192 772L192 773L192 774L192 775L192 776L192 777L192 778L192 779L192 780L192 781L192 782L192 783L192 784L192 785L192 786L192 787L192 788L192 789L192 790L192 791L192 792L192 793L192 794L192 795L192 796L192 797L192 798L192 799L192 800L192 801L192 802L192 803L192 804L192 805L192 806L192 807L192 808L192 809L192 810L192 811L192 812L192 813L192 814L192 815L192 816L192 817L192 818L192 819L192 820L192 821L192 822L192 823L192 824L192 825L192 826L192 827L192 828L192 829L192 830L192 831L192 832L192 833L192 834L192 835L192 836L192 837L192 838L192 839L192 840L192 841L192 842L192 843L192 844L192 845L192 846L192 847L192 848L192 849L192 850L192 851L192 852L192 853L192 854L192 855L192 856L192 857L192 858L192 859L192 860L192 861L192 862L192 863L192 864L192 865L192 866L192 867L192 868L192 869L192 870L192 871L192 872L192 873L192 874L192 875L192 876L192 877L192 878L192 879L192 880L192 881L192 882L192 883L192 884L192 885L192 886L192 887L192 888L192 889L192 890L192 891L192 892L192 893L192 894L192 895L192 896L192 897L192 898L192 899L192 900L192 901L192 902L192 903L192 904L192 905L192 906L192 907L192 908L192 909L192 910L192 911L192 912L192 913L192 914L192 915L192 916L192 917L192 918L192 919L192 920L192 921L192 922L192 923L192 924L192 925L192 926L192 927L192 928L192 929L192 930L192 931L192 932L192 933L192 934L192 935L192 936L192 937L192 938L192 939L192 940L192 941L192 942L192 943L192 944L192 945L192 946L192 947L192 948L192 949L192 950L192 951L192 952L192 953L192 954L192 955L192 956L192 957L192 958L192 959L192 960L192 961L192 962"/>
<path d="M831 515L831 516L831 517L831 518L831 519L831 520L831 521L831 522L831 523L831 524L831 525L831 526L831 527L831 528L831 529L831 530L831 531L831 532L831 533L831 534L831 535L831 536L831 537L831 538L831 539L831 540L831 541L831 542L831 543L831 544L831 545L831 546L831 547L831 548L831 549L831 550L831 551L831 552L831 553L831 554L831 555L831 556L831 557L831 558L831 559L831 560L831 561L831 562L831 563L831 564L831 565L831 566L831 567L831 568L831 569L831 570L831 571L831 572L831 573L831 574L831 575L831 576L831 577L831 578L831 579L831 580L831 581L831 582L831 583L831 584L831 585L831 586L831 587L831 588L831 589L831 590L831 591L831 592L831 593L831 594L831 595L831 596L831 597L831 598L831 599L831 600L831 601L831 602L831 603L831 604L831 605L831 606L831 607L831 608L831 609L831 610L831 611L831 612L831 613L831 614L831 615L831 616L831 617L831 618L831 619L831 620L831 621L831 622L831 623L831 624L831 625L831 626L831 627L831 628L831 629L831 630L831 631L831 632L831 633L831 634L831 635L831 636L831 637L831 638L831 639L831 640L831 641L831 642L831 643L831 644L831 645L831 646L831 647L831 648L831 649L831 650L831 651L831 652L831 653L831 654L831 655L831 656L831 657L831 658L831 659L831 660L831 661L831 662L831 663L831 664L831 665L831 666L831 667L831 668L831 669L831 670L831 671L831 672L831 673L831 674L831 675L831 676L831 677L831 678L831 679L831 680L831 681L831 682L831 683L831 684L831 685L831 686L831 687L831 688L831 689L831 690L831 691L831 692L831 693L831 694L831 695L831 696L831 697L831 698L831 699L831 700L831 701L831 702L831 703L831 704L831 705L831 706L831 707L831 708L831 709L831 710L831 711L831 712L831 713L831 714L831 715L831 716L831 717L831 718L831 719L831 720L831 721L831 722L831 723L831 724L831 725L831 726L831 727L831 728L831 729L831 730L831 731L831 732L831 733L831 734L831 735L831 736L831 737L831 738L831 739L831 740L831 741L831 742L831 743L831 744L831 745L831 746L831 747L831 748L831 749L831 750L831 751L831 752L831 753L831 754L831 755L831 756L831 757L831 758L831 759L831 760L831 761L831 762L831 763L831 764L831 765L831 766L831 767L831 768L831 769L831 770L831 771L831 772L831 773L831 774L831 775L831 776L831 777L831 778L831 779L831 780L831 781L831 782L831 783L831 784L831 785L831 786L831 787L831 788L831 789L831 790L831 791L831 792L831 793L831 794L831 795L831 796L831 797L831 798L831 799L831 800L831 801L831 802L831 803L831 804L831 805L831 806L831 807L831 808L831 809L831 810L831 811L831 812L831 813L831 814L831 815L831 816L831 817L831 818L831 819L831 820L831 821L831 822L831 823L831 824L831 825L831 826L831 827L831 828L831 829L831 830L831 831L831 832L831 833L831 834L831 835L831 836L831 837L831 838L831 839L831 840L831 841L831 842L831 843L831 844L831 845L831 846L831 847L831 848L831 849L831 850L831 851L831 852L831 853L831 854L831 855L831 856L831 857L831 858L831 859L831 860L831 861L831 862L831 863L831 864L831 865L831 866L831 867L831 868L831 869L831 870L831 871L831 872L831 873L831 874L831 875L831 876L831 877L831 878L831 879L831 880L831 881L831 882L831 883L831 884L831 885L831 886L831 887L831 888L831 889L831 890L831 891L831 892L831 893L831 894L831 895L831 896L831 897L831 898L831 899L831 900L831 901L831 902L831 903L831 904L831 905L831 906L831 907L831 908L831 909L831 910L831 911L831 912L831 913L831 914L831 915L831 916L831 917L831 918L831 919L831 920L831 921L831 922L831 923L831 924L831 925L831 926L831 927L831 928L831 929L831 930L831 931L831 932L831 933L831 934L831 935L831 936L831 937L831 938L831 939L831 940L831 941L831 942L831 943L831 944L831 945L831 946L831 947L831 948L831 949L831 950L831 951L831 952L831 953L831 954L831 955L831 956L831 957L831 958L831 959L831 960L831 961L831 962L831 963L831 964"/>
</g>
</svg>