<?xml version="1.0" encoding="UTF-8"?>
<svg xmlns="http://www.w3.org/2000/svg" width="1024" height="1024" viewBox="0 0 1024 1024">
<g fill="none" stroke="#000000" stroke-width="65.1" stroke-linecap="round" stroke-linejoin="round">
<path d="M263 817L263 818L264 819L264 820L264 821L265 822L265 823L265 824L266 825L266 826L267 827L267 828L267 829L268 830L268 831L268 832L268 833L268 834L269 835L269 836L269 837L270 838L270 839L270 840L270 841L271 842L271 843L272 844L272 845L272 846L272 847L273 848L273 849L274 850L274 851L275 852L275 853L276 854L277 855L277 856L278 857L278 858L279 859L279 860L280 861L280 862L281 863L282 864L282 865L283 866L284 867L284 868L285 869L286 870L286 871L287 872L288 873L289 874L289 875L290 876L291 877L292 878L292 879L293 880L294 881L295 882L296 883L297 884L298 885L299 886L299 887L300 888L301 889L302 890L303 891L304 892L305 893L306 894L307 895L308 896L309 897L310 898L311 899L312 900L313 901L314 902L315 903L316 904L317 905L318 906L319 906L320 907L321 908L322 909L323 910L324 911L325 911L326 912L327 913L328 914L329 915L330 915L331 916L332 917L333 918L334 918L335 919L336 920L337 921L338 922L339 922L340 923L341 924L342 924L343 924L344 925L345 926L346 927L347 928L348 928L349 929L350 930L351 930L352 931L353 931L354 932L355 933L356 933L357 934L358 935L359 935L360 936L361 937L362 937L363 938L364 938L365 939L366 940L367 940L368 940L369 941L370 942L371 942L372 943L373 943L374 944L375 944L376 945L377 945L378 946L379 946L380 947L381 947L382 948L383 948L384 948L385 949L386 950L387 950L388 950L389 951L390 951L391 952L392 952L393 953L394 953L395 954L396 954L397 955L398 955L399 956L400 956L401 956L402 957L403 957L404 958L405 958L406 958L407 959L408 959L409 959L410 960L411 960L412 960L413 961L414 961L415 961L416 962L417 962L418 962L419 963L420 963L421 964L422 964L423 964L424 965L425 965L426 965L427 966L428 966L429 966L430 966L431 967L432 967L433 967L434 967L435 968L436 968L437 968L438 968L439 969L440 969L441 969L442 970L443 970L444 970L445 971L446 971L447 971L448 971L449 971L450 971L451 972L452 972L453 972L454 972L455 972L456 973L457 973L458 973L459 973L460 974L461 974L462 974L463 974L464 974L465 974L466 974L467 975L468 975L469 975L470 975L471 975L472 975L473 976L474 976L475 976L476 976L477 976L478 976L479 976L480 976L481 976L482 976L483 976L484 977L485 977L486 977L487 977L488 977L489 977L490 977L491 977L492 977L493 977L494 977L495 977L496 978L497 978L498 978L499 978L500 978L501 978L502 978L503 978L504 978L505 978L506 978L507 978L508 978L509 978L510 978L511 978L512 979L513 979L514 979L515 978L516 978L517 978L518 978L519 978L520 978L521 978L522 978L523 978L524 978L525 978L526 978L527 978L528 978L529 978L530 978L531 977L532 977L533 977L534 977L535 977L536 977L537 977L538 977L539 977L540 977L541 977L542 977L543 976L544 976L545 976L546 976L547 976L548 976L549 976L550 976L551 976L552 976L553 975L554 975L555 975L556 975L557 975L558 975L559 975L560 975L561 974L562 974L563 974L564 974L565 973L566 973L567 973L568 973L569 972L570 972L571 972L572 972L573 972L574 972L575 972L576 971L577 971L578 971L579 970L580 970L581 970L582 969L583 969L584 969L585 969L586 968L587 968L588 968L589 968L590 968L591 967L592 967L593 966L594 966L595 966L596 965L597 965L598 964L599 964L600 964L601 963L602 963L603 963L604 962L605 962L606 962L607 961L608 961L609 961L610 960L611 960L612 959L613 959L614 958L615 958L616 957L617 957L618 956L619 956L620 956L621 955L622 955L623 954L624 954L625 953L626 953L627 952L628 952L629 951L630 951L631 950L632 950L633 949L634 948L635 948L636 948L637 947L638 947L639 946L640 945L641 945L642 944L643 943L644 943L645 942L646 941L647 941L648 940L649 940L650 939L651 938L652 938L653 937L654 936L655 936L656 935L657 934L658 934L659 933L660 932L661 931L662 931L663 930L664 929L665 928L666 928L667 927L668 926L669 925L670 924L671 924L672 923L673 922L674 921L675 920L676 920L677 919L678 918L679 917L680 916L681 915L682 914L683 914L684 913L685 912L686 911L687 910L688 909L689 908L690 907L691 906L692 905L693 904L694 903L695 902L696 901L697 900L698 899L699 898L700 897L701 896L702 895L702 894L703 893L704 892L705 891L706 890L707 889L708 888L709 887L709 886L710 885L711 884L712 883L713 882L714 881L714 880L715 879L716 878L717 877L718 876L718 875L719 874L720 873L721 872L721 871L722 870L723 869L724 868L724 867L725 866L726 865L726 864L727 863L728 862L728 861L729 860L730 859L730 858L731 857L732 856L732 855L733 854L733 853L734 852L734 851L735 850L735 849L736 848L736 847L737 846L737 845L738 844L738 843L738 842L739 841L739 840L740 839L740 838L741 837L741 836L742 835L742 834L742 833L743 832L743 831L743 830L744 829L744 828L745 827L745 826L745 825L746 824L746 823L746 822L747 821L747 820L748 819L748 818L748 817L748 816L748 815L749 814L749 813L749 812L749 811L750 810L750 809L750 808L751 807L751 806L751 805L752 804L752 803L752 802L752 801L752 800L752 799L753 798L753 797L753 796L753 795L753 794L754 793L754 792L754 791L754 790L754 789L755 788L755 787L755 786L755 785L755 784L755 783L755 782L756 781L756 780L756 779L756 778L756 777L756 776L756 775L756 774L756 773L756 772L757 771L757 770L757 769L757 768L757 767L757 766L758 765L758 764L758 763L758 762L758 761L758 760L758 759L758 758L758 757L758 756L758 755L758 754L758 753L758 752L759 751L759 750L759 749L759 748L759 747L759 746L759 745L759 744L759 743L759 742L759 741L759 740L759 739L759 738L759 737L759 736L759 735L759 734L759 733L759 732L759 731L759 730L759 729L759 728L759 727L759 726L759 725L759 724L759 723L759 722L759 721L758 720L758 719L758 718L758 717L758 716L758 715L758 714L758 713L758 712L758 711L758 710L758 709L758 708L757 707L757 706L757 705L757 704L757 703L757 702L757 701L756 700L756 699L756 698L756 697L756 696L756 695L756 694L756 693L756 692L755 691L755 690L755 689L755 688L755 687L755 686L755 685L755 684L754 683L754 682L754 681L753 680L753 679L753 678L753 677L753 676L752 675L752 674L752 673L752 672L752 671L751 670L751 669L751 668L750 667L750 666L750 665L750 664L749 663L749 662L749 661L749 660L748 659L748 658L748 657L747 656L747 655L747 654L746 653L746 652L746 651L745 650L745 649L745 648L744 647L744 646L743 645L743 644L742 643L742 642L741 641L741 640L740 639L740 638L739 637L739 636L739 635L738 634L738 633L737 632L737 631L736 630L735 629L735 628L734 627L734 626L733 625L732 624L731 623L731 622L730 621L730 620L729 619L729 618L728 617L727 616L726 615L726 614L725 613L724 612L723 611L722 610L722 609L721 608L720 607L719 606L718 605L718 604L717 603L716 602L715 601L714 600L713 599L712 598L711 597L711 596L710 595L709 594L708 593L707 592L706 591L705 590L704 589L703 589L702 588L701 587L700 586L699 585L698 584L697 583L696 582L695 581L694 581L693 580L692 579L691 578L690 577L689 577L688 576L687 575L686 574L685 573L684 573L683 572L682 571L681 571L680 570L679 569L678 568L677 568L676 567L675 566L674 565L673 565L672 564L671 564L670 563L669 562L668 562L667 561L666 560L665 560L664 559L663 558L662 558L661 557L660 557L659 556L658 556L657 555L656 555L655 554L654 553L653 553L652 552L651 552L650 551L649 551L648 550L647 549L646 549L645 548L644 548L643 547L642 547L641 546L640 546L639 545L638 545L637 544L636 544L635 543L634 543L633 542L632 542L631 541L630 541L629 540L628 540L627 540L626 539L625 539L624 538L623 538L622 538L621 537L620 537L619 536L618 536L617 536L616 535L615 535L614 534L613 534L612 533L611 533L610 533L609 532L609 531L608 530L608 529L607 528L606 527L606 526L605 525L604 524L604 523L603 522L603 521L602 520L601 519L601 518L600 517L599 516L599 515L598 514L597 513L597 512L596 511L595 510L595 509L594 508"/>
<path d="M594 508L594 507L595 506L596 505L596 504L597 503L598 502L598 501L599 500L600 499L600 498L601 497L601 496L602 495L602 494L603 493L604 492L605 491L605 490L606 489L606 488L607 487L608 486L608 485L608 484L609 483L610 482L611 482L612 481L613 481L614 480L615 480L616 480L617 479L618 479L619 478L620 478L621 477L622 477L623 476L624 476L625 475L626 475L627 474L628 474L629 473L630 473L631 472L632 472L633 471L634 471L635 470L636 470L637 469L638 469L639 469L640 468L641 468L642 467L643 466L644 466L645 465L646 464L647 464L648 463L649 463L650 462L651 461L652 461L653 460L654 459L655 459L656 458L657 457L658 457L659 456L660 456L661 455L662 454L663 453L664 453L665 452L666 451L667 450L668 449L669 449L670 448L671 447L672 446L673 446L674 445L675 444L676 443L677 442L678 442L679 441L680 440L681 439L682 438L683 437L684 436L685 435L686 435L687 434L688 433L689 432L690 431L691 430L692 429L692 428L693 427L694 426L695 425L696 424L697 423L698 422L699 421L699 420L700 419L701 418L702 417L703 416L703 415L704 414L705 413L706 412L707 411L707 410L708 409L709 408L710 407L710 406L711 405L711 404L712 403L713 402L713 401L714 400L715 399L715 398L716 397L717 396L717 395L718 394L719 393L719 392L720 391L720 390L721 389L721 388L721 387L722 386L722 385L723 384L723 383L724 382L724 381L725 380L725 379L726 378L726 377L727 376L727 375L728 374L728 373L729 372L729 371L729 370L729 369L730 368L730 367L730 366L731 365L731 364L731 363L732 362L732 361L733 360L733 359L733 358L734 357L734 356L734 355L734 354L735 353L735 352L735 351L735 350L736 349L736 348L736 347L737 346L737 345L737 344L737 343L738 342L738 341L738 340L738 339L738 338L738 337L739 336L739 335L739 334L739 333L740 332L740 331L740 330L740 329L740 328L740 327L740 326L740 325L741 324L741 323L741 322L741 321L741 320L741 319L741 318L741 317L741 316L741 315L742 314L742 313L742 312L742 311L742 310L742 309L742 308L742 307L742 306L742 305L742 304L743 303L743 302L743 301L743 300L743 299L743 298L743 297L743 296L743 295L743 294L743 293L743 292L743 291L743 290L743 289L744 288L744 287L744 286L744 285L744 284L744 283L743 282L743 281L743 280L743 279L743 278L743 277L743 276L743 275L743 274L743 273L743 272L743 271L743 270L743 269L743 268L743 267L743 266L742 265L742 264L742 263L742 262L742 261L742 260L742 259L742 258L742 257L742 256L742 255L742 254L742 253L741 252L741 251L741 250L741 249L741 248L741 247L741 246L741 245L741 244L741 243L741 242L740 241L740 240L740 239L740 238L740 237L739 236L739 235L739 234L739 233L739 232L739 231L739 230L739 229L739 228L738 227L738 226L738 225L738 224L738 223L737 222L737 221L737 220L736 219L736 218L736 217L736 216L736 215L736 214L735 213L735 212L735 211L735 210L735 209L735 208L734 207L734 206L734 205L733 204L733 203L733 202L732 201L732 200L732 199L732 198L731 197L731 196L731 195L731 194L730 193L730 192L730 191L730 190L729 189L729 188L728 187L728 186L728 185L727 184L727 183L726 182L726 181L726 180L725 179L725 178L725 177L724 176L724 175L724 174L723 173L723 172L723 171L722 170L722 169L721 168L721 167L720 166L720 165L719 164L719 163L718 162L718 161L718 160L717 159L717 158L716 157L716 156L715 155L715 154L714 153L714 152L713 151L713 150L712 149L712 148L711 147L711 146L710 145L710 144L709 143L708 142L708 141L707 140L706 139L706 138L705 137L704 136L704 135L703 134L703 133L702 132L701 131L701 130L700 129L699 128L698 127L698 126L697 125L696 124L695 123L695 122L694 121L693 120L692 119L691 118L691 117L690 116L689 115L688 114L687 113L686 112L685 111L685 110L684 109L683 108L682 107L681 106L680 105L679 104L678 103L677 102L676 102L675 101L674 100L673 99L672 98L671 97L670 96L669 95L668 94L667 93L666 93L665 92L664 91L663 90L662 89L661 88L660 88L659 87L658 86L657 86L656 85L655 84L654 84L653 83L652 82L651 82L650 81L649 80L648 79L647 79L646 78L645 77L644 77L643 76L642 76L641 75L640 75L639 74L638 74L637 73L636 73L635 72L634 71L633 71L632 70L631 69L630 69L629 68L628 68L627 67L626 67L625 67L624 66L623 66L622 65L621 65L620 64L619 64L618 63L617 63L616 62L615 62L614 62L613 62L612 61L611 61L610 60L609 60L608 59L607 59L606 59L605 58L604 58L603 57L602 57L601 57L600 57L599 56L598 56L597 56L596 56L595 55L594 55L593 54L592 54L591 54L590 53L589 53L588 53L587 53L586 52L585 52L584 52L583 52L582 52L581 52L580 51L579 51L578 51L577 50L576 50L575 50L574 50L573 49L572 49L571 49L570 49L569 49L568 49L567 49L566 48L565 48L564 48L563 48L562 47L561 47L560 47L559 47L558 47L557 47L556 47L555 47L554 47L553 47L552 46L551 46L550 46L549 46L548 46L547 46L546 46L545 46L544 46L543 46L542 46L541 45L540 45L539 45L538 45L537 45L536 45L535 45L534 45L533 45L532 45L531 45L530 45L529 45L528 44L527 44L526 44L525 44L524 44L523 44L522 44L521 44L520 44L519 44L518 44L517 44L516 44L515 44L514 44L513 44L512 44L511 44L510 44L509 44L508 44L507 44L506 45L505 45L504 45L503 45L502 45L501 45L500 45L499 45L498 45L497 45L496 45L495 45L494 45L493 45L492 45L491 46L490 46L489 46L488 46L487 46L486 46L485 46L484 46L483 46L482 46L481 46L480 47L479 47L478 47L477 47L476 47L475 47L474 47L473 47L472 47L471 47L470 48L469 48L468 48L467 48L466 49L465 49L464 49L463 49L462 49L461 49L460 50L459 50L458 50L457 50L456 50L455 50L454 51L453 51L452 51L451 51L450 52L449 52L448 52L447 53L446 53L445 53L444 53L443 53L442 53L441 54L440 54L439 54L438 54L437 54L436 55L435 55L434 56L433 56L432 56L431 57L430 57L429 57L428 58L427 58L426 58L425 59L424 59L423 59L422 59L421 60L420 60L419 60L418 61L417 61L416 61L415 62L414 62L413 62L412 63L411 63L410 64L409 64L408 64L407 65L406 65L405 66L404 66L403 67L402 67L401 67L400 68L399 68L398 69L397 69L396 69L395 70L394 70L393 70L392 71L391 72L390 72L389 73L388 73L387 73L386 74L385 74L384 75L383 75L382 76L381 77L380 77L379 78L378 78L377 79L376 79L375 80L374 81L373 81L372 82L371 82L370 83L369 83L368 84L367 84L366 85L365 86L364 86L363 87L362 87L361 88L360 89L359 89L358 90L357 91L356 91L355 92L354 93L353 94L352 94L351 95L350 96L349 96L348 97L347 98L346 98L345 99L344 100L343 101L342 101L341 102L340 103L339 104L338 105L337 106L336 106L335 107L334 108L333 109L332 110L331 111L330 112L329 113L328 114L327 115L326 116L325 117L324 118L323 119L322 120L321 121L320 122L319 123L318 124L317 125L316 126L315 127L314 128L313 129L313 130L312 131L311 132L310 133L309 134L308 135L308 136L307 137L306 138L306 139L305 140L304 141L304 142L303 143L302 144L301 145L301 146L300 147L299 148L299 149L298 150L298 151L297 152L297 153L296 154L296 155L295 156L294 157L294 158L293 159L293 160L292 161L292 162L291 163L291 164L290 165L290 166L290 167L289 168L289 169L289 170L288 171L288 172L287 173L287 174L286 175L286 176L285 177L285 178L284 179L284 180L284 181L283 182L283 183"/>
<path d="M594 508L593 508L592 507L591 507L590 507L589 508L588 508L587 507L586 507L585 507L584 507L583 508L582 508L581 507L580 507L579 507L578 507L577 508L576 508L575 507L574 507L573 507L572 507L571 508L570 508L569 507L568 507L567 507L566 507L565 507L564 508L563 508L562 507L561 507L560 507L559 507L558 507L557 507L556 508L555 508L554 507L553 507L552 507L551 507L550 507L549 507L548 508L547 508L546 508L545 507L544 507L543 507L542 507L541 507L540 507L539 507L538 507L537 507L536 508L535 508L534 508L533 508L532 507L531 507L530 507L529 507L528 507L527 507L526 507L525 507L524 507L523 507L522 507L521 507L520 507L519 507L518 507L517 507L516 507L515 507L514 508L513 508L512 507L511 507L510 507L509 508L508 508L507 508L506 508L505 508L504 508L503 508L502 508L501 508L500 508L499 508L498 508"/>
</g>
</svg>