<?xml version="1.0" encoding="UTF-8"?>
<svg xmlns="http://www.w3.org/2000/svg" width="1024" height="1024" viewBox="0 0 1024 1024">
<g fill="none" stroke="#000000" stroke-width="64.8" stroke-linecap="round" stroke-linejoin="round">
<path d="M762 174L761 173L761 172L760 171L759 170L758 169L758 168L757 167L756 166L756 165L755 164L754 163L753 162L753 161L752 160L751 159L751 158L750 157L749 156L748 155L748 154L747 153L746 152L745 151L745 150L744 149L743 148L742 147L741 146L741 145L740 144L739 143L738 142L737 141L736 140L736 139L735 138L734 137L733 136L732 135L731 134L730 133L729 132L728 131L727 130L726 129L726 128L725 127L724 126L723 125L722 124L721 123L720 122L719 121L718 120L717 119L716 118L715 118L714 117L713 116L712 115L711 114L710 113L709 112L708 111L707 110L706 110L705 109L704 108L703 107L702 106L701 106L700 105L699 104L698 103L697 102L696 101L695 101L694 100L693 99L692 98L691 97L690 96L689 96L688 95L687 94L686 93L685 93L684 92L683 91L682 90L681 90L680 89L679 88L678 88L677 87L676 86L675 86L674 85L673 84L672 84L671 83L670 83L669 82L668 81L667 81L666 80L665 79L664 79L663 78L662 78L661 77L660 76L659 76L658 75L657 75L656 74L655 74L654 73L653 73L652 72L651 72L650 71L649 71L648 70L647 70L646 69L645 68L644 68L643 67L642 67L641 67L640 66L639 66L638 65L637 65L636 64L635 64L634 64L633 63L632 63L631 62L630 62L629 62L628 61L627 61L626 61L625 60L624 60L623 59L622 59L621 59L620 58L619 58L618 58L617 57L616 57L615 57L614 57L613 57L612 56L611 56L610 55L609 55L608 55L607 54L606 54L605 54L604 54L603 54L602 53L601 53L600 53L599 53L598 53L597 52L596 52L595 52L594 52L593 51L592 51L591 51L590 51L589 51L588 51L587 51L586 50L585 50L584 50L583 50L582 50L581 50L580 50L579 50L578 50L577 49L576 49L575 49L574 49L573 49L572 49L571 49L570 49L569 49L568 49L567 49L566 48L565 48L564 48L563 48L562 48L561 48L560 48L559 48L558 48L557 48L556 48L555 48L554 48L553 47L552 47L551 47L550 48L549 48L548 48L547 48L546 48L545 48L544 48L543 48L542 48L541 48L540 48L539 48L538 48L537 49L536 49L535 49L534 49L533 49L532 49L531 49L530 49L529 49L528 49L527 49L526 50L525 50L524 50L523 50L522 50L521 50L520 50L519 50L518 50L517 51L516 51L515 51L514 51L513 51L512 51L511 51L510 51L509 52L508 52L507 52L506 52L505 53L504 53L503 53L502 53L501 54L500 54L499 54L498 54L497 54L496 54L495 55L494 55L493 55L492 56L491 56L490 56L489 57L488 57L487 57L486 58L485 58L484 58L483 58L482 59L481 59L480 59L479 59L478 60L477 60L476 60L475 61L474 61L473 62L472 62L471 62L470 63L469 63L468 64L467 64L466 65L465 65L464 65L463 66L462 66L461 66L460 67L459 67L458 67L457 68L456 68L455 69L454 69L453 70L452 70L451 70L450 71L449 71L448 72L447 72L446 73L445 73L444 74L443 75L442 75L441 76L440 76L439 77L438 77L437 78L436 78L435 78L434 79L433 80L432 80L431 81L430 81L429 82L428 82L427 83L426 84L425 84L424 85L423 85L422 86L421 86L420 87L419 88L418 88L417 89L416 89L415 90L414 91L413 91L412 92L411 93L410 93L409 94L408 94L407 95L406 96L405 97L404 97L403 98L402 98L401 99L400 100L399 101L398 101L397 102L396 102L395 103L394 104L393 105L392 105L391 106L390 107L389 108L388 108L387 109L386 110L385 111L384 111L383 112L382 113L381 114L380 115L379 115L378 116L377 117L376 118L375 119L374 120L373 120L372 121L371 122L370 123L369 124L368 125L367 126L366 126L365 127L364 128L363 129L362 130L361 131L360 132L359 133L358 134L357 135L356 136L355 137L354 138L353 139L352 140L351 141L350 142L349 143L348 144L347 145L346 146L346 147L345 148L344 149L343 150L342 151L341 152L340 153L339 154L339 155L338 156L337 157L336 158L335 159L334 160L334 161L333 162L332 163L331 164L330 165L330 166L329 167L328 168L327 169L327 170L326 171L325 172L324 173L324 174L323 175L322 176L322 177L321 178L320 179L320 180L319 181L318 182L318 183L317 184L317 185L316 186L315 187L315 188L314 189L313 190L313 191L312 192L311 193L311 194L310 195L310 196L309 197L309 198L308 199L308 200L307 201L307 202L306 203L306 204L305 205L305 206L304 207L304 208L303 209L302 210L302 211L301 212L301 213L300 214L300 215L299 216L299 217L298 218L298 219L297 220L297 221L296 222L296 223L295 224L295 225L295 226L294 227L294 228L293 229L293 230L292 231L292 232L291 233L291 234L291 235L290 236L290 237L290 238L289 239L289 240L289 241L288 242L288 243L287 244L287 245L286 246L286 247L286 248L285 249L285 250L284 251L284 252L284 253L283 254L283 255L283 256L282 257L282 258L282 259L281 260L281 261L280 262L280 263L280 264L280 265L279 266L279 267L279 268L279 269L278 270L278 271L278 272L277 273L277 274L277 275L276 276L276 277L276 278L275 279L275 280L275 281L275 282L274 283L274 284L274 285L273 286L273 287L273 288L273 289L272 290L272 291L272 292L271 293L271 294L271 295L271 296L271 297L270 298L270 299L270 300L270 301L270 302L269 303L269 304L269 305L269 306L268 307L268 308L268 309L268 310L267 311L267 312L267 313L267 314L266 315L266 316L266 317L266 318L265 319L265 320L265 321L265 322L265 323L265 324L264 325L264 326L264 327L264 328L264 329L264 330L264 331L263 332L263 333L263 334L263 335L263 336L263 337L262 338L262 339L262 340L262 341L262 342L261 343L261 344L261 345L261 346L261 347L260 348L260 349L260 350L260 351L260 352L260 353L260 354L259 355L259 356L259 357L259 358L259 359L259 360L259 361L259 362L258 363L258 364L258 365L258 366L258 367L258 368L258 369L258 370L258 371L257 372L257 373L257 374L257 375L257 376L257 377L257 378L256 379L256 380L256 381L256 382L256 383L256 384L256 385L255 386L255 387L255 388L255 389L255 390L255 391L255 392L255 393L255 394L255 395L255 396L255 397L255 398L255 399L255 400L254 401L254 402L254 403L254 404L254 405L254 406L254 407L254 408L254 409L254 410L254 411L254 412L253 413L253 414L253 415L253 416L253 417L253 418L253 419L253 420L253 421L253 422L252 423L252 424L252 425L252 426L252 427L252 428L252 429L252 430L252 431L252 432L252 433L252 434L252 435L252 436L252 437L252 438L252 439L252 440L252 441L252 442L252 443L252 444L252 445L252 446L252 447L252 448L251 449L251 450L251 451L251 452L251 453L251 454L251 455L251 456L251 457L251 458L251 459L251 460L251 461L251 462L251 463L251 464L251 465L250 466L250 467L250 468L250 469L250 470L250 471L250 472L250 473L250 474L250 475L250 476L250 477L250 478L250 479L250 480L250 481L250 482L250 483L250 484L250 485L250 486L250 487L250 488L250 489L250 490L250 491L250 492L250 493L250 494L250 495L250 496L250 497L250 498L250 499L250 500L250 501L250 502L250 503L250 504L250 505L250 506L250 507L250 508L250 509L250 510L250 511L250 512L250 513L250 514L250 515L250 516L250 517L250 518L250 519L250 520L250 521L250 522L250 523L250 524L250 525L250 526L250 527L250 528L251 529L252 530L253 531L254 532L255 533L256 534L257 535L258 536L259 537L260 538L261 539L262 540L263 541"/>
<path d="M263 541L264 540L265 540L266 539L267 539L268 538L269 538L270 537L271 537L272 536L273 536L274 535L275 535L276 534L277 533L278 533L279 532L280 532L281 531L282 531L283 530L284 530L285 529L286 529L287 528L288 528L289 527L290 527L291 526L292 526L293 525L294 525L295 525L296 524L297 524L298 523L299 523L300 522L301 522L302 521L303 521L304 520L305 520L306 519L307 518L307 517L308 516L309 515L309 514L310 513L311 512L311 511L312 510L312 509L313 508L314 507L314 506L315 505L316 504L316 503L317 502L318 501L319 500L319 499L320 498L321 497L322 496L322 495L323 494L324 493L325 492L326 491L326 490L327 489L328 488L329 487L330 486L331 485L331 484L332 483L333 482L334 481L335 480L336 479L337 478L338 477L338 476L339 475L340 474L341 473L342 472L343 471L344 470L345 469L346 468L347 467L348 466L349 465L350 464L351 463L352 462L353 461L354 460L355 459L356 458L357 457L358 456L359 455L360 455L361 454L362 453L363 452L364 451L365 450L366 449L367 449L368 448L369 447L370 446L371 445L372 444L373 444L374 443L375 442L376 441L377 441L378 440L379 439L380 438L381 437L382 437L383 436L384 436L385 435L386 434L387 434L388 433L389 433L390 432L391 431L392 431L393 430L394 429L395 429L396 428L397 427L398 427L399 426L400 426L401 425L402 425L403 424L404 424L405 423L406 423L407 422L408 422L409 421L410 421L411 420L412 419L413 419L414 419L415 418L416 418L417 417L418 417L419 416L420 416L421 415L422 415L423 415L424 414L425 414L426 413L427 413L428 413L429 413L430 412L431 412L432 411L433 411L434 410L435 410L436 410L437 409L438 409L439 409L440 408L441 408L442 408L443 408L444 407L445 407L446 407L447 407L448 406L449 406L450 405L451 405L452 405L453 405L454 404L455 404L456 404L457 404L458 404L459 403L460 403L461 403L462 403L463 402L464 402L465 402L466 402L467 401L468 401L469 401L470 401L471 401L472 401L473 401L474 401L475 400L476 400L477 400L478 400L479 399L480 399L481 399L482 399L483 399L484 399L485 399L486 399L487 399L488 399L489 398L490 398L491 398L492 398L493 398L494 398L495 398L496 398L497 398L498 398L499 398L500 397L501 397L502 397L503 397L504 397L505 397L506 397L507 397L508 397L509 397L510 397L511 397L512 397L513 397L514 397L515 396L516 396L517 396L518 396L519 396L520 396L521 396L522 396L523 396L524 396L525 396L526 396L527 397L528 397L529 397L530 397L531 397L532 397L533 397L534 397L535 397L536 397L537 397L538 397L539 397L540 397L541 397L542 397L543 397L544 398L545 398L546 398L547 398L548 398L549 398L550 398L551 398L552 398L553 398L554 398L555 398L556 399L557 399L558 399L559 399L560 399L561 399L562 399L563 399L564 399L565 400L566 400L567 400L568 400L569 400L570 400L571 400L572 401L573 401L574 401L575 401L576 402L577 402L578 402L579 402L580 402L581 402L582 402L583 402L584 403L585 403L586 403L587 403L588 404L589 404L590 404L591 405L592 405L593 405L594 405L595 405L596 405L597 406L598 406L599 406L600 406L601 407L602 407L603 407L604 408L605 408L606 408L607 409L608 409L609 409L610 410L611 410L612 410L613 410L614 411L615 411L616 411L617 412L618 412L619 412L620 412L621 413L622 413L623 414L624 414L625 415L626 415L627 416L628 416L629 416L630 417L631 417L632 417L633 418L634 418L635 418L636 419L637 419L638 420L639 420L640 421L641 421L642 422L643 422L644 423L645 423L646 424L647 424L648 425L649 425L650 426L651 427L652 427L653 428L654 428L655 428L656 429L657 430L658 430L659 431L660 431L661 432L662 432L663 433L664 434L665 434L666 435L667 436L668 436L669 437L670 437L671 438L672 439L673 440L674 440L675 441L676 442L677 442L678 443L679 444L680 445L681 445L682 446L683 447L684 448L685 449L686 450L687 451L688 451L689 452L690 453L691 453L692 454L693 455L694 456L695 457L696 458L696 459L697 460L698 460L699 461L700 462L701 463L702 464L703 465L704 466L705 467L706 468L707 469L708 470L709 471L710 472L711 473L712 474L713 475L713 476L714 477L715 478L716 479L717 480L717 481L718 482L719 483L720 484L720 485L721 486L722 487L723 488L723 489L724 490L725 491L725 492L726 493L727 494L727 495L728 496L729 497L730 498L730 499L731 500L732 501L732 502L733 503L733 504L734 505L735 506L735 507L736 508L736 509L737 510L737 511L738 512L739 513L739 514L740 515L741 516L741 517L742 518L742 519L743 520L743 521L744 522L744 523L745 524L745 525L746 526L746 527L746 528L747 529L747 530L748 531L748 532L749 533L749 534L750 535L750 536L750 537L751 538L751 539L752 540L752 541L753 542L753 543L754 544L754 545L755 546L755 547L755 548L756 549L756 550L756 551L757 552L757 553L757 554L758 555L758 556L758 557L759 558L759 559L760 560L760 561L760 562L760 563L761 564L761 565L762 566L762 567L762 568L763 569L763 570L763 571L764 572L764 573L764 574L765 575L765 576L765 577L765 578L765 579L766 580L766 581L766 582L766 583L767 584L767 585L767 586L767 587L768 588L768 589L768 590L769 591L769 592L769 593L770 594L770 595L770 596L770 597L770 598L771 599L771 600L771 601L771 602L771 603L771 604L772 605L772 606L772 607L772 608L772 609L773 610L773 611L773 612L773 613L774 614L774 615L774 616L774 617L774 618L775 619L775 620L775 621L775 622L775 623L775 624L775 625L775 626L775 627L776 628L776 629L776 630L776 631L776 632L776 633L777 634L777 635L777 636L777 637L777 638L777 639L777 640L777 641L778 642L778 643L778 644L778 645L778 646L778 647L778 648L778 649L778 650L778 651L778 652L779 653L779 654L779 655L779 656L779 657L779 658L779 659L779 660L779 661L779 662L779 663L779 664L779 665L779 666L779 667L779 668L780 669L780 670L780 671L780 672L780 673L780 674L780 675L780 676L780 677L780 678L780 679L780 680L780 681L780 682L780 683L780 684L780 685L780 686L780 687L780 688L780 689L780 690L781 691L781 692L781 693L781 694L781 695L781 696L781 697L780 698L780 699L780 700L780 701L780 702L780 703L780 704L780 705L780 706L780 707L780 708L780 709L780 710L780 711L780 712L780 713L779 714L779 715L779 716L779 717L779 718L779 719L779 720L779 721L779 722L779 723L779 724L779 725L778 726L778 727L778 728L778 729L778 730L778 731L778 732L778 733L778 734L778 735L777 736L777 737L777 738L777 739L777 740L777 741L777 742L777 743L777 744L777 745L776 746L776 747L776 748L776 749L775 750L775 751L775 752L775 753L775 754L775 755L775 756L774 757L774 758L774 759L774 760L773 761L773 762L773 763L773 764L772 765L772 766L772 767L771 768L771 769L771 770L771 771L770 772L770 773L770 774L770 775L769 776L769 777L769 778L769 779L768 780L768 781L768 782L768 783L767 784L767 785L767 786L766 787L766 788L766 789L765 790L765 791L765 792L764 793L764 794L764 795L763 796L763 797L763 798L762 799L762 800L762 801L761 802L761 803L760 804L760 805L760 806L759 807L759 808L759 809L759 810L758 811L758 812L757 813L757 814L757 815L756 816L756 817L755 818L755 819L755 820L754 821L754 822L753 823L753 824L752 825L752 826L751 827L751 828L750 829L750 830L750 831L749 832L749 833L748 834L748 835L747 836L747 837L746 838L746 839L745 840L745 841L744 842L744 843L744 844L743 845L743 846L742 847L742 848L741 849L741 850L740 851L740 852L739 853L738 854L738 855L737 856L737 857L736 858L735 859L735 860L734 861L734 862L733 863L732 864L732 865L731 866L731 867L730 868L729 869L729 870L728 871L728 872L727 873L726 874L726 875L725 876L724 877L723 878L723 879L722 880L721 881L721 882L720 883L719 884L719 885L718 886L717 887L716 888L716 889L715 890L714 891L714 892L713 893L712 894L711 895L710 896L710 897L709 898L708 899L707 900L706 901L706 902L705 903L704 904L703 905L702 906L701 907L700 908L699 909L698 910L697 911L696 912L695 913L695 914L694 915L693 916L692 916L691 917L690 918L689 919L688 920L687 921L686 922L685 923L684 924L683 925L682 926L681 926L680 927L679 928L678 929L677 930L676 930L675 931L674 932L673 933L672 933L671 934L670 935L669 936L668 936L667 937L666 938L665 938L664 939L663 940L662 940L661 941L660 942L659 943L658 943L657 944L656 944L655 945L654 945L653 946L652 947L651 947L650 948L649 949L648 949L647 950L646 950L645 951L644 951L643 952L642 952L641 953L640 953L639 954L638 954L637 954L636 955L635 956L634 956L633 956L632 957L631 957L630 958L629 958L628 959L627 959L626 960L625 960L624 960L623 961L622 961L621 961L620 962L619 962L618 962L617 963L616 963L615 963L614 964L613 964L612 964L611 965L610 965L609 966L608 966L607 966L606 966L605 966L604 967L603 967L602 967L601 967L600 968L599 968L598 968L597 969L596 969L595 969L594 969L593 969L592 970L591 970L590 970L589 970L588 970L587 970L586 971L585 971L584 971L583 971L582 972L581 972L580 972L579 972L578 972L577 972L576 972L575 972L574 973L573 973L572 973L571 973L570 973L569 973L568 973L567 973L566 973L565 973L564 973L563 974L562 974L561 974L560 974L559 974L558 974L557 974L556 974L555 974L554 974L553 974L552 974L551 975L550 975L549 975L548 975L547 975L546 975L545 975L544 975L543 975L542 975L541 975L540 975L539 975L538 975L537 975L536 975L535 975L534 975L533 975L532 975L531 975L530 975L529 975L528 975L527 975L526 975L525 975L524 975L523 975L522 975L521 975L520 975L519 975L518 975L517 975L516 975L515 975L514 975L513 975L512 974L511 974L510 974L509 974L508 974L507 974L506 974L505 974L504 974L503 974L502 974L501 974L500 974L499 974L498 974L497 973L496 973L495 973L494 973L493 973L492 973L491 973L490 973L489 973L488 973L487 973L486 972L485 972L484 972L483 972L482 972L481 972L480 972L479 971L478 971L477 971L476 971L475 971L474 971L473 970L472 970L471 970L470 970L469 970L468 970L467 970L466 970L465 970L464 969L463 969L462 969L461 969L460 968L459 968L458 968L457 968L456 968L455 967L454 967L453 967L452 967L451 967L450 967L449 966L448 966L447 966L446 966L445 965L444 965L443 965L442 964L441 964L440 964L439 964L438 963L437 963L436 963L435 963L434 962L433 962L432 962L431 962L430 962L429 961L428 961L427 961L426 960L425 960L424 960L423 959L422 959L421 958L420 958L419 958L418 958L417 957L416 957L415 956L414 956L413 956L412 955L411 955L410 955L409 955L408 954L407 954L406 953L405 953L404 953L403 952L402 952L401 951L400 951L399 950L398 950L397 949L396 949L395 948L394 948L393 948L392 947L391 947L390 946L389 946L388 945L387 945L386 944L385 944L384 943L383 943L382 943L381 942L380 941L379 941L378 940L377 940L376 939L375 938L374 938L373 937L372 936L371 936L370 935L369 935L368 934L367 933L366 932L365 932L364 932L363 931L362 930L361 930L360 929L359 928L358 927L357 927L356 926L355 925L354 925L353 924L352 923L351 923L350 922L349 921L348 920L347 919L346 918L345 917L344 916L343 916L342 915L341 914L340 913L339 912L338 911L337 910L336 909L335 908L334 907L333 906L332 905L331 904L330 903L329 902L328 901L327 900L326 899L325 898L324 897L323 896L322 895L322 894L321 893L320 892L319 891L318 890L317 889L316 888L316 887L315 886L314 885L313 884L312 883L312 882L311 881L310 880L309 879L309 878L308 877L307 876L307 875L306 874L305 873L305 872L304 871L304 870L303 869L302 868L302 867L301 866L300 865L300 864L299 863L299 862L298 861L298 860L297 859L297 858L296 857L296 856L295 855L295 854L294 853L293 852L293 851L292 850L292 849L291 848L291 847L290 846L290 845L289 844L289 843L288 842L288 841L288 840L287 839L287 838L286 837L286 836L285 835L285 834L285 833L284 832L284 831L283 830L283 829L283 828L282 827L282 826L281 825L281 824L281 823L280 822L280 821L279 820L279 819L279 818L278 817L278 816L277 815L277 814L277 813L276 812L276 811L276 810L275 809L275 808L275 807L274 806L274 805L274 804L274 803L273 802L273 801L273 800L273 799L272 798L272 797L271 796L271 795L271 794L270 793L270 792L270 791L270 790L270 789L269 788L269 787L269 786L269 785L269 784L268 783L268 782L268 781L267 780L267 779L267 778L267 777L266 776L266 775L266 774L266 773L266 772L266 771L266 770L265 769L265 768L265 767L265 766L265 765L265 764L264 763L264 762L264 761L264 760L263 759L263 758L263 757L263 756L263 755L262 754L262 753L262 752L262 751L262 750L262 749L262 748L261 747L261 746L261 745L261 744L261 743L261 742L261 741L261 740L260 739L260 738L260 737L260 736L260 735L260 734L260 733L260 732L260 731L259 730L259 729L259 728L259 727L259 726L259 725L259 724L259 723L258 722L258 721L258 720L258 719L258 718L258 717L258 716L258 715L257 714L257 713L257 712L257 711L257 710L257 709L257 708L256 707L256 706L256 705L256 704L256 703L256 702L256 701L256 700L256 699L255 698L255 697L255 696L255 695L255 694L255 693L255 692L255 691L254 690L254 689L254 688L254 687L254 686L254 685L254 684L254 683L254 682L254 681L254 680L254 679L254 678L254 677L254 676L254 675L254 674L254 673L253 672L253 671L253 670L253 669L253 668L253 667L253 666L253 665L253 664L253 663L253 662L253 661L253 660L253 659L253 658L253 657L253 656L252 655L252 654L252 653L252 652L252 651L252 650L252 649L252 648L252 647L252 646L252 645L252 644L252 643L252 642L252 641L252 640L252 639L252 638L251 637L251 636L251 635L251 634L251 633L251 632L252 631L252 630L252 629L252 628L252 627L252 626L252 625L252 624L252 623L252 622L252 621L253 620L253 619L253 618L253 617L253 616L253 615L253 614L253 613L253 612L253 611L254 610L254 609L254 608L254 607L254 606L254 605L254 604L254 603L255 602L255 601L255 600L255 599L255 598L255 597L255 596L255 595L255 594L256 593L256 592L256 591L256 590L256 589L256 588L256 587L257 586L257 585L257 584L257 583L257 582L257 581L257 580L257 579L258 578L258 577L258 576L258 575L258 574L258 573L258 572L259 571L259 570L259 569L259 568L259 567L259 566L260 565L260 564L260 563L260 562L260 561L260 560L260 559L261 558L261 557L260 556L260 555L261 554L261 553L261 552L261 551L261 550L261 549L262 548L262 547L262 546L262 545L262 544L262 543L263 542L263 541"/>
</g>
</svg>