<?xml version="1.0" encoding="UTF-8"?>
<svg xmlns="http://www.w3.org/2000/svg" width="1024" height="1024" viewBox="0 0 1024 1024">
<g fill="none" stroke="#000000" stroke-width="65.1" stroke-linecap="round" stroke-linejoin="round">
<path d="M263.0 817.0L263.6 818.9L264.7 822.6L266.4 828.2L268.6 835.8L270.8 842.3L272.9 847.9L275.0 852.6L277.0 856.4L279.2 860.2L281.8 864.2L284.5 868.4L287.5 872.6L291.4 877.5L296.1 883.0L301.8 889.1L308.2 895.9L316.1 903.1L325.4 910.7L336.0 918.8L348.0 927.2L359.4 934.8L370.1 941.2L380.2 946.8L389.8 951.2L399.4 955.4L409.3 959.3L419.4 962.9L429.6 966.1L441.5 969.1L455.0 971.7L470.1 974.0L486.9 976.0L503.4 977.1L519.6 977.2L535.6 976.4L551.4 974.6L565.3 972.6L577.4 970.4L587.8 967.9L596.2 965.1L604.4 962.2L612.3 959.1L619.9 955.8L627.1 952.2L635.4 947.6L644.6 941.7L654.9 934.6L666.1 926.4L677.1 917.3L687.9 907.4L698.4 896.8L708.6 885.2L717.2 875.1L724.1 866.4L729.2 859.0L732.8 853.0L736.0 846.9L739.0 840.8L741.8 834.6L744.2 828.4L746.8 819.4L749.4 807.8L752.1 793.5L754.9 776.5L756.7 759.6L757.6 742.7L757.5 725.9L756.5 709.1L754.8 693.5L752.2 679.0L749.0 665.6L745.0 653.4L740.2 641.8L734.8 630.8L728.5 620.4L721.5 610.6L714.6 601.9L707.9 594.1L701.2 587.4L694.8 581.6L687.4 575.8L679.3 569.9L670.4 564.0L660.6 558.0L650.1 550.9L638.7 542.8L626.5 533.6L613.5 523.4L603.8 515.7L597.2 510.6L594.0 508.0"/>
<path d="M594.0 508.0L597.2 505.2L603.8 499.8L613.5 491.5L626.5 480.5L638.2 470.9L648.8 462.6L658.0 455.8L666.0 450.2L673.3 444.8L679.9 439.4L685.9 434.1L691.1 428.9L696.4 422.9L701.8 416.3L707.2 409.0L712.8 401.0L717.9 392.1L722.8 382.2L727.4 371.4L731.6 359.6L735.2 347.1L738.1 333.9L740.2 319.9L741.8 305.1L742.3 289.4L741.9 272.6L740.6 254.9L738.4 236.1L735.9 219.8L733.3 205.8L730.5 194.1L727.5 184.9L724.4 176.2L721.3 168.2L718.1 160.9L714.9 154.1L710.9 146.9L706.1 139.3L700.6 131.2L694.4 122.8L687.2 114.3L679.1 105.9L670.0 97.6L660.0 89.4L650.7 82.2L642.1 76.2L634.1 71.4L626.9 67.6L619.8 64.2L612.9 61.2L606.2 58.6L599.8 56.4L591.0 54.1L580.0 51.9L566.8 49.6L551.2 47.4L536.1 45.9L521.2 45.1L506.6 45.1L492.4 45.9L479.6 46.9L468.2 48.1L458.2 49.6L449.8 51.4L440.6 53.7L430.9 56.6L420.5 60.0L409.5 64.0L398.3 68.8L386.9 74.2L375.4 80.5L363.6 87.5L352.4 95.1L341.8 103.2L331.8 111.9L322.2 121.1L314.2 129.4L307.8 136.8L302.8 143.2L299.2 148.8L295.9 154.5L292.8 160.5L289.9 166.8L287.1 173.2L285.1 178.1L283.7 181.4L283.0 183.0"/>
<path d="M594.0 508.0L498.0 507.6"/>
</g>
</svg>