<?xml version="1.0" encoding="UTF-8"?>
<svg xmlns="http://www.w3.org/2000/svg" width="1024" height="1024" viewBox="0 0 1024 1024">
<g fill="none" stroke="#000000" stroke-width="64.8" stroke-linecap="round" stroke-linejoin="round">
<path d="M762.0 174.0L759.8 171.1L755.2 165.4L748.5 156.8L739.5 145.2L730.0 134.2L720.0 123.8L709.5 113.8L698.5 104.2L687.8 95.7L677.4 88.1L667.4 81.4L657.6 75.6L647.2 70.3L636.1 65.4L624.2 61.0L611.8 57.0L599.8 53.8L588.2 51.2L577.2 49.5L566.8 48.5L555.4 48.2L543.3 48.6L530.4 49.6L516.6 51.4L503.5 53.7L491.0 56.6L479.1 60.0L467.9 64.0L456.0 69.0L443.5 75.0L430.4 82.0L416.6 90.0L404.4 97.5L393.8 104.5L384.8 111.0L377.2 117.0L369.0 124.4L360.0 133.3L350.2 143.6L339.8 155.4L330.1 167.4L321.2 179.6L313.1 192.1L305.9 204.9L299.5 216.8L294.0 227.9L289.4 238.2L285.6 247.8L281.9 258.4L278.1 270.3L274.4 283.4L270.6 297.6L267.0 314.8L263.5 334.9L260.1 358.0L256.9 384.0L254.3 406.9L252.4 426.6L251.2 443.2L250.8 456.8L251.2 470.9L252.6 485.6L254.9 501.0L258.1 517.0L260.6 529.0L262.2 537.0L263.0 541.0"/>
<path d="M263.4 540.6L263.6 540.4L263.9 540.2L264.1 540.1L264.4 540.0L264.6 540.0L264.9 539.9L265.1 539.8L265.4 539.6L265.6 539.4L265.9 539.2L266.1 539.1L266.4 539.0L266.6 539.0L266.9 538.9L267.1 538.8L267.4 538.6L267.6 538.4L267.9 538.2L268.1 538.1L268.4 538.0L268.6 538.0L268.9 537.9L269.1 537.8L269.4 537.6L269.6 537.4L269.9 537.2L270.1 537.1L270.4 537.0L270.6 537.0L270.9 536.9L271.1 536.8L271.4 536.6L271.6 536.4L271.9 536.2L272.1 536.1L272.4 536.0L272.6 536.0L272.9 535.9L273.1 535.8L273.4 535.6L273.6 535.4L273.9 535.2L274.1 535.1L274.4 535.0L274.6 535.0L274.9 534.9L275.1 534.8L275.4 534.6L275.6 534.4L275.9 534.1L276.1 533.9L276.4 533.6L276.6 533.4L276.9 533.2L277.1 533.1L277.4 533.0L277.6 533.0L277.9 532.9L278.1 532.8L278.4 532.6L278.6 532.4L278.9 532.2L279.1 532.1L279.4 532.0L279.6 532.0L279.9 531.9L280.1 531.8L280.4 531.6L280.6 531.4L280.9 531.2L281.1 531.1L281.4 531.0L281.6 531.0L281.9 530.9L282.1 530.8L282.4 530.6L282.6 530.4L282.9 530.2L283.1 530.1L283.4 530.0L283.6 530.0L283.9 529.9L284.1 529.8L284.4 529.6L284.6 529.4L284.9 529.2L285.1 529.1L285.4 529.0L285.6 529.0L285.9 528.9L286.1 528.8L286.4 528.6L286.6 528.4L286.9 528.2L287.1 528.1L287.4 528.0L287.6 528.0L287.9 527.9L288.1 527.8L288.4 527.6L288.6 527.4L288.9 527.2L289.1 527.1L289.4 527.0L289.6 527.0L289.9 526.9L290.1 526.8L290.4 526.6L290.6 526.4L290.9 526.2L291.1 526.1L291.4 526.0L291.6 526.0L291.9 525.9L292.1 525.8L292.4 525.6L292.6 525.4L292.9 525.2L293.1 525.1L293.4 525.0L293.6 525.0L293.9 525.0L294.1 525.0L294.4 525.0L294.6 525.0L294.9 524.9L295.1 524.8L295.4 524.6L295.6 524.4L295.9 524.2L296.1 524.1L296.4 524.0L296.6 524.0L296.9 523.9L297.1 523.8L297.4 523.6L297.6 523.4L297.9 523.2L298.1 523.1L298.4 523.0L298.6 523.0L298.9 522.9L299.1 522.8L299.4 522.6L299.6 522.4L299.9 522.2L300.1 522.1L300.4 522.0L300.6 522.0L300.9 521.9L301.1 521.8L301.4 521.6L301.6 521.4L301.9 521.2L302.1 521.1L302.4 521.0L302.6 521.0L302.9 520.9L303.1 520.8L303.4 520.6L303.6 520.4L303.9 520.2L304.1 520.1L304.4 520.0L304.6 520.0L304.9 519.9L305.1 519.8L305.4 519.6L305.6 519.4L305.9 519.1L306.1 518.9L306.4 518.6L306.6 518.4L306.8 518.1L306.9 517.9L307.0 517.6L307.0 517.4L307.1 517.1L307.2 516.9L307.4 516.6L307.6 516.4L307.9 516.1L308.1 515.9L308.4 515.6L308.6 515.4L308.8 515.1L308.9 514.9L309.0 514.6L309.0 514.4L309.1 514.1L309.2 513.9L309.4 513.6L309.6 513.4L309.9 513.1L310.1 512.9L310.4 512.6L310.6 512.4L310.8 512.1L310.9 511.9L311.0 511.6L311.0 511.4L311.1 511.1L311.2 510.9L311.4 510.6L311.6 510.4L311.8 510.1L311.9 509.9L312.0 509.6L312.0 509.4L312.1 509.1L312.2 508.9L312.4 508.6L312.6 508.4L312.9 508.1L313.1 507.9L313.4 507.6L313.6 507.4L313.8 507.1L313.9 506.9L314.0 506.6L314.0 506.4L314.1 506.1L314.2 505.9L314.4 505.6L314.6 505.4L314.9 505.1L315.1 504.9L315.4 504.6L315.6 504.4L315.8 504.1L315.9 503.9L316.0 503.6L316.0 503.4L316.1 503.1L316.2 502.9L316.4 502.6L316.6 502.4L316.9 502.1L317.1 501.9L317.4 501.6L317.6 501.4L317.9 501.1L318.1 500.9L318.4 500.6L318.6 500.4L318.8 500.1L318.9 499.9L319.0 499.6L319.0 499.4L319.1 499.1L319.2 498.9L319.4 498.6L319.6 498.4L319.9 498.1L320.1 497.9L320.4 497.6L320.6 497.4L320.9 497.1L321.1 496.9L321.4 496.6L321.6 496.4L321.8 496.1L321.9 495.9L322.0 495.6L322.0 495.4L322.1 495.1L322.2 494.9L322.4 494.6L322.6 494.4L322.9 494.1L323.1 493.9L323.4 493.6L323.6 493.4L323.9 493.1L324.1 492.9L324.4 492.6L324.6 492.4L324.9 492.1L325.1 491.9L325.4 491.6L325.6 491.4L325.8 491.1L325.9 490.9L326.0 490.6L326.0 490.4L326.1 490.1L326.2 489.9L326.4 489.6L326.6 489.4L326.9 489.1L327.1 488.9L327.4 488.6L327.6 488.4L327.9 488.1L328.1 487.9L328.4 487.6L328.6 487.4L328.9 487.1L329.1 486.9L329.4 486.6L329.6 486.4L329.9 486.1L330.1 485.9L330.4 485.6L330.6 485.4L330.8 485.1L330.9 484.9L331.0 484.6L331.0 484.4L331.1 484.1L331.2 483.9L331.4 483.6L331.6 483.4L331.9 483.1L332.1 482.9L332.4 482.6L332.6 482.4L332.9 482.1L333.1 481.9L333.4 481.6L333.6 481.4L333.9 481.1L334.1 480.9L334.4 480.6L334.6 480.4L334.9 480.1L335.1 479.9L335.4 479.6L335.6 479.4L335.9 479.1L336.1 478.9L336.4 478.6L336.6 478.4L336.9 478.1L337.1 477.9L337.4 477.6L337.6 477.4L337.8 477.1L337.9 476.9L338.0 476.6L338.0 476.4L338.1 476.1L338.2 475.9L338.4 475.6L338.6 475.4L338.9 475.1L339.1 474.9L339.4 474.6L339.6 474.4L339.9 474.1L340.1 473.9L340.4 473.6L340.6 473.4L340.9 473.1L341.1 472.9L341.4 472.6L341.6 472.4L341.9 472.1L342.1 471.9L342.4 471.6L342.6 471.4L342.9 471.1L343.1 470.9L343.4 470.6L343.6 470.4L343.9 470.1L344.1 469.9L344.4 469.6L344.6 469.4L344.9 469.1L345.1 468.9L345.4 468.6L345.6 468.4L345.9 468.1L346.1 467.9L346.4 467.6L346.6 467.4L346.9 467.1L347.1 466.9L347.4 466.6L347.6 466.4L347.9 466.1L348.1 465.9L348.4 465.6L348.6 465.4L348.9 465.1L349.1 464.9L349.4 464.6L349.6 464.4L349.9 464.1L350.1 463.9L350.4 463.6L350.6 463.4L350.9 463.1L351.1 462.9L351.4 462.6L351.6 462.4L351.9 462.1L352.1 461.9L352.4 461.6L352.6 461.4L352.9 461.1L353.1 460.9L353.4 460.6L353.6 460.4L353.9 460.1L354.1 459.9L354.4 459.6L354.6 459.4L354.9 459.1L355.1 458.9L355.4 458.6L355.6 458.4L355.9 458.1L356.1 457.9L356.4 457.6L356.6 457.4L356.9 457.1L357.1 456.9L357.4 456.6L357.6 456.4L357.9 456.1L358.1 455.9L358.4 455.6L358.6 455.4L358.9 455.2L359.1 455.1L359.4 455.0L359.6 455.0L359.9 454.9L360.1 454.8L360.4 454.6L360.6 454.4L360.9 454.1L361.1 453.9L361.4 453.6L361.6 453.4L361.9 453.1L362.1 452.9L362.4 452.6L362.6 452.4L362.9 452.1L363.1 451.9L363.4 451.6L363.6 451.4L363.9 451.1L364.1 450.9L364.4 450.6L364.6 450.4L364.9 450.1L365.1 449.9L365.4 449.6L365.6 449.4L365.9 449.2L366.1 449.1L366.4 449.0L366.6 449.0L366.9 448.9L367.1 448.8L367.4 448.6L367.6 448.4L367.9 448.1L368.1 447.9L368.4 447.6L368.6 447.4L368.9 447.1L369.1 446.9L369.4 446.6L369.6 446.4L369.9 446.1L370.1 445.9L370.4 445.6L370.6 445.4L370.9 445.1L371.1 444.9L371.4 444.6L371.6 444.4L371.9 444.2L372.1 444.1L372.4 444.0L372.6 444.0L372.9 443.9L373.1 443.8L373.4 443.6L373.6 443.4L373.9 443.1L374.1 442.9L374.4 442.6L374.6 442.4L374.9 442.1L375.1 441.9L375.4 441.6L375.6 441.4L375.9 441.2L376.1 441.1L376.4 441.0L376.6 441.0L376.9 440.9L377.1 440.8L377.4 440.6L377.6 440.4L377.9 440.1L378.1 439.9L378.4 439.6L378.6 439.4L378.9 439.1L379.1 438.9L379.4 438.6L379.6 438.4L379.9 438.1L380.1 437.9L380.4 437.6L380.6 437.4L380.9 437.2L381.1 437.1L381.4 437.0L381.6 437.0L381.9 436.9L382.1 436.8L382.4 436.6L382.6 436.4L382.9 436.2L383.1 436.1L383.4 436.0L383.6 436.0L383.9 435.9L384.1 435.8L384.4 435.6L384.6 435.4L384.9 435.1L385.1 434.9L385.4 434.6L385.6 434.4L385.9 434.2L386.1 434.1L386.4 434.0L386.6 434.0L386.9 433.9L387.1 433.8L387.4 433.6L387.6 433.4L387.9 433.2L388.1 433.1L388.4 433.0L388.6 433.0L388.9 432.9L389.1 432.8L389.4 432.6L389.6 432.4L389.9 432.1L390.1 431.9L390.4 431.6L390.6 431.4L390.9 431.2L391.1 431.1L391.4 431.0L391.6 431.0L391.9 430.9L392.1 430.8L392.4 430.6L392.6 430.4L392.9 430.1L393.1 429.9L393.4 429.6L393.6 429.4L393.9 429.2L394.1 429.1L394.4 429.0L394.6 429.0L394.9 428.9L395.1 428.8L395.4 428.6L395.6 428.4L395.9 428.1L396.1 427.9L396.4 427.6L396.6 427.4L396.9 427.2L397.1 427.1L397.4 427.0L397.6 427.0L397.9 426.9L398.1 426.8L398.4 426.6L398.6 426.4L398.9 426.2L399.1 426.1L399.4 426.0L399.6 426.0L399.9 425.9L400.1 425.8L400.4 425.6L400.6 425.4L400.9 425.2L401.1 425.1L401.4 425.0L401.6 425.0L401.9 424.9L402.1 424.8L402.4 424.6L402.6 424.4L402.9 424.2L403.1 424.1L403.4 424.0L403.6 424.0L403.9 423.9L404.1 423.8L404.4 423.6L404.6 423.4L404.9 423.2L405.1 423.1L405.4 423.0L405.6 423.0L405.9 422.9L406.1 422.8L406.4 422.6L406.6 422.4L406.9 422.2L407.1 422.1L407.4 422.0L407.6 422.0L407.9 421.9L408.1 421.8L408.4 421.6L408.6 421.4L408.9 421.2L409.1 421.1L409.4 421.0L409.6 421.0L409.9 420.9L410.1 420.8L410.4 420.6L410.6 420.4L410.9 420.1L411.1 419.9L411.4 419.6L411.6 419.4L411.9 419.2L412.1 419.1L412.4 419.0L412.6 419.0L412.9 419.0L413.1 419.0L413.4 419.0L413.6 419.0L413.9 418.9L414.1 418.8L414.4 418.6L414.6 418.4L414.9 418.2L415.1 418.1L415.4 418.0L415.6 418.0L415.9 417.9L416.1 417.8L416.4 417.6L416.6 417.4L416.9 417.2L417.1 417.1L417.4 417.0L417.6 417.0L417.9 416.9L418.1 416.8L418.4 416.6L418.6 416.4L418.9 416.2L419.1 416.1L419.4 416.0L419.6 416.0L419.9 415.9L420.1 415.8L420.4 415.6L420.6 415.4L420.9 415.2L421.1 415.1L421.4 415.0L421.6 415.0L421.9 415.0L422.1 415.0L422.4 415.0L422.6 415.0L422.9 414.9L423.1 414.8L423.4 414.6L423.6 414.4L423.9 414.2L424.1 414.1L424.4 414.0L424.6 414.0L424.9 413.9L425.1 413.8L425.4 413.6L425.6 413.4L425.9 413.2L426.1 413.1L426.4 413.0L426.6 413.0L426.9 413.0L427.1 413.0L427.4 413.0L427.6 413.0L427.9 413.0L428.1 413.0L428.4 413.0L428.6 413.0L428.9 412.9L429.1 412.8L429.4 412.6L429.6 412.4L429.9 412.2L430.1 412.1L430.4 412.0L430.6 412.0L430.9 411.9L431.1 411.8L431.4 411.6L431.6 411.4L431.9 411.2L432.1 411.1L432.4 411.0L432.6 411.0L432.9 410.9L433.1 410.8L433.4 410.6L433.6 410.4L433.9 410.2L434.1 410.1L434.4 410.0L434.6 410.0L434.9 410.0L435.1 410.0L435.4 410.0L435.6 410.0L435.9 409.9L436.1 409.8L436.4 409.6L436.6 409.4L436.9 409.2L437.1 409.1L437.4 409.0L437.6 409.0L437.9 409.0L438.1 409.0L438.4 409.0L438.6 409.0L438.9 408.9L439.1 408.8L439.4 408.6L439.6 408.4L439.9 408.2L440.1 408.1L440.4 408.0L440.6 408.0L440.9 408.0L441.1 408.0L441.4 408.0L441.6 408.0L441.9 408.0L442.1 408.0L442.4 408.0L442.6 408.0L442.9 407.9L443.1 407.8L443.4 407.6L443.6 407.4L443.9 407.2L444.1 407.1L444.4 407.0L444.6 407.0L444.9 407.0L445.1 407.0L445.4 407.0L445.6 407.0L445.9 407.0L446.1 407.0L446.4 407.0L446.6 407.0L446.9 406.9L447.1 406.8L447.4 406.6L447.6 406.4L447.9 406.2L448.1 406.1L448.4 406.0L448.6 406.0L448.9 405.9L449.1 405.8L449.4 405.6L449.6 405.4L449.9 405.2L450.1 405.1L450.4 405.0L450.6 405.0L450.9 405.0L451.1 405.0L451.4 405.0L451.6 405.0L451.9 405.0L452.1 405.0L452.4 405.0L452.6 405.0L452.9 404.9L453.1 404.8L453.4 404.6L453.6 404.4L453.9 404.2L454.1 404.1L454.4 404.0L454.6 404.0L454.9 404.0L455.1 404.0L455.4 404.0L455.6 404.0L455.9 404.0L456.1 404.0L456.4 404.0L456.6 404.0L456.9 404.0L457.1 404.0L457.4 404.0L457.6 404.0L457.9 403.9L458.1 403.8L458.4 403.6L458.6 403.4L458.9 403.2L459.1 403.1L459.4 403.0L459.6 403.0L459.9 403.0L460.1 403.0L460.4 403.0L460.6 403.0L460.9 403.0L461.1 403.0L461.4 403.0L461.6 403.0L461.9 402.9L462.1 402.8L462.4 402.6L462.6 402.4L462.9 402.2L463.1 402.1L463.4 402.0L463.6 402.0L463.9 402.0L464.1 402.0L464.4 402.0L464.6 402.0L464.9 402.0L465.1 402.0L465.4 402.0L465.6 402.0L465.9 401.9L466.1 401.8L466.4 401.6L466.6 401.4L466.9 401.2L467.1 401.1L467.4 401.0L467.6 401.0L467.9 401.0L468.1 401.0L468.4 401.0L468.6 401.0L468.9 401.0L469.1 401.0L469.4 401.0L469.6 401.0L469.9 401.0L470.1 401.0L470.4 401.0L470.6 401.0L470.9 401.0L471.1 401.0L471.4 401.0L471.6 401.0L471.9 401.0L472.1 401.0L472.4 401.0L472.6 401.0L472.9 401.0L473.1 401.0L473.4 401.0L473.6 401.0L473.9 400.9L474.1 400.8L474.4 400.6L474.6 400.4L474.9 400.2L475.1 400.1L475.4 400.0L475.6 400.0L475.9 400.0L476.1 400.0L476.4 400.0L476.6 400.0L476.9 400.0L477.1 400.0L477.4 400.0L477.6 400.0L477.9 399.9L478.1 399.8L478.4 399.6L478.6 399.4L478.9 399.2L479.1 399.1L479.4 399.0L479.6 399.0L479.9 399.0L480.1 399.0L480.4 399.0L480.6 399.0L480.9 399.0L481.1 399.0L481.4 399.0L481.6 399.0L481.9 399.0L482.1 399.0L482.4 399.0L482.6 399.0L482.9 399.0L483.1 399.0L483.4 399.0L483.6 399.0L483.9 399.0L484.1 399.0L484.4 399.0L484.6 399.0L484.9 399.0L485.1 399.0L485.4 399.0L485.6 399.0L485.9 399.0L486.1 399.0L486.4 399.0L486.6 399.0L486.9 399.0L487.1 399.0L487.4 399.0L487.6 399.0L487.9 398.9L488.1 398.8L488.4 398.6L488.6 398.4L488.9 398.2L489.1 398.1L489.4 398.0L489.6 398.0L489.9 398.0L490.1 398.0L490.4 398.0L490.6 398.0L490.9 398.0L491.1 398.0L491.4 398.0L491.6 398.0L491.9 398.0L492.1 398.0L492.4 398.0L492.6 398.0L492.9 398.0L493.1 398.0L493.4 398.0L493.6 398.0L493.9 398.0L494.1 398.0L494.4 398.0L494.6 398.0L494.9 398.0L495.1 398.0L495.4 398.0L495.6 398.0L495.9 398.0L496.1 398.0L496.4 398.0L496.6 398.0L496.9 398.0L497.1 398.0L497.4 398.0L497.6 398.0L497.9 398.0L498.1 398.0L498.4 398.0L498.6 398.0L498.9 397.9L499.1 397.8L499.4 397.6L499.6 397.4L499.9 397.2L500.1 397.1L500.4 397.0L500.6 397.0L500.9 397.0L501.1 397.0L501.4 397.0L501.6 397.0L501.9 397.0L502.1 397.0L502.4 397.0L502.6 397.0L502.9 397.0L503.1 397.0L503.4 397.0L503.6 397.0L503.9 397.0L504.1 397.0L504.4 397.0L504.6 397.0L504.9 397.0L505.1 397.0L505.4 397.0L505.6 397.0L505.9 397.0L506.1 397.0L506.4 397.0L506.6 397.0L506.9 397.0L507.1 397.0L507.4 397.0L507.6 397.0L507.9 397.0L508.1 397.0L508.4 397.0L508.6 397.0L508.9 397.0L509.1 397.0L509.4 397.0L509.6 397.0L509.9 397.0L510.1 397.0L510.4 397.0L510.6 397.0L510.9 397.0L511.1 397.0L511.4 397.0L511.6 397.0L511.9 397.0L512.1 397.0L512.4 397.0L512.6 397.0L512.9 397.0L513.1 397.0L513.4 397.0L513.6 397.0L513.9 396.9L514.1 396.8L514.4 396.6L514.6 396.4L514.9 396.2L515.1 396.1L515.4 396.0L515.6 396.0L515.9 396.0L516.1 396.0L516.4 396.0L516.6 396.0L516.9 396.0L517.1 396.0L517.4 396.0L517.6 396.0L517.9 396.0L518.1 396.0L518.4 396.0L518.6 396.0L518.9 396.0L519.1 396.0L519.4 396.0L519.6 396.0L519.9 396.0L520.1 396.0L520.4 396.0L520.6 396.0L520.9 396.0L521.1 396.0L521.4 396.0L521.6 396.0L521.9 396.0L522.1 396.0L522.4 396.0L522.6 396.0L522.9 396.0L523.1 396.0L523.4 396.0L523.6 396.0L523.9 396.0L524.1 396.0L524.4 396.0L524.6 396.0L524.9 396.0L525.1 396.0L525.4 396.0L525.6 396.0L525.9 396.1L526.1 396.2L526.4 396.4L526.6 396.6L526.9 396.8L527.1 396.9L527.4 397.0L527.6 397.0L527.9 397.0L528.1 397.0L528.4 397.0L528.6 397.0L528.9 397.0L529.1 397.0L529.4 397.0L529.6 397.0L529.9 397.0L530.1 397.0L530.4 397.0L530.6 397.0L530.9 397.0L531.1 397.0L531.4 397.0L531.6 397.0L531.9 397.0L532.1 397.0L532.4 397.0L532.6 397.0L532.9 397.0L533.1 397.0L533.4 397.0L533.6 397.0L533.9 397.0L534.1 397.0L534.4 397.0L534.6 397.0L534.9 397.0L535.1 397.0L535.4 397.0L535.6 397.0L535.9 397.0L536.1 397.0L536.4 397.0L536.6 397.0L536.9 397.0L537.1 397.0L537.4 397.0L537.6 397.0L537.9 397.0L538.1 397.0L538.4 397.0L538.6 397.0L538.9 397.0L539.1 397.0L539.4 397.0L539.6 397.0L539.9 397.0L540.1 397.0L540.4 397.0L540.6 397.0L540.9 397.0L541.1 397.0L541.4 397.0L541.6 397.0L541.9 397.0L542.1 397.0L542.4 397.0L542.6 397.0L542.9 397.1L543.1 397.2L543.4 397.4L543.6 397.6L543.9 397.8L544.1 397.9L544.4 398.0L544.6 398.0L544.9 398.0L545.1 398.0L545.4 398.0L545.6 398.0L545.9 398.0L546.1 398.0L546.4 398.0L546.6 398.0L546.9 398.0L547.1 398.0L547.4 398.0L547.6 398.0L547.9 398.0L548.1 398.0L548.4 398.0L548.6 398.0L548.9 398.0L549.1 398.0L549.4 398.0L549.6 398.0L549.9 398.0L550.1 398.0L550.4 398.0L550.6 398.0L550.9 398.0L551.1 398.0L551.4 398.0L551.6 398.0L551.9 398.0L552.1 398.0L552.4 398.0L552.6 398.0L552.9 398.0L553.1 398.0L553.4 398.0L553.6 398.0L553.9 398.0L554.1 398.0L554.4 398.0L554.6 398.0L554.9 398.1L555.1 398.2L555.4 398.4L555.6 398.6L555.9 398.8L556.1 398.9L556.4 399.0L556.6 399.0L556.9 399.0L557.1 399.0L557.4 399.0L557.6 399.0L557.9 399.0L558.1 399.0L558.4 399.0L558.6 399.0L558.9 399.0L559.1 399.0L559.4 399.0L559.6 399.0L559.9 399.0L560.1 399.0L560.4 399.0L560.6 399.0L560.9 399.0L561.1 399.0L561.4 399.0L561.6 399.0L561.9 399.0L562.1 399.0L562.4 399.0L562.6 399.0L562.9 399.0L563.1 399.0L563.4 399.0L563.6 399.0L563.9 399.1L564.1 399.2L564.4 399.4L564.6 399.6L564.9 399.8L565.1 399.9L565.4 400.0L565.6 400.0L565.9 400.0L566.1 400.0L566.4 400.0L566.6 400.0L566.9 400.0L567.1 400.0L567.4 400.0L567.6 400.0L567.9 400.0L568.1 400.0L568.4 400.0L568.6 400.0L568.9 400.0L569.1 400.0L569.4 400.0L569.6 400.0L569.9 400.0L570.1 400.0L570.4 400.0L570.6 400.0L570.9 400.1L571.1 400.2L571.4 400.4L571.6 400.6L571.9 400.8L572.1 400.9L572.4 401.0L572.6 401.0L572.9 401.0L573.1 401.0L573.4 401.0L573.6 401.0L573.9 401.0L574.1 401.0L574.4 401.0L574.6 401.0L574.9 401.1L575.1 401.2L575.4 401.4L575.6 401.6L575.9 401.8L576.1 401.9L576.4 402.0L576.6 402.0L576.9 402.0L577.1 402.0L577.4 402.0L577.6 402.0L577.9 402.0L578.1 402.0L578.4 402.0L578.6 402.0L578.9 402.0L579.1 402.0L579.4 402.0L579.6 402.0L579.9 402.0L580.1 402.0L580.4 402.0L580.6 402.0L580.9 402.0L581.1 402.0L581.4 402.0L581.6 402.0L581.9 402.0L582.1 402.0L582.4 402.0L582.6 402.0L582.9 402.1L583.1 402.2L583.4 402.4L583.6 402.6L583.9 402.8L584.1 402.9L584.4 403.0L584.6 403.0L584.9 403.0L585.1 403.0L585.4 403.0L585.6 403.0L585.9 403.0L586.1 403.0L586.4 403.0L586.6 403.0L586.9 403.1L587.1 403.2L587.4 403.4L587.6 403.6L587.9 403.8L588.1 403.9L588.4 404.0L588.6 404.0L588.9 404.0L589.1 404.0L589.4 404.0L589.6 404.0L589.9 404.1L590.1 404.2L590.4 404.4L590.6 404.6L590.9 404.8L591.1 404.9L591.4 405.0L591.6 405.0L591.9 405.0L592.1 405.0L592.4 405.0L592.6 405.0L592.9 405.0L593.1 405.0L593.4 405.0L593.6 405.0L593.9 405.0L594.1 405.0L594.4 405.0L594.6 405.0L594.9 405.0L595.1 405.0L595.4 405.0L595.6 405.0L595.9 405.1L596.1 405.2L596.4 405.4L596.6 405.6L596.9 405.8L597.1 405.9L597.4 406.0L597.6 406.0L597.9 406.0L598.1 406.0L598.4 406.0L598.6 406.0L598.9 406.0L599.1 406.0L599.4 406.0L599.6 406.0L599.9 406.1L600.1 406.2L600.4 406.4L600.6 406.6L600.9 406.8L601.1 406.9L601.4 407.0L601.6 407.0L601.9 407.0L602.1 407.0L602.4 407.0L602.6 407.0L602.9 407.1L603.1 407.2L603.4 407.4L603.6 407.6L603.9 407.8L604.1 407.9L604.4 408.0L604.6 408.0L604.9 408.0L605.1 408.0L605.4 408.0L605.6 408.0L605.9 408.1L606.1 408.2L606.4 408.4L606.6 408.6L606.9 408.8L607.1 408.9L607.4 409.0L607.6 409.0L607.9 409.0L608.1 409.0L608.4 409.0L608.6 409.0L608.9 409.1L609.1 409.2L609.4 409.4L609.6 409.6L609.9 409.8L610.1 409.9L610.4 410.0L610.6 410.0L610.9 410.0L611.1 410.0L611.4 410.0L611.6 410.0L611.9 410.0L612.1 410.0L612.4 410.0L612.6 410.0L612.9 410.1L613.1 410.2L613.4 410.4L613.6 410.6L613.9 410.8L614.1 410.9L614.4 411.0L614.6 411.0L614.9 411.0L615.1 411.0L615.4 411.0L615.6 411.0L615.9 411.1L616.1 411.2L616.4 411.4L616.6 411.6L616.9 411.8L617.1 411.9L617.4 412.0L617.6 412.0L617.9 412.0L618.1 412.0L618.4 412.0L618.6 412.0L618.9 412.0L619.1 412.0L619.4 412.0L619.6 412.0L619.9 412.1L620.1 412.2L620.4 412.4L620.6 412.6L620.9 412.8L621.1 412.9L621.4 413.0L621.6 413.0L621.9 413.1L622.1 413.2L622.4 413.4L622.6 413.6L622.9 413.8L623.1 413.9L623.4 414.0L623.6 414.0L623.9 414.1L624.1 414.2L624.4 414.4L624.6 414.6L624.9 414.8L625.1 414.9L625.4 415.0L625.6 415.0L625.9 415.1L626.1 415.2L626.4 415.4L626.6 415.6L626.9 415.8L627.1 415.9L627.4 416.0L627.6 416.0L627.9 416.0L628.1 416.0L628.4 416.0L628.6 416.0L628.9 416.1L629.1 416.2L629.4 416.4L629.6 416.6L629.9 416.8L630.1 416.9L630.4 417.0L630.6 417.0L630.9 417.0L631.1 417.0L631.4 417.0L631.6 417.0L631.9 417.1L632.1 417.2L632.4 417.4L632.6 417.6L632.9 417.8L633.1 417.9L633.4 418.0L633.6 418.0L633.9 418.0L634.1 418.0L634.4 418.0L634.6 418.0L634.9 418.1L635.1 418.2L635.4 418.4L635.6 418.6L635.9 418.8L636.1 418.9L636.4 419.0L636.6 419.0L636.9 419.1L637.1 419.2L637.4 419.4L637.6 419.6L637.9 419.8L638.1 419.9L638.4 420.0L638.6 420.0L638.9 420.1L639.1 420.2L639.4 420.4L639.6 420.6L639.9 420.8L640.1 420.9L640.4 421.0L640.6 421.0L640.9 421.1L641.1 421.2L641.4 421.4L641.6 421.6L641.9 421.8L642.1 421.9L642.4 422.0L642.6 422.0L642.9 422.1L643.1 422.2L643.4 422.4L643.6 422.6L643.9 422.8L644.1 422.9L644.4 423.0L644.6 423.0L644.9 423.1L645.1 423.2L645.4 423.4L645.6 423.6L645.9 423.8L646.1 423.9L646.4 424.0L646.6 424.0L646.9 424.1L647.1 424.2L647.4 424.4L647.6 424.6L647.9 424.8L648.1 424.9L648.4 425.0L648.6 425.0L648.9 425.1L649.1 425.2L649.4 425.4L649.6 425.6L649.9 425.9L650.1 426.1L650.4 426.4L650.6 426.6L650.9 426.8L651.1 426.9L651.4 427.0L651.6 427.0L651.9 427.1L652.1 427.2L652.4 427.4L652.6 427.6L652.9 427.8L653.1 427.9L653.4 428.0L653.6 428.0L653.9 428.0L654.1 428.0L654.4 428.0L654.6 428.0L654.9 428.1L655.1 428.2L655.4 428.4L655.6 428.6L655.9 428.9L656.1 429.1L656.4 429.4L656.6 429.6L656.9 429.8L657.1 429.9L657.4 430.0L657.6 430.0L657.9 430.1L658.1 430.2L658.4 430.4L658.6 430.6L658.9 430.8L659.1 430.9L659.4 431.0L659.6 431.0L659.9 431.1L660.1 431.2L660.4 431.4L660.6 431.6L660.9 431.8L661.1 431.9L661.4 432.0L661.6 432.0L661.9 432.1L662.1 432.2L662.4 432.4L662.6 432.6L662.9 432.9L663.1 433.1L663.4 433.4L663.6 433.6L663.9 433.8L664.1 433.9L664.4 434.0L664.6 434.0L664.9 434.1L665.1 434.2L665.4 434.4L665.6 434.6L665.9 434.9L666.1 435.1L666.4 435.4L666.6 435.6L666.9 435.8L667.1 435.9L667.4 436.0L667.6 436.0L667.9 436.1L668.1 436.2L668.4 436.4L668.6 436.6L668.9 436.8L669.1 436.9L669.4 437.0L669.6 437.0L669.9 437.1L670.1 437.2L670.4 437.4L670.6 437.6L670.9 437.9L671.1 438.1L671.4 438.4L671.6 438.6L671.9 438.9L672.1 439.1L672.4 439.4L672.6 439.6L672.9 439.8L673.1 439.9L673.4 440.0L673.6 440.0L673.9 440.1L674.1 440.2L674.4 440.4L674.6 440.6L674.9 440.9L675.1 441.1L675.4 441.4L675.6 441.6L675.9 441.8L676.1 441.9L676.4 442.0L676.6 442.0L676.9 442.1L677.1 442.2L677.4 442.4L677.6 442.6L677.9 442.9L678.1 443.1L678.4 443.4L678.6 443.6L678.9 443.9L679.1 444.1L679.4 444.4L679.6 444.6L679.9 444.8L680.1 444.9L680.4 445.0L680.6 445.0L680.9 445.1L681.1 445.2L681.4 445.4L681.6 445.6L681.9 445.9L682.1 446.1L682.4 446.4L682.6 446.6L682.9 446.9L683.1 447.1L683.4 447.4L683.6 447.6L683.9 447.9L684.1 448.1L684.4 448.4L684.6 448.6L684.9 448.9L685.1 449.1L685.4 449.4L685.6 449.6L685.9 449.9L686.1 450.1L686.4 450.4L686.6 450.6L686.9 450.8L687.1 450.9L687.4 451.0L687.6 451.0L687.9 451.1L688.1 451.2L688.4 451.4L688.6 451.6L688.9 451.9L689.1 452.1L689.4 452.4L689.6 452.6L689.9 452.8L690.1 452.9L690.4 453.0L690.6 453.0L690.9 453.1L691.1 453.2L691.4 453.4L691.6 453.6L691.9 453.9L692.1 454.1L692.4 454.4L692.6 454.6L692.9 454.9L693.1 455.1L693.4 455.4L693.6 455.6L693.9 455.9L694.1 456.1L694.4 456.4L694.6 456.6L694.9 456.9L695.1 457.1L695.4 457.4L695.6 457.6L695.8 457.9L695.9 458.1L696.0 458.4L696.0 458.6L696.1 458.9L696.2 459.1L696.4 459.4L696.6 459.6L696.9 459.8L697.1 459.9L697.4 460.0L697.6 460.0L697.9 460.1L698.1 460.2L698.4 460.4L698.6 460.6L698.9 460.9L699.1 461.1L699.4 461.4L699.6 461.6L699.9 461.9L700.1 462.1L700.4 462.4L700.6 462.6L700.9 462.9L701.1 463.1L701.4 463.4L701.6 463.6L701.9 463.9L702.1 464.1L702.4 464.4L702.6 464.6L702.9 464.9L703.1 465.1L703.4 465.4L703.6 465.6L703.9 465.9L704.1 466.1L704.4 466.4L704.6 466.6L704.9 466.9L705.1 467.1L705.4 467.4L705.6 467.6L705.9 467.9L706.1 468.1L706.4 468.4L706.6 468.6L706.9 468.9L707.1 469.1L707.4 469.4L707.6 469.6L707.9 469.9L708.1 470.1L708.4 470.4L708.6 470.6L708.9 470.9L709.1 471.1L709.4 471.4L709.6 471.6L709.9 471.9L710.1 472.1L710.4 472.4L710.6 472.6L710.9 472.9L711.1 473.1L711.4 473.4L711.6 473.6L711.9 473.9L712.1 474.1L712.4 474.4L712.6 474.6L712.8 474.9L712.9 475.1L713.0 475.4L713.0 475.6L713.1 475.9L713.2 476.1L713.4 476.4L713.6 476.6L713.9 476.9L714.1 477.1L714.4 477.4L714.6 477.6L714.9 477.9L715.1 478.1L715.4 478.4L715.6 478.6L715.9 478.9L716.1 479.1L716.4 479.4L716.6 479.6L716.8 479.9L716.9 480.1L717.0 480.4L717.0 480.6L717.1 480.9L717.2 481.1L717.4 481.4L717.6 481.6L717.9 481.9L718.1 482.1L718.4 482.4L718.6 482.6L718.9 482.9L719.1 483.1L719.4 483.4L719.6 483.6L719.8 483.9L719.9 484.1L720.0 484.4L720.0 484.6L720.1 484.9L720.2 485.1L720.4 485.4L720.6 485.6L720.9 485.9L721.1 486.1L721.4 486.4L721.6 486.6L721.9 486.9L722.1 487.1L722.4 487.4L722.6 487.6L722.8 487.9L722.9 488.1L723.0 488.4L723.0 488.6L723.1 488.9L723.2 489.1L723.4 489.4L723.6 489.6L723.9 489.9L724.1 490.1L724.4 490.4L724.6 490.6L724.8 490.9L724.9 491.1L725.0 491.4L725.0 491.6L725.1 491.9L725.2 492.1L725.4 492.4L725.6 492.6L725.9 492.9L726.1 493.1L726.4 493.4L726.6 493.6L726.8 493.9L726.9 494.1L727.0 494.4L727.0 494.6L727.1 494.9L727.2 495.1L727.4 495.4L727.6 495.6L727.9 495.9L728.1 496.1L728.4 496.4L728.6 496.6L728.9 496.9L729.1 497.1L729.4 497.4L729.6 497.6L729.8 497.9L729.9 498.1L730.0 498.4L730.0 498.6L730.1 498.9L730.2 499.1L730.4 499.4L730.6 499.6L730.9 499.9L731.1 500.1L731.4 500.4L731.6 500.6L731.8 500.9L731.9 501.1L732.0 501.4L732.0 501.6L732.1 501.9L732.2 502.1L732.4 502.4L732.6 502.6L732.8 502.9L732.9 503.1L733.0 503.4L733.0 503.6L733.1 503.9L733.2 504.1L733.4 504.4L733.6 504.6L733.9 504.9L734.1 505.1L734.4 505.4L734.6 505.6L734.8 505.9L734.9 506.1L735.0 506.4L735.0 506.6L735.1 506.9L735.2 507.1L735.4 507.4L735.6 507.6L735.8 507.9L735.9 508.1L736.0 508.4L736.0 508.6L736.1 508.9L736.2 509.1L736.4 509.4L736.6 509.6L736.8 509.9L736.9 510.1L737.0 510.4L737.0 510.6L737.1 510.9L737.2 511.1L737.4 511.4L737.6 511.6L737.9 511.9L738.1 512.1L738.4 512.4L738.6 512.6L738.8 512.9L738.9 513.1L739.0 513.4L739.0 513.6L739.1 513.9L739.2 514.1L739.4 514.4L739.6 514.6L739.9 514.9L740.1 515.1L740.4 515.4L740.6 515.6L740.8 515.9L740.9 516.1L741.0 516.4L741.0 516.6L741.1 516.9L741.2 517.1L741.4 517.4L741.6 517.6L741.8 517.9L741.9 518.1L742.0 518.4L742.0 518.6L742.1 518.9L742.2 519.1L742.4 519.4L742.6 519.6L742.8 519.9L742.9 520.1L743.0 520.4L743.0 520.6L743.1 520.9L743.2 521.1L743.4 521.4L743.6 521.6L743.8 521.9L743.9 522.1L744.0 522.4L744.0 522.6L744.1 522.9L744.2 523.1L744.4 523.4L744.6 523.6L744.8 523.9L744.9 524.1L745.0 524.4L745.0 524.6L745.1 524.9L745.2 525.1L745.4 525.4L745.6 525.6L745.8 525.9L745.9 526.1L746.0 526.4L746.0 526.6L746.0 526.9L746.0 527.1L746.0 527.4L746.0 527.6L746.1 527.9L746.2 528.1L746.4 528.4L746.6 528.6L746.8 528.9L746.9 529.1L747.0 529.4L747.0 529.6L747.1 529.9L747.2 530.1L747.4 530.4L747.6 530.6L747.8 530.9L747.9 531.1L748.0 531.4L748.0 531.6L748.1 531.9L748.2 532.1L748.4 532.4L748.6 532.6L748.8 532.9L748.9 533.1L749.0 533.4L749.0 533.6L749.1 533.9L749.2 534.1L749.4 534.4L749.6 534.6L749.8 534.9L749.9 535.1L750.0 535.4L750.0 535.6L750.0 535.9L750.0 536.1L750.0 536.4L750.0 536.6L750.1 536.9L750.2 537.1L750.4 537.4L750.6 537.6L750.8 537.9L750.9 538.1L751.0 538.4L751.0 538.6L751.1 538.9L751.2 539.1L751.4 539.4L751.6 539.6L751.8 539.9L751.9 540.1L752.0 540.4L752.0 540.6L752.1 540.9L752.2 541.1L752.4 541.4L752.6 541.6L752.8 541.9L752.9 542.1L753.0 542.4L753.0 542.6L753.1 542.9L753.2 543.1L753.4 543.4L753.6 543.6L753.8 543.9L753.9 544.1L754.0 544.4L754.0 544.6L754.1 544.9L754.2 545.1L754.4 545.4L754.6 545.6L754.8 545.9L754.9 546.1L755.0 546.4L755.0 546.6L755.0 546.9L755.0 547.1L755.0 547.4L755.0 547.6L755.1 547.9L755.2 548.1L755.4 548.4L755.6 548.6L755.8 548.9L755.9 549.1L756.0 549.4L756.0 549.6L756.0 549.9L756.0 550.1L756.0 550.4L756.0 550.6L756.1 550.9L756.2 551.1L756.4 551.4L756.6 551.6L756.8 551.9L756.9 552.1L757.0 552.4L757.0 552.6L757.0 552.9L757.0 553.1L757.0 553.4L757.0 553.6L757.1 553.9L757.2 554.1L757.4 554.4L757.6 554.6L757.8 554.9L757.9 555.1L758.0 555.4L758.0 555.6L758.0 555.9L758.0 556.1L758.0 556.4L758.0 556.6L758.1 556.9L758.2 557.1L758.4 557.4L758.6 557.6L758.8 557.9L758.9 558.1L759.0 558.4L759.0 558.6L759.1 558.9L759.2 559.1L759.4 559.4L759.6 559.6L759.8 559.9L759.9 560.1L760.0 560.4L760.0 560.6L760.0 560.9L760.0 561.1L760.0 561.4L760.0 561.6L760.0 561.9L760.0 562.1L760.0 562.4L760.0 562.6L760.1 562.9L760.2 563.1L760.4 563.4L760.6 563.6L760.8 563.9L760.9 564.1L761.0 564.4L761.0 564.6L761.1 564.9L761.2 565.1L761.4 565.4L761.6 565.6L761.8 565.9L761.9 566.1L762.0 566.4L762.0 566.6L762.0 566.9L762.0 567.1L762.0 567.4L762.0 567.6L762.1 567.9L762.2 568.1L762.4 568.4L762.6 568.6L762.8 568.9L762.9 569.1L763.0 569.4L763.0 569.6L763.0 569.9L763.0 570.1L763.0 570.4L763.0 570.6L763.1 570.9L763.2 571.1L763.4 571.4L763.6 571.6L763.8 571.9L763.9 572.1L764.0 572.4L764.0 572.6L764.0 572.9L764.0 573.1L764.0 573.4L764.0 573.6L764.1 573.9L764.2 574.1L764.4 574.4L764.6 574.6L764.8 574.9L764.9 575.1L765.0 575.4L765.0 575.6L765.0 575.9L765.0 576.1L765.0 576.4L765.0 576.6L765.0 576.9L765.0 577.1L765.0 577.4L765.0 577.6L765.0 577.9L765.0 578.1L765.0 578.4L765.0 578.6L765.1 578.9L765.2 579.1L765.4 579.4L765.6 579.6L765.8 579.9L765.9 580.1L766.0 580.4L766.0 580.6L766.0 580.9L766.0 581.1L766.0 581.4L766.0 581.6L766.0 581.9L766.0 582.1L766.0 582.4L766.0 582.6L766.1 582.9L766.2 583.1L766.4 583.4L766.6 583.6L766.8 583.9L766.9 584.1L767.0 584.4L767.0 584.6L767.0 584.9L767.0 585.1L767.0 585.4L767.0 585.6L767.0 585.9L767.0 586.1L767.0 586.4L767.0 586.6L767.1 586.9L767.2 587.1L767.4 587.4L767.6 587.6L767.8 587.9L767.9 588.1L768.0 588.4L768.0 588.6L768.0 588.9L768.0 589.1L768.0 589.4L768.0 589.6L768.1 589.9L768.2 590.1L768.4 590.4L768.6 590.6L768.8 590.9L768.9 591.1L769.0 591.4L769.0 591.6L769.0 591.9L769.0 592.1L769.0 592.4L769.0 592.6L769.1 592.9L769.2 593.1L769.4 593.4L769.6 593.6L769.8 593.9L769.9 594.1L770.0 594.4L770.0 594.6L770.0 594.9L770.0 595.1L770.0 595.4L770.0 595.6L770.0 595.9L770.0 596.1L770.0 596.4L770.0 596.6L770.0 596.9L770.0 597.1L770.0 597.4L770.0 597.6L770.1 597.9L770.2 598.1L770.4 598.4L770.6 598.6L770.8 598.9L770.9 599.1L771.0 599.4L771.0 599.6L771.0 599.9L771.0 600.1L771.0 600.4L771.0 600.6L771.0 600.9L771.0 601.1L771.0 601.4L771.0 601.6L771.0 601.9L771.0 602.1L771.0 602.4L771.0 602.6L771.0 602.9L771.0 603.1L771.0 603.4L771.0 603.6L771.1 603.9L771.2 604.1L771.4 604.4L771.6 604.6L771.8 604.9L771.9 605.1L772.0 605.4L772.0 605.6L772.0 605.9L772.0 606.1L772.0 606.4L772.0 606.6L772.0 606.9L772.0 607.1L772.0 607.4L772.0 607.6L772.0 607.9L772.0 608.1L772.0 608.4L772.0 608.6L772.1 608.9L772.2 609.1L772.4 609.4L772.6 609.6L772.8 609.9L772.9 610.1L773.0 610.4L773.0 610.6L773.0 610.9L773.0 611.1L773.0 611.4L773.0 611.6L773.0 611.9L773.0 612.1L773.0 612.4L773.0 612.6L773.1 612.9L773.2 613.1L773.4 613.4L773.6 613.6L773.8 613.9L773.9 614.1L774.0 614.4L774.0 614.6L774.0 614.9L774.0 615.1L774.0 615.4L774.0 615.6L774.0 615.9L774.0 616.1L774.0 616.4L774.0 616.6L774.0 616.9L774.0 617.1L774.0 617.4L774.0 617.6L774.1 617.9L774.2 618.1L774.4 618.4L774.6 618.6L774.8 618.9L774.9 619.1L775.0 619.4L775.0 619.6L775.0 619.9L775.0 620.1L775.0 620.4L775.0 620.6L775.0 620.9L775.0 621.1L775.0 621.4L775.0 621.6L775.0 621.9L775.0 622.1L775.0 622.4L775.0 622.6L775.0 622.9L775.0 623.1L775.0 623.4L775.0 623.6L775.0 623.9L775.0 624.1L775.0 624.4L775.0 624.6L775.0 624.9L775.0 625.1L775.0 625.4L775.0 625.6L775.0 625.9L775.0 626.1L775.0 626.4L775.0 626.6L775.1 626.9L775.2 627.1L775.4 627.4L775.6 627.6L775.8 627.9L775.9 628.1L776.0 628.4L776.0 628.6L776.0 628.9L776.0 629.1L776.0 629.4L776.0 629.6L776.0 629.9L776.0 630.1L776.0 630.4L776.0 630.6L776.0 630.9L776.0 631.1L776.0 631.4L776.0 631.6L776.0 631.9L776.0 632.1L776.0 632.4L776.0 632.6L776.1 632.9L776.2 633.1L776.4 633.4L776.6 633.6L776.8 633.9L776.9 634.1L777.0 634.4L777.0 634.6L777.0 634.9L777.0 635.1L777.0 635.4L777.0 635.6L777.0 635.9L777.0 636.1L777.0 636.4L777.0 636.6L777.0 636.9L777.0 637.1L777.0 637.4L777.0 637.6L777.0 637.9L777.0 638.1L777.0 638.4L777.0 638.6L777.0 638.9L777.0 639.1L777.0 639.4L777.0 639.6L777.0 639.9L777.0 640.1L777.0 640.4L777.0 640.6L777.1 640.9L777.2 641.1L777.4 641.4L777.6 641.6L777.8 641.9L777.9 642.1L778.0 642.4L778.0 642.6L778.0 642.9L778.0 643.1L778.0 643.4L778.0 643.6L778.0 643.9L778.0 644.1L778.0 644.4L778.0 644.6L778.0 644.9L778.0 645.1L778.0 645.4L778.0 645.6L778.0 645.9L778.0 646.1L778.0 646.4L778.0 646.6L778.0 646.9L778.0 647.1L778.0 647.4L778.0 647.6L778.0 647.9L778.0 648.1L778.0 648.4L778.0 648.6L778.0 648.9L778.0 649.1L778.0 649.4L778.0 649.6L778.0 649.9L778.0 650.1L778.0 650.4L778.0 650.6L778.0 650.9L778.0 651.1L778.0 651.4L778.0 651.6L778.1 651.9L778.2 652.1L778.4 652.4L778.6 652.6L778.8 652.9L778.9 653.1L779.0 653.4L779.0 653.6L779.0 653.9L779.0 654.1L779.0 654.4L779.0 654.6L779.0 654.9L779.0 655.1L779.0 655.4L779.0 655.6L779.0 655.9L779.0 656.1L779.0 656.4L779.0 656.6L779.0 656.9L779.0 657.1L779.0 657.4L779.0 657.6L779.0 657.9L779.0 658.1L779.0 658.4L779.0 658.6L779.0 658.9L779.0 659.1L779.0 659.4L779.0 659.6L779.0 659.9L779.0 660.1L779.0 660.4L779.0 660.6L779.0 660.9L779.0 661.1L779.0 661.4L779.0 661.6L779.0 661.9L779.0 662.1L779.0 662.4L779.0 662.6L779.0 662.9L779.0 663.1L779.0 663.4L779.0 663.6L779.0 663.9L779.0 664.1L779.0 664.4L779.0 664.6L779.0 664.9L779.0 665.1L779.0 665.4L779.0 665.6L779.0 665.9L779.0 666.1L779.0 666.4L779.0 666.6L779.0 666.9L779.0 667.1L779.0 667.4L779.0 667.6L779.1 667.9L779.2 668.1L779.4 668.4L779.6 668.6L779.8 668.9L779.9 669.1L780.0 669.4L780.0 669.6L780.0 669.9L780.0 670.1L780.0 670.4L780.0 670.6L780.0 670.9L780.0 671.1L780.0 671.4L780.0 671.6L780.0 671.9L780.0 672.1L780.0 672.4L780.0 672.6L780.0 672.9L780.0 673.1L780.0 673.4L780.0 673.6L780.0 673.9L780.0 674.1L780.0 674.4L780.0 674.6L780.0 674.9L780.0 675.1L780.0 675.4L780.0 675.6L780.0 675.9L780.0 676.1L780.0 676.4L780.0 676.6L780.0 676.9L780.0 677.1L780.0 677.4L780.0 677.6L780.0 677.9L780.0 678.1L780.0 678.4L780.0 678.6L780.0 678.9L780.0 679.1L780.0 679.4L780.0 679.6L780.0 679.9L780.0 680.1L780.0 680.4L780.0 680.6L780.0 680.9L780.0 681.1L780.0 681.4L780.0 681.6L780.0 681.9L780.0 682.1L780.0 682.4L780.0 682.6L780.0 682.9L780.0 683.1L780.0 683.4L780.0 683.6L780.0 683.9L780.0 684.1L780.0 684.4L780.0 684.6L780.0 684.9L780.0 685.1L780.0 685.4L780.0 685.6L780.0 685.9L780.0 686.1L780.0 686.4L780.0 686.6L780.0 686.9L780.0 687.1L780.0 687.4L780.0 687.6L780.0 687.9L780.0 688.1L780.0 688.4L780.0 688.6L780.0 688.9L780.0 689.1L780.0 689.4L780.0 689.6L780.1 689.9L780.2 690.1L780.4 690.4L780.6 690.6L780.8 690.9L780.9 691.1L781.0 691.4L781.0 691.6L781.0 691.9L781.0 692.1L781.0 692.4L781.0 692.6L781.0 692.9L781.0 693.1L781.0 693.4L781.0 693.6L781.0 693.9L781.0 694.1L781.0 694.4L781.0 694.6L781.0 694.9L781.0 695.1L781.0 695.4L781.0 695.6L781.0 695.9L781.0 696.1L781.0 696.4L781.0 696.6L780.9 696.9L780.8 697.1L780.6 697.4L780.4 697.6L780.2 697.9L780.1 698.1L780.0 698.4L780.0 698.6L780.0 698.9L780.0 699.1L780.0 699.4L780.0 699.6L780.0 699.9L780.0 700.1L780.0 700.4L780.0 700.6L780.0 700.9L780.0 701.1L780.0 701.4L780.0 701.6L780.0 701.9L780.0 702.1L780.0 702.4L780.0 702.6L780.0 702.9L780.0 703.1L780.0 703.4L780.0 703.6L780.0 703.9L780.0 704.1L780.0 704.4L780.0 704.6L780.0 704.9L780.0 705.1L780.0 705.4L780.0 705.6L780.0 705.9L780.0 706.1L780.0 706.4L780.0 706.6L780.0 706.9L780.0 707.1L780.0 707.4L780.0 707.6L780.0 707.9L780.0 708.1L780.0 708.4L780.0 708.6L780.0 708.9L780.0 709.1L780.0 709.4L780.0 709.6L780.0 709.9L780.0 710.1L780.0 710.4L780.0 710.6L780.0 710.9L780.0 711.1L780.0 711.4L780.0 711.6L780.0 711.9L780.0 712.1L780.0 712.4L780.0 712.6L779.9 712.9L779.8 713.1L779.6 713.4L779.4 713.6L779.2 713.9L779.1 714.1L779.0 714.4L779.0 714.6L779.0 714.9L779.0 715.1L779.0 715.4L779.0 715.6L779.0 715.9L779.0 716.1L779.0 716.4L779.0 716.6L779.0 716.9L779.0 717.1L779.0 717.4L779.0 717.6L779.0 717.9L779.0 718.1L779.0 718.4L779.0 718.6L779.0 718.9L779.0 719.1L779.0 719.4L779.0 719.6L779.0 719.9L779.0 720.1L779.0 720.4L779.0 720.6L779.0 720.9L779.0 721.1L779.0 721.4L779.0 721.6L779.0 721.9L779.0 722.1L779.0 722.4L779.0 722.6L779.0 722.9L779.0 723.1L779.0 723.4L779.0 723.6L779.0 723.9L779.0 724.1L779.0 724.4L779.0 724.6L778.9 724.9L778.8 725.1L778.6 725.4L778.4 725.6L778.2 725.9L778.1 726.1L778.0 726.4L778.0 726.6L778.0 726.9L778.0 727.1L778.0 727.4L778.0 727.6L778.0 727.9L778.0 728.1L778.0 728.4L778.0 728.6L778.0 728.9L778.0 729.1L778.0 729.4L778.0 729.6L778.0 729.9L778.0 730.1L778.0 730.4L778.0 730.6L778.0 730.9L778.0 731.1L778.0 731.4L778.0 731.6L778.0 731.9L778.0 732.1L778.0 732.4L778.0 732.6L778.0 732.9L778.0 733.1L778.0 733.4L778.0 733.6L778.0 733.9L778.0 734.1L778.0 734.4L778.0 734.6L777.9 734.9L777.8 735.1L777.6 735.4L777.4 735.6L777.2 735.9L777.1 736.1L777.0 736.4L777.0 736.6L777.0 736.9L777.0 737.1L777.0 737.4L777.0 737.6L777.0 737.9L777.0 738.1L777.0 738.4L777.0 738.6L777.0 738.9L777.0 739.1L777.0 739.4L777.0 739.6L777.0 739.9L777.0 740.1L777.0 740.4L777.0 740.6L777.0 740.9L777.0 741.1L777.0 741.4L777.0 741.6L777.0 741.9L777.0 742.1L777.0 742.4L777.0 742.6L777.0 742.9L777.0 743.1L777.0 743.4L777.0 743.6L777.0 743.9L777.0 744.1L777.0 744.4L777.0 744.6L776.9 744.9L776.8 745.1L776.6 745.4L776.4 745.6L776.2 745.9L776.1 746.1L776.0 746.4L776.0 746.6L776.0 746.9L776.0 747.1L776.0 747.4L776.0 747.6L776.0 747.9L776.0 748.1L776.0 748.4L776.0 748.6L775.9 748.9L775.8 749.1L775.6 749.4L775.4 749.6L775.2 749.9L775.1 750.1L775.0 750.4L775.0 750.6L775.0 750.9L775.0 751.1L775.0 751.4L775.0 751.6L775.0 751.9L775.0 752.1L775.0 752.4L775.0 752.6L775.0 752.9L775.0 753.1L775.0 753.4L775.0 753.6L775.0 753.9L775.0 754.1L775.0 754.4L775.0 754.6L775.0 754.9L775.0 755.1L775.0 755.4L775.0 755.6L774.9 755.9L774.8 756.1L774.6 756.4L774.4 756.6L774.2 756.9L774.1 757.1L774.0 757.4L774.0 757.6L774.0 757.9L774.0 758.1L774.0 758.4L774.0 758.6L774.0 758.9L774.0 759.1L774.0 759.4L774.0 759.6L773.9 759.9L773.8 760.1L773.6 760.4L773.4 760.6L773.2 760.9L773.1 761.1L773.0 761.4L773.0 761.6L773.0 761.9L773.0 762.1L773.0 762.4L773.0 762.6L773.0 762.9L773.0 763.1L773.0 763.4L773.0 763.6L772.9 763.9L772.8 764.1L772.6 764.4L772.4 764.6L772.2 764.9L772.1 765.1L772.0 765.4L772.0 765.6L772.0 765.9L772.0 766.1L772.0 766.4L772.0 766.6L771.9 766.9L771.8 767.1L771.6 767.4L771.4 767.6L771.2 767.9L771.1 768.1L771.0 768.4L771.0 768.6L771.0 768.9L771.0 769.1L771.0 769.4L771.0 769.6L771.0 769.9L771.0 770.1L771.0 770.4L771.0 770.6L770.9 770.9L770.8 771.1L770.6 771.4L770.4 771.6L770.2 771.9L770.1 772.1L770.0 772.4L770.0 772.6L770.0 772.9L770.0 773.1L770.0 773.4L770.0 773.6L770.0 773.9L770.0 774.1L770.0 774.4L770.0 774.6L769.9 774.9L769.8 775.1L769.6 775.4L769.4 775.6L769.2 775.9L769.1 776.1L769.0 776.4L769.0 776.6L769.0 776.9L769.0 777.1L769.0 777.4L769.0 777.6L769.0 777.9L769.0 778.1L769.0 778.4L769.0 778.6L768.9 778.9L768.8 779.1L768.6 779.4L768.4 779.6L768.2 779.9L768.1 780.1L768.0 780.4L768.0 780.6L768.0 780.9L768.0 781.1L768.0 781.4L768.0 781.6L768.0 781.9L768.0 782.1L768.0 782.4L768.0 782.6L767.9 782.9L767.8 783.1L767.6 783.4L767.4 783.6L767.2 783.9L767.1 784.1L767.0 784.4L767.0 784.6L767.0 784.9L767.0 785.1L767.0 785.4L767.0 785.6L766.9 785.9L766.8 786.1L766.6 786.4L766.4 786.6L766.2 786.9L766.1 787.1L766.0 787.4L766.0 787.6L766.0 787.9L766.0 788.1L766.0 788.4L766.0 788.6L765.9 788.9L765.8 789.1L765.6 789.4L765.4 789.6L765.2 789.9L765.1 790.1L765.0 790.4L765.0 790.6L765.0 790.9L765.0 791.1L765.0 791.4L765.0 791.6L764.9 791.9L764.8 792.1L764.6 792.4L764.4 792.6L764.2 792.9L764.1 793.1L764.0 793.4L764.0 793.6L764.0 793.9L764.0 794.1L764.0 794.4L764.0 794.6L763.9 794.9L763.8 795.1L763.6 795.4L763.4 795.6L763.2 795.9L763.1 796.1L763.0 796.4L763.0 796.6L763.0 796.9L763.0 797.1L763.0 797.4L763.0 797.6L762.9 797.9L762.8 798.1L762.6 798.4L762.4 798.6L762.2 798.9L762.1 799.1L762.0 799.4L762.0 799.6L762.0 799.9L762.0 800.1L762.0 800.4L762.0 800.6L761.9 800.9L761.8 801.1L761.6 801.4L761.4 801.6L761.2 801.9L761.1 802.1L761.0 802.4L761.0 802.6L760.9 802.9L760.8 803.1L760.6 803.4L760.4 803.6L760.2 803.9L760.1 804.1L760.0 804.4L760.0 804.6L760.0 804.9L760.0 805.1L760.0 805.4L760.0 805.6L759.9 805.9L759.8 806.1L759.6 806.4L759.4 806.6L759.2 806.9L759.1 807.1L759.0 807.4L759.0 807.6L759.0 807.9L759.0 808.1L759.0 808.4L759.0 808.6L759.0 808.9L759.0 809.1L759.0 809.4L759.0 809.6L758.9 809.9L758.8 810.1L758.6 810.4L758.4 810.6L758.2 810.9L758.1 811.1L758.0 811.4L758.0 811.6L757.9 811.9L757.8 812.1L757.6 812.4L757.4 812.6L757.2 812.9L757.1 813.1L757.0 813.4L757.0 813.6L757.0 813.9L757.0 814.1L757.0 814.4L757.0 814.6L756.9 814.9L756.8 815.1L756.6 815.4L756.4 815.6L756.2 815.9L756.1 816.1L756.0 816.4L756.0 816.6L755.9 816.9L755.8 817.1L755.6 817.4L755.4 817.6L755.2 817.9L755.1 818.1L755.0 818.4L755.0 818.6L755.0 818.9L755.0 819.1L755.0 819.4L755.0 819.6L754.9 819.9L754.8 820.1L754.6 820.4L754.4 820.6L754.2 820.9L754.1 821.1L754.0 821.4L754.0 821.6L753.9 821.9L753.8 822.1L753.6 822.4L753.4 822.6L753.2 822.9L753.1 823.1L753.0 823.4L753.0 823.6L752.9 823.9L752.8 824.1L752.6 824.4L752.4 824.6L752.2 824.9L752.1 825.1L752.0 825.4L752.0 825.6L751.9 825.9L751.8 826.1L751.6 826.4L751.4 826.6L751.2 826.9L751.1 827.1L751.0 827.4L751.0 827.6L750.9 827.9L750.8 828.1L750.6 828.4L750.4 828.6L750.2 828.9L750.1 829.1L750.0 829.4L750.0 829.6L750.0 829.9L750.0 830.1L750.0 830.4L750.0 830.6L749.9 830.9L749.8 831.1L749.6 831.4L749.4 831.6L749.2 831.9L749.1 832.1L749.0 832.4L749.0 832.6L748.9 832.9L748.8 833.1L748.6 833.4L748.4 833.6L748.2 833.9L748.1 834.1L748.0 834.4L748.0 834.6L747.9 834.9L747.8 835.1L747.6 835.4L747.4 835.6L747.2 835.9L747.1 836.1L747.0 836.4L747.0 836.6L746.9 836.9L746.8 837.1L746.6 837.4L746.4 837.6L746.2 837.9L746.1 838.1L746.0 838.4L746.0 838.6L745.9 838.9L745.8 839.1L745.6 839.4L745.4 839.6L745.2 839.9L745.1 840.1L745.0 840.4L745.0 840.6L744.9 840.9L744.8 841.1L744.6 841.4L744.4 841.6L744.2 841.9L744.1 842.1L744.0 842.4L744.0 842.6L744.0 842.9L744.0 843.1L744.0 843.4L744.0 843.6L743.9 843.9L743.8 844.1L743.6 844.4L743.4 844.6L743.2 844.9L743.1 845.1L743.0 845.4L743.0 845.6L742.9 845.9L742.8 846.1L742.6 846.4L742.4 846.6L742.2 846.9L742.1 847.1L742.0 847.4L742.0 847.6L741.9 847.9L741.8 848.1L741.6 848.4L741.4 848.6L741.2 848.9L741.1 849.1L741.0 849.4L741.0 849.6L740.9 849.9L740.8 850.1L740.6 850.4L740.4 850.6L740.2 850.9L740.1 851.1L740.0 851.4L740.0 851.6L739.9 851.9L739.8 852.1L739.6 852.4L739.4 852.6L739.1 852.9L738.9 853.1L738.6 853.4L738.4 853.6L738.2 853.9L738.1 854.1L738.0 854.4L738.0 854.6L737.9 854.9L737.8 855.1L737.6 855.4L737.4 855.6L737.2 855.9L737.1 856.1L737.0 856.4L737.0 856.6L736.9 856.9L736.8 857.1L736.6 857.4L736.4 857.6L736.1 857.9L735.9 858.1L735.6 858.4L735.4 858.6L735.2 858.9L735.1 859.1L735.0 859.4L735.0 859.6L734.9 859.9L734.8 860.1L734.6 860.4L734.4 860.6L734.2 860.9L734.1 861.1L734.0 861.4L734.0 861.6L733.9 861.9L733.8 862.1L733.6 862.4L733.4 862.6L733.1 862.9L732.9 863.1L732.6 863.4L732.4 863.6L732.2 863.9L732.1 864.1L732.0 864.4L732.0 864.6L731.9 864.9L731.8 865.1L731.6 865.4L731.4 865.6L731.2 865.9L731.1 866.1L731.0 866.4L731.0 866.6L730.9 866.9L730.8 867.1L730.6 867.4L730.4 867.6L730.1 867.9L729.9 868.1L729.6 868.4L729.4 868.6L729.2 868.9L729.1 869.1L729.0 869.4L729.0 869.6L728.9 869.9L728.8 870.1L728.6 870.4L728.4 870.6L728.2 870.9L728.1 871.1L728.0 871.4L728.0 871.6L727.9 871.9L727.8 872.1L727.6 872.4L727.4 872.6L727.1 872.9L726.9 873.1L726.6 873.4L726.4 873.6L726.2 873.9L726.1 874.1L726.0 874.4L726.0 874.6L725.9 874.9L725.8 875.1L725.6 875.4L725.4 875.6L725.1 875.9L724.9 876.1L724.6 876.4L724.4 876.6L724.1 876.9L723.9 877.1L723.6 877.4L723.4 877.6L723.2 877.9L723.1 878.1L723.0 878.4L723.0 878.6L722.9 878.9L722.8 879.1L722.6 879.4L722.4 879.6L722.1 879.9L721.9 880.1L721.6 880.4L721.4 880.6L721.2 880.9L721.1 881.1L721.0 881.4L721.0 881.6L720.9 881.9L720.8 882.1L720.6 882.4L720.4 882.6L720.1 882.9L719.9 883.1L719.6 883.4L719.4 883.6L719.2 883.9L719.1 884.1L719.0 884.4L719.0 884.6L718.9 884.9L718.8 885.1L718.6 885.4L718.4 885.6L718.1 885.9L717.9 886.1L717.6 886.4L717.4 886.6L717.1 886.9L716.9 887.1L716.6 887.4L716.4 887.6L716.2 887.9L716.1 888.1L716.0 888.4L716.0 888.6L715.9 888.9L715.8 889.1L715.6 889.4L715.4 889.6L715.1 889.9L714.9 890.1L714.6 890.4L714.4 890.6L714.2 890.9L714.1 891.1L714.0 891.4L714.0 891.6L713.9 891.9L713.8 892.1L713.6 892.4L713.4 892.6L713.1 892.9L712.9 893.1L712.6 893.4L712.4 893.6L712.1 893.9L711.9 894.1L711.6 894.4L711.4 894.6L711.1 894.9L710.9 895.1L710.6 895.4L710.4 895.6L710.2 895.9L710.1 896.1L710.0 896.4L710.0 896.6L709.9 896.9L709.8 897.1L709.6 897.4L709.4 897.6L709.1 897.9L708.9 898.1L708.6 898.4L708.4 898.6L708.1 898.9L707.9 899.1L707.6 899.4L707.4 899.6L707.1 899.9L706.9 900.1L706.6 900.4L706.4 900.6L706.2 900.9L706.1 901.1L706.0 901.4L706.0 901.6L705.9 901.9L705.8 902.1L705.6 902.4L705.4 902.6L705.1 902.9L704.9 903.1L704.6 903.4L704.4 903.6L704.1 903.9L703.9 904.1L703.6 904.4L703.4 904.6L703.1 904.9L702.9 905.1L702.6 905.4L702.4 905.6L702.1 905.9L701.9 906.1L701.6 906.4L701.4 906.6L701.1 906.9L700.9 907.1L700.6 907.4L700.4 907.6L700.1 907.9L699.9 908.1L699.6 908.4L699.4 908.6L699.1 908.9L698.9 909.1L698.6 909.4L698.4 909.6L698.1 909.9L697.9 910.1L697.6 910.4L697.4 910.6L697.1 910.9L696.9 911.1L696.6 911.4L696.4 911.6L696.1 911.9L695.9 912.1L695.6 912.4L695.4 912.6L695.2 912.9L695.1 913.1L695.0 913.4L695.0 913.6L694.9 913.9L694.8 914.1L694.6 914.4L694.4 914.6L694.1 914.9L693.9 915.1L693.6 915.4L693.4 915.6L693.1 915.8L692.9 915.9L692.6 916.0L692.4 916.0L692.1 916.1L691.9 916.2L691.6 916.4L691.4 916.6L691.1 916.9L690.9 917.1L690.6 917.4L690.4 917.6L690.1 917.9L689.9 918.1L689.6 918.4L689.4 918.6L689.1 918.9L688.9 919.1L688.6 919.4L688.4 919.6L688.1 919.9L687.9 920.1L687.6 920.4L687.4 920.6L687.1 920.9L686.9 921.1L686.6 921.4L686.4 921.6L686.1 921.9L685.9 922.1L685.6 922.4L685.4 922.6L685.1 922.9L684.9 923.1L684.6 923.4L684.4 923.6L684.1 923.9L683.9 924.1L683.6 924.4L683.4 924.6L683.1 924.9L682.9 925.1L682.6 925.4L682.4 925.6L682.1 925.8L681.9 925.9L681.6 926.0L681.4 926.0L681.1 926.1L680.9 926.2L680.6 926.4L680.4 926.6L680.1 926.9L679.9 927.1L679.6 927.4L679.4 927.6L679.1 927.9L678.9 928.1L678.6 928.4L678.4 928.6L678.1 928.9L677.9 929.1L677.6 929.4L677.4 929.6L677.1 929.8L676.9 929.9L676.6 930.0L676.4 930.0L676.1 930.1L675.9 930.2L675.6 930.4L675.4 930.6L675.1 930.9L674.9 931.1L674.6 931.4L674.4 931.6L674.1 931.9L673.9 932.1L673.6 932.4L673.4 932.6L673.1 932.8L672.9 932.9L672.6 933.0L672.4 933.0L672.1 933.1L671.9 933.2L671.6 933.4L671.4 933.6L671.1 933.9L670.9 934.1L670.6 934.4L670.4 934.6L670.1 934.9L669.9 935.1L669.6 935.4L669.4 935.6L669.1 935.8L668.9 935.9L668.6 936.0L668.4 936.0L668.1 936.1L667.9 936.2L667.6 936.4L667.4 936.6L667.1 936.9L666.9 937.1L666.6 937.4L666.4 937.6L666.1 937.8L665.9 937.9L665.6 938.0L665.4 938.0L665.1 938.1L664.9 938.2L664.6 938.4L664.4 938.6L664.1 938.9L663.9 939.1L663.6 939.4L663.4 939.6L663.1 939.8L662.9 939.9L662.6 940.0L662.4 940.0L662.1 940.1L661.9 940.2L661.6 940.4L661.4 940.6L661.1 940.9L660.9 941.1L660.6 941.4L660.4 941.6L660.1 941.9L659.9 942.1L659.6 942.4L659.4 942.6L659.1 942.8L658.9 942.9L658.6 943.0L658.4 943.0L658.1 943.1L657.9 943.2L657.6 943.4L657.4 943.6L657.1 943.8L656.9 943.9L656.6 944.0L656.4 944.0L656.1 944.1L655.9 944.2L655.6 944.4L655.4 944.6L655.1 944.8L654.9 944.9L654.6 945.0L654.4 945.0L654.1 945.1L653.9 945.2L653.6 945.4L653.4 945.6L653.1 945.9L652.9 946.1L652.6 946.4L652.4 946.6L652.1 946.8L651.9 946.9L651.6 947.0L651.4 947.0L651.1 947.1L650.9 947.2L650.6 947.4L650.4 947.6L650.1 947.9L649.9 948.1L649.6 948.4L649.4 948.6L649.1 948.8L648.9 948.9L648.6 949.0L648.4 949.0L648.1 949.1L647.9 949.2L647.6 949.4L647.4 949.6L647.1 949.8L646.9 949.9L646.6 950.0L646.4 950.0L646.1 950.1L645.9 950.2L645.6 950.4L645.4 950.6L645.1 950.8L644.9 950.9L644.6 951.0L644.4 951.0L644.1 951.1L643.9 951.2L643.6 951.4L643.4 951.6L643.1 951.8L642.9 951.9L642.6 952.0L642.4 952.0L642.1 952.1L641.9 952.2L641.6 952.4L641.4 952.6L641.1 952.8L640.9 952.9L640.6 953.0L640.4 953.0L640.1 953.1L639.9 953.2L639.6 953.4L639.4 953.6L639.1 953.8L638.9 953.9L638.6 954.0L638.4 954.0L638.1 954.0L637.9 954.0L637.6 954.0L637.4 954.0L637.1 954.1L636.9 954.2L636.6 954.4L636.4 954.6L636.1 954.9L635.9 955.1L635.6 955.4L635.4 955.6L635.1 955.8L634.9 955.9L634.6 956.0L634.4 956.0L634.1 956.0L633.9 956.0L633.6 956.0L633.4 956.0L633.1 956.1L632.9 956.2L632.6 956.4L632.4 956.6L632.1 956.8L631.9 956.9L631.6 957.0L631.4 957.0L631.1 957.1L630.9 957.2L630.6 957.4L630.4 957.6L630.1 957.8L629.9 957.9L629.6 958.0L629.4 958.0L629.1 958.1L628.9 958.2L628.6 958.4L628.4 958.6L628.1 958.8L627.9 958.9L627.6 959.0L627.4 959.0L627.1 959.1L626.9 959.2L626.6 959.4L626.4 959.6L626.1 959.8L625.9 959.9L625.6 960.0L625.4 960.0L625.1 960.0L624.9 960.0L624.6 960.0L624.4 960.0L624.1 960.1L623.9 960.2L623.6 960.4L623.4 960.6L623.1 960.8L622.9 960.9L622.6 961.0L622.4 961.0L622.1 961.0L621.9 961.0L621.6 961.0L621.4 961.0L621.1 961.1L620.9 961.2L620.6 961.4L620.4 961.6L620.1 961.8L619.9 961.9L619.6 962.0L619.4 962.0L619.1 962.0L618.9 962.0L618.6 962.0L618.4 962.0L618.1 962.1L617.9 962.2L617.6 962.4L617.4 962.6L617.1 962.8L616.9 962.9L616.6 963.0L616.4 963.0L616.1 963.0L615.9 963.0L615.6 963.0L615.4 963.0L615.1 963.1L614.9 963.2L614.6 963.4L614.4 963.6L614.1 963.8L613.9 963.9L613.6 964.0L613.4 964.0L613.1 964.0L612.9 964.0L612.6 964.0L612.4 964.0L612.1 964.1L611.9 964.2L611.6 964.4L611.4 964.6L611.1 964.8L610.9 964.9L610.6 965.0L610.4 965.0L610.1 965.1L609.9 965.2L609.6 965.4L609.4 965.6L609.1 965.8L608.9 965.9L608.6 966.0L608.4 966.0L608.1 966.0L607.9 966.0L607.6 966.0L607.4 966.0L607.1 966.0L606.9 966.0L606.6 966.0L606.4 966.0L606.1 966.0L605.9 966.0L605.6 966.0L605.4 966.0L605.1 966.1L604.9 966.2L604.6 966.4L604.4 966.6L604.1 966.8L603.9 966.9L603.6 967.0L603.4 967.0L603.1 967.0L602.9 967.0L602.6 967.0L602.4 967.0L602.1 967.0L601.9 967.0L601.6 967.0L601.4 967.0L601.1 967.1L600.9 967.2L600.6 967.4L600.4 967.6L600.1 967.8L599.9 967.9L599.6 968.0L599.4 968.0L599.1 968.0L598.9 968.0L598.6 968.0L598.4 968.0L598.1 968.1L597.9 968.2L597.6 968.4L597.4 968.6L597.1 968.8L596.9 968.9L596.6 969.0L596.4 969.0L596.1 969.0L595.9 969.0L595.6 969.0L595.4 969.0L595.1 969.0L594.9 969.0L594.6 969.0L594.4 969.0L594.1 969.0L593.9 969.0L593.6 969.0L593.4 969.0L593.1 969.1L592.9 969.2L592.6 969.4L592.4 969.6L592.1 969.8L591.9 969.9L591.6 970.0L591.4 970.0L591.1 970.0L590.9 970.0L590.6 970.0L590.4 970.0L590.1 970.0L589.9 970.0L589.6 970.0L589.4 970.0L589.1 970.0L588.9 970.0L588.6 970.0L588.4 970.0L588.1 970.0L587.9 970.0L587.6 970.0L587.4 970.0L587.1 970.1L586.9 970.2L586.6 970.4L586.4 970.6L586.1 970.8L585.9 970.9L585.6 971.0L585.4 971.0L585.1 971.0L584.9 971.0L584.6 971.0L584.4 971.0L584.1 971.0L583.9 971.0L583.6 971.0L583.4 971.0L583.1 971.1L582.9 971.2L582.6 971.4L582.4 971.6L582.1 971.8L581.9 971.9L581.6 972.0L581.4 972.0L581.1 972.0L580.9 972.0L580.6 972.0L580.4 972.0L580.1 972.0L579.9 972.0L579.6 972.0L579.4 972.0L579.1 972.0L578.9 972.0L578.6 972.0L578.4 972.0L578.1 972.0L577.9 972.0L577.6 972.0L577.4 972.0L577.1 972.0L576.9 972.0L576.6 972.0L576.4 972.0L576.1 972.0L575.9 972.0L575.6 972.0L575.4 972.0L575.1 972.1L574.9 972.2L574.6 972.4L574.4 972.6L574.1 972.8L573.9 972.9L573.6 973.0L573.4 973.0L573.1 973.0L572.9 973.0L572.6 973.0L572.4 973.0L572.1 973.0L571.9 973.0L571.6 973.0L571.4 973.0L571.1 973.0L570.9 973.0L570.6 973.0L570.4 973.0L570.1 973.0L569.9 973.0L569.6 973.0L569.4 973.0L569.1 973.0L568.9 973.0L568.6 973.0L568.4 973.0L568.1 973.0L567.9 973.0L567.6 973.0L567.4 973.0L567.1 973.0L566.9 973.0L566.6 973.0L566.4 973.0L566.1 973.0L565.9 973.0L565.6 973.0L565.4 973.0L565.1 973.0L564.9 973.0L564.6 973.0L564.4 973.0L564.1 973.1L563.9 973.2L563.6 973.4L563.4 973.6L563.1 973.8L562.9 973.9L562.6 974.0L562.4 974.0L562.1 974.0L561.9 974.0L561.6 974.0L561.4 974.0L561.1 974.0L560.9 974.0L560.6 974.0L560.4 974.0L560.1 974.0L559.9 974.0L559.6 974.0L559.4 974.0L559.1 974.0L558.9 974.0L558.6 974.0L558.4 974.0L558.1 974.0L557.9 974.0L557.6 974.0L557.4 974.0L557.1 974.0L556.9 974.0L556.6 974.0L556.4 974.0L556.1 974.0L555.9 974.0L555.6 974.0L555.4 974.0L555.1 974.0L554.9 974.0L554.6 974.0L554.4 974.0L554.1 974.0L553.9 974.0L553.6 974.0L553.4 974.0L553.1 974.0L552.9 974.0L552.6 974.0L552.4 974.0L552.1 974.1L551.9 974.2L551.6 974.4L551.4 974.6L551.1 974.8L550.9 974.9L550.6 975.0L550.4 975.0L550.1 975.0L549.9 975.0L549.6 975.0L549.4 975.0L549.1 975.0L548.9 975.0L548.6 975.0L548.4 975.0L548.1 975.0L547.9 975.0L547.6 975.0L547.4 975.0L547.1 975.0L546.9 975.0L546.6 975.0L546.4 975.0L546.1 975.0L545.9 975.0L545.6 975.0L545.4 975.0L545.1 975.0L544.9 975.0L544.6 975.0L544.4 975.0L544.1 975.0L543.9 975.0L543.6 975.0L543.4 975.0L543.1 975.0L542.9 975.0L542.6 975.0L542.4 975.0L542.1 975.0L541.9 975.0L541.6 975.0L541.4 975.0L541.1 975.0L540.9 975.0L540.6 975.0L540.4 975.0L540.1 975.0L539.9 975.0L539.6 975.0L539.4 975.0L539.1 975.0L538.9 975.0L538.6 975.0L538.4 975.0L538.1 975.0L537.9 975.0L537.6 975.0L537.4 975.0L537.1 975.0L536.9 975.0L536.6 975.0L536.4 975.0L536.1 975.0L535.9 975.0L535.6 975.0L535.4 975.0L535.1 975.0L534.9 975.0L534.6 975.0L534.4 975.0L534.1 975.0L533.9 975.0L533.6 975.0L533.4 975.0L533.1 975.0L532.9 975.0L532.6 975.0L532.4 975.0L532.1 975.0L531.9 975.0L531.6 975.0L531.4 975.0L531.1 975.0L530.9 975.0L530.6 975.0L530.4 975.0L530.1 975.0L529.9 975.0L529.6 975.0L529.4 975.0L529.1 975.0L528.9 975.0L528.6 975.0L528.4 975.0L528.1 975.0L527.9 975.0L527.6 975.0L527.4 975.0L527.1 975.0L526.9 975.0L526.6 975.0L526.4 975.0L526.1 975.0L525.9 975.0L525.6 975.0L525.4 975.0L525.1 975.0L524.9 975.0L524.6 975.0L524.4 975.0L524.1 975.0L523.9 975.0L523.6 975.0L523.4 975.0L523.1 975.0L522.9 975.0L522.6 975.0L522.4 975.0L522.1 975.0L521.9 975.0L521.6 975.0L521.4 975.0L521.1 975.0L520.9 975.0L520.6 975.0L520.4 975.0L520.1 975.0L519.9 975.0L519.6 975.0L519.4 975.0L519.1 975.0L518.9 975.0L518.6 975.0L518.4 975.0L518.1 975.0L517.9 975.0L517.6 975.0L517.4 975.0L517.1 975.0L516.9 975.0L516.6 975.0L516.4 975.0L516.1 975.0L515.9 975.0L515.6 975.0L515.4 975.0L515.1 975.0L514.9 975.0L514.6 975.0L514.4 975.0L514.1 975.0L513.9 975.0L513.6 975.0L513.4 975.0L513.1 974.9L512.9 974.8L512.6 974.6L512.4 974.4L512.1 974.2L511.9 974.1L511.6 974.0L511.4 974.0L511.1 974.0L510.9 974.0L510.6 974.0L510.4 974.0L510.1 974.0L509.9 974.0L509.6 974.0L509.4 974.0L509.1 974.0L508.9 974.0L508.6 974.0L508.4 974.0L508.1 974.0L507.9 974.0L507.6 974.0L507.4 974.0L507.1 974.0L506.9 974.0L506.6 974.0L506.4 974.0L506.1 974.0L505.9 974.0L505.6 974.0L505.4 974.0L505.1 974.0L504.9 974.0L504.6 974.0L504.4 974.0L504.1 974.0L503.9 974.0L503.6 974.0L503.4 974.0L503.1 974.0L502.9 974.0L502.6 974.0L502.4 974.0L502.1 974.0L501.9 974.0L501.6 974.0L501.4 974.0L501.1 974.0L500.9 974.0L500.6 974.0L500.4 974.0L500.1 974.0L499.9 974.0L499.6 974.0L499.4 974.0L499.1 974.0L498.9 974.0L498.6 974.0L498.4 974.0L498.1 973.9L497.9 973.8L497.6 973.6L497.4 973.4L497.1 973.2L496.9 973.1L496.6 973.0L496.4 973.0L496.1 973.0L495.9 973.0L495.6 973.0L495.4 973.0L495.1 973.0L494.9 973.0L494.6 973.0L494.4 973.0L494.1 973.0L493.9 973.0L493.6 973.0L493.4 973.0L493.1 973.0L492.9 973.0L492.6 973.0L492.4 973.0L492.1 973.0L491.9 973.0L491.6 973.0L491.4 973.0L491.1 973.0L490.9 973.0L490.6 973.0L490.4 973.0L490.1 973.0L489.9 973.0L489.6 973.0L489.4 973.0L489.1 973.0L488.9 973.0L488.6 973.0L488.4 973.0L488.1 973.0L487.9 973.0L487.6 973.0L487.4 973.0L487.1 972.9L486.9 972.8L486.6 972.6L486.4 972.4L486.1 972.2L485.9 972.1L485.6 972.0L485.4 972.0L485.1 972.0L484.9 972.0L484.6 972.0L484.4 972.0L484.1 972.0L483.9 972.0L483.6 972.0L483.4 972.0L483.1 972.0L482.9 972.0L482.6 972.0L482.4 972.0L482.1 972.0L481.9 972.0L481.6 972.0L481.4 972.0L481.1 972.0L480.9 972.0L480.6 972.0L480.4 972.0L480.1 971.9L479.9 971.8L479.6 971.6L479.4 971.4L479.1 971.2L478.9 971.1L478.6 971.0L478.4 971.0L478.1 971.0L477.9 971.0L477.6 971.0L477.4 971.0L477.1 971.0L476.9 971.0L476.6 971.0L476.4 971.0L476.1 971.0L475.9 971.0L475.6 971.0L475.4 971.0L475.1 971.0L474.9 971.0L474.6 971.0L474.4 971.0L474.1 970.9L473.9 970.8L473.6 970.6L473.4 970.4L473.1 970.2L472.9 970.1L472.6 970.0L472.4 970.0L472.1 970.0L471.9 970.0L471.6 970.0L471.4 970.0L471.1 970.0L470.9 970.0L470.6 970.0L470.4 970.0L470.1 970.0L469.9 970.0L469.6 970.0L469.4 970.0L469.1 970.0L468.9 970.0L468.6 970.0L468.4 970.0L468.1 970.0L467.9 970.0L467.6 970.0L467.4 970.0L467.1 970.0L466.9 970.0L466.6 970.0L466.4 970.0L466.1 970.0L465.9 970.0L465.6 970.0L465.4 970.0L465.1 969.9L464.9 969.8L464.6 969.6L464.4 969.4L464.1 969.2L463.9 969.1L463.6 969.0L463.4 969.0L463.1 969.0L462.9 969.0L462.6 969.0L462.4 969.0L462.1 969.0L461.9 969.0L461.6 969.0L461.4 969.0L461.1 968.9L460.9 968.8L460.6 968.6L460.4 968.4L460.1 968.2L459.9 968.1L459.6 968.0L459.4 968.0L459.1 968.0L458.9 968.0L458.6 968.0L458.4 968.0L458.1 968.0L457.9 968.0L457.6 968.0L457.4 968.0L457.1 968.0L456.9 968.0L456.6 968.0L456.4 968.0L456.1 967.9L455.9 967.8L455.6 967.6L455.4 967.4L455.1 967.2L454.9 967.1L454.6 967.0L454.4 967.0L454.1 967.0L453.9 967.0L453.6 967.0L453.4 967.0L453.1 967.0L452.9 967.0L452.6 967.0L452.4 967.0L452.1 967.0L451.9 967.0L451.6 967.0L451.4 967.0L451.1 967.0L450.9 967.0L450.6 967.0L450.4 967.0L450.1 966.9L449.9 966.8L449.6 966.6L449.4 966.4L449.1 966.2L448.9 966.1L448.6 966.0L448.4 966.0L448.1 966.0L447.9 966.0L447.6 966.0L447.4 966.0L447.1 966.0L446.9 966.0L446.6 966.0L446.4 966.0L446.1 965.9L445.9 965.8L445.6 965.6L445.4 965.4L445.1 965.2L444.9 965.1L444.6 965.0L444.4 965.0L444.1 965.0L443.9 965.0L443.6 965.0L443.4 965.0L443.1 964.9L442.9 964.8L442.6 964.6L442.4 964.4L442.1 964.2L441.9 964.1L441.6 964.0L441.4 964.0L441.1 964.0L440.9 964.0L440.6 964.0L440.4 964.0L440.1 964.0L439.9 964.0L439.6 964.0L439.4 964.0L439.1 963.9L438.9 963.8L438.6 963.6L438.4 963.4L438.1 963.2L437.9 963.1L437.6 963.0L437.4 963.0L437.1 963.0L436.9 963.0L436.6 963.0L436.4 963.0L436.1 963.0L435.9 963.0L435.6 963.0L435.4 963.0L435.1 962.9L434.9 962.8L434.6 962.6L434.4 962.4L434.1 962.2L433.9 962.1L433.6 962.0L433.4 962.0L433.1 962.0L432.9 962.0L432.6 962.0L432.4 962.0L432.1 962.0L431.9 962.0L431.6 962.0L431.4 962.0L431.1 962.0L430.9 962.0L430.6 962.0L430.4 962.0L430.1 961.9L429.9 961.8L429.6 961.6L429.4 961.4L429.1 961.2L428.9 961.1L428.6 961.0L428.4 961.0L428.1 961.0L427.9 961.0L427.6 961.0L427.4 961.0L427.1 960.9L426.9 960.8L426.6 960.6L426.4 960.4L426.1 960.2L425.9 960.1L425.6 960.0L425.4 960.0L425.1 960.0L424.9 960.0L424.6 960.0L424.4 960.0L424.1 959.9L423.9 959.8L423.6 959.6L423.4 959.4L423.1 959.2L422.9 959.1L422.6 959.0L422.4 959.0L422.1 958.9L421.9 958.8L421.6 958.6L421.4 958.4L421.1 958.2L420.9 958.1L420.6 958.0L420.4 958.0L420.1 958.0L419.9 958.0L419.6 958.0L419.4 958.0L419.1 958.0L418.9 958.0L418.6 958.0L418.4 958.0L418.1 957.9L417.9 957.8L417.6 957.6L417.4 957.4L417.1 957.2L416.9 957.1L416.6 957.0L416.4 957.0L416.1 956.9L415.9 956.8L415.6 956.6L415.4 956.4L415.1 956.2L414.9 956.1L414.6 956.0L414.4 956.0L414.1 956.0L413.9 956.0L413.6 956.0L413.4 956.0L413.1 955.9L412.9 955.8L412.6 955.6L412.4 955.4L412.1 955.2L411.9 955.1L411.6 955.0L411.4 955.0L411.1 955.0L410.9 955.0L410.6 955.0L410.4 955.0L410.1 955.0L409.9 955.0L409.6 955.0L409.4 955.0L409.1 954.9L408.9 954.8L408.6 954.6L408.4 954.4L408.1 954.2L407.9 954.1L407.6 954.0L407.4 954.0L407.1 953.9L406.9 953.8L406.6 953.6L406.4 953.4L406.1 953.2L405.9 953.1L405.6 953.0L405.4 953.0L405.1 953.0L404.9 953.0L404.6 953.0L404.4 953.0L404.1 952.9L403.9 952.8L403.6 952.6L403.4 952.4L403.1 952.2L402.9 952.1L402.6 952.0L402.4 952.0L402.1 951.9L401.9 951.8L401.6 951.6L401.4 951.4L401.1 951.2L400.9 951.1L400.6 951.0L400.4 951.0L400.1 950.9L399.9 950.8L399.6 950.6L399.4 950.4L399.1 950.2L398.9 950.1L398.6 950.0L398.4 950.0L398.1 949.9L397.9 949.8L397.6 949.6L397.4 949.4L397.1 949.2L396.9 949.1L396.6 949.0L396.4 949.0L396.1 948.9L395.9 948.8L395.6 948.6L395.4 948.4L395.1 948.2L394.9 948.1L394.6 948.0L394.4 948.0L394.1 948.0L393.9 948.0L393.6 948.0L393.4 948.0L393.1 947.9L392.9 947.8L392.6 947.6L392.4 947.4L392.1 947.2L391.9 947.1L391.6 947.0L391.4 947.0L391.1 946.9L390.9 946.8L390.6 946.6L390.4 946.4L390.1 946.2L389.9 946.1L389.6 946.0L389.4 946.0L389.1 945.9L388.9 945.8L388.6 945.6L388.4 945.4L388.1 945.2L387.9 945.1L387.6 945.0L387.4 945.0L387.1 944.9L386.9 944.8L386.6 944.6L386.4 944.4L386.1 944.2L385.9 944.1L385.6 944.0L385.4 944.0L385.1 943.9L384.9 943.8L384.6 943.6L384.4 943.4L384.1 943.2L383.9 943.1L383.6 943.0L383.4 943.0L383.1 943.0L382.9 943.0L382.6 943.0L382.4 943.0L382.1 942.9L381.9 942.8L381.6 942.6L381.4 942.4L381.1 942.1L380.9 941.9L380.6 941.6L380.4 941.4L380.1 941.2L379.9 941.1L379.6 941.0L379.4 941.0L379.1 940.9L378.9 940.8L378.6 940.6L378.4 940.4L378.1 940.2L377.9 940.1L377.6 940.0L377.4 940.0L377.1 939.9L376.9 939.8L376.6 939.6L376.4 939.4L376.1 939.1L375.9 938.9L375.6 938.6L375.4 938.4L375.1 938.2L374.9 938.1L374.6 938.0L374.4 938.0L374.1 937.9L373.9 937.8L373.6 937.6L373.4 937.4L373.1 937.1L372.9 936.9L372.6 936.6L372.4 936.4L372.1 936.2L371.9 936.1L371.6 936.0L371.4 936.0L371.1 935.9L370.9 935.8L370.6 935.6L370.4 935.4L370.1 935.2L369.9 935.1L369.6 935.0L369.4 935.0L369.1 934.9L368.9 934.8L368.6 934.6L368.4 934.4L368.1 934.1L367.9 933.9L367.6 933.6L367.4 933.4L367.1 933.1L366.9 932.9L366.6 932.6L366.4 932.4L366.1 932.2L365.9 932.1L365.6 932.0L365.4 932.0L365.1 932.0L364.9 932.0L364.6 932.0L364.4 932.0L364.1 931.9L363.9 931.8L363.6 931.6L363.4 931.4L363.1 931.1L362.9 930.9L362.6 930.6L362.4 930.4L362.1 930.2L361.9 930.1L361.6 930.0L361.4 930.0L361.1 929.9L360.9 929.8L360.6 929.6L360.4 929.4L360.1 929.1L359.9 928.9L359.6 928.6L359.4 928.4L359.1 928.1L358.9 927.9L358.6 927.6L358.4 927.4L358.1 927.2L357.9 927.1L357.6 927.0L357.4 927.0L357.1 926.9L356.9 926.8L356.6 926.6L356.4 926.4L356.1 926.1L355.9 925.9L355.6 925.6L355.4 925.4L355.1 925.2L354.9 925.1L354.6 925.0L354.4 925.0L354.1 924.9L353.9 924.8L353.6 924.6L353.4 924.4L353.1 924.1L352.9 923.9L352.6 923.6L352.4 923.4L352.1 923.2L351.9 923.1L351.6 923.0L351.4 923.0L351.1 922.9L350.9 922.8L350.6 922.6L350.4 922.4L350.1 922.1L349.9 921.9L349.6 921.6L349.4 921.4L349.1 921.1L348.9 920.9L348.6 920.6L348.4 920.4L348.1 920.1L347.9 919.9L347.6 919.6L347.4 919.4L347.1 919.1L346.9 918.9L346.6 918.6L346.4 918.4L346.1 918.1L345.9 917.9L345.6 917.6L345.4 917.4L345.1 917.1L344.9 916.9L344.6 916.6L344.4 916.4L344.1 916.2L343.9 916.1L343.6 916.0L343.4 916.0L343.1 915.9L342.9 915.8L342.6 915.6L342.4 915.4L342.1 915.1L341.9 914.9L341.6 914.6L341.4 914.4L341.1 914.1L340.9 913.9L340.6 913.6L340.4 913.4L340.1 913.1L339.9 912.9L339.6 912.6L339.4 912.4L339.1 912.1L338.9 911.9L338.6 911.6L338.4 911.4L338.1 911.1L337.9 910.9L337.6 910.6L337.4 910.4L337.1 910.1L336.9 909.9L336.6 909.6L336.4 909.4L336.1 909.1L335.9 908.9L335.6 908.6L335.4 908.4L335.1 908.1L334.9 907.9L334.6 907.6L334.4 907.4L334.1 907.1L333.9 906.9L333.6 906.6L333.4 906.4L333.1 906.1L332.9 905.9L332.6 905.6L332.4 905.4L332.1 905.1L331.9 904.9L331.6 904.6L331.4 904.4L331.1 904.1L330.9 903.9L330.6 903.6L330.4 903.4L330.1 903.1L329.9 902.9L329.6 902.6L329.4 902.4L329.1 902.1L328.9 901.9L328.6 901.6L328.4 901.4L328.1 901.1L327.9 900.9L327.6 900.6L327.4 900.4L327.1 900.1L326.9 899.9L326.6 899.6L326.4 899.4L326.1 899.1L325.9 898.9L325.6 898.6L325.4 898.4L325.1 898.1L324.9 897.9L324.6 897.6L324.4 897.4L324.1 897.1L323.9 896.9L323.6 896.6L323.4 896.4L323.1 896.1L322.9 895.9L322.6 895.6L322.4 895.4L322.2 895.1L322.1 894.9L322.0 894.6L322.0 894.4L321.9 894.1L321.8 893.9L321.6 893.6L321.4 893.4L321.1 893.1L320.9 892.9L320.6 892.6L320.4 892.4L320.1 892.1L319.9 891.9L319.6 891.6L319.4 891.4L319.1 891.1L318.9 890.9L318.6 890.6L318.4 890.4L318.1 890.1L317.9 889.9L317.6 889.6L317.4 889.4L317.1 889.1L316.9 888.9L316.6 888.6L316.4 888.4L316.2 888.1L316.1 887.9L316.0 887.6L316.0 887.4L315.9 887.1L315.8 886.9L315.6 886.6L315.4 886.4L315.1 886.1L314.9 885.9L314.6 885.6L314.4 885.4L314.1 885.1L313.9 884.9L313.6 884.6L313.4 884.4L313.1 884.1L312.9 883.9L312.6 883.6L312.4 883.4L312.2 883.1L312.1 882.9L312.0 882.6L312.0 882.4L311.9 882.1L311.8 881.9L311.6 881.6L311.4 881.4L311.1 881.1L310.9 880.9L310.6 880.6L310.4 880.4L310.1 880.1L309.9 879.9L309.6 879.6L309.4 879.4L309.2 879.1L309.1 878.9L309.0 878.6L309.0 878.4L308.9 878.1L308.8 877.9L308.6 877.6L308.4 877.4L308.1 877.1L307.9 876.9L307.6 876.6L307.4 876.4L307.2 876.1L307.1 875.9L307.0 875.6L307.0 875.4L306.9 875.1L306.8 874.9L306.6 874.6L306.4 874.4L306.1 874.1L305.9 873.9L305.6 873.6L305.4 873.4L305.2 873.1L305.1 872.9L305.0 872.6L305.0 872.4L304.9 872.1L304.8 871.9L304.6 871.6L304.4 871.4L304.2 871.1L304.1 870.9L304.0 870.6L304.0 870.4L303.9 870.1L303.8 869.9L303.6 869.6L303.4 869.4L303.1 869.1L302.9 868.9L302.6 868.6L302.4 868.4L302.2 868.1L302.1 867.9L302.0 867.6L302.0 867.4L301.9 867.1L301.8 866.9L301.6 866.6L301.4 866.4L301.1 866.1L300.9 865.9L300.6 865.6L300.4 865.4L300.2 865.1L300.1 864.9L300.0 864.6L300.0 864.4L299.9 864.1L299.8 863.9L299.6 863.6L299.4 863.4L299.2 863.1L299.1 862.9L299.0 862.6L299.0 862.4L298.9 862.1L298.8 861.9L298.6 861.6L298.4 861.4L298.2 861.1L298.1 860.9L298.0 860.6L298.0 860.4L297.9 860.1L297.8 859.9L297.6 859.6L297.4 859.4L297.2 859.1L297.1 858.9L297.0 858.6L297.0 858.4L296.9 858.1L296.8 857.9L296.6 857.6L296.4 857.4L296.2 857.1L296.1 856.9L296.0 856.6L296.0 856.4L295.9 856.1L295.8 855.9L295.6 855.6L295.4 855.4L295.2 855.1L295.1 854.9L295.0 854.6L295.0 854.4L294.9 854.1L294.8 853.9L294.6 853.6L294.4 853.4L294.1 853.1L293.9 852.9L293.6 852.6L293.4 852.4L293.2 852.1L293.1 851.9L293.0 851.6L293.0 851.4L292.9 851.1L292.8 850.9L292.6 850.6L292.4 850.4L292.2 850.1L292.1 849.9L292.0 849.6L292.0 849.4L291.9 849.1L291.8 848.9L291.6 848.6L291.4 848.4L291.2 848.1L291.1 847.9L291.0 847.6L291.0 847.4L290.9 847.1L290.8 846.9L290.6 846.6L290.4 846.4L290.2 846.1L290.1 845.9L290.0 845.6L290.0 845.4L289.9 845.1L289.8 844.9L289.6 844.6L289.4 844.4L289.2 844.1L289.1 843.9L289.0 843.6L289.0 843.4L288.9 843.1L288.8 842.9L288.6 842.6L288.4 842.4L288.2 842.1L288.1 841.9L288.0 841.6L288.0 841.4L288.0 841.1L288.0 840.9L288.0 840.6L288.0 840.4L287.9 840.1L287.8 839.9L287.6 839.6L287.4 839.4L287.2 839.1L287.1 838.9L287.0 838.6L287.0 838.4L286.9 838.1L286.8 837.9L286.6 837.6L286.4 837.4L286.2 837.1L286.1 836.9L286.0 836.6L286.0 836.4L285.9 836.1L285.8 835.9L285.6 835.6L285.4 835.4L285.2 835.1L285.1 834.9L285.0 834.6L285.0 834.4L285.0 834.1L285.0 833.9L285.0 833.6L285.0 833.4L284.9 833.1L284.8 832.9L284.6 832.6L284.4 832.4L284.2 832.1L284.1 831.9L284.0 831.6L284.0 831.4L283.9 831.1L283.8 830.9L283.6 830.6L283.4 830.4L283.2 830.1L283.1 829.9L283.0 829.6L283.0 829.4L283.0 829.1L283.0 828.9L283.0 828.6L283.0 828.4L282.9 828.1L282.8 827.9L282.6 827.6L282.4 827.4L282.2 827.1L282.1 826.9L282.0 826.6L282.0 826.4L281.9 826.1L281.8 825.9L281.6 825.6L281.4 825.4L281.2 825.1L281.1 824.9L281.0 824.6L281.0 824.4L281.0 824.1L281.0 823.9L281.0 823.6L281.0 823.4L280.9 823.1L280.8 822.9L280.6 822.6L280.4 822.4L280.2 822.1L280.1 821.9L280.0 821.6L280.0 821.4L279.9 821.1L279.8 820.9L279.6 820.6L279.4 820.4L279.2 820.1L279.1 819.9L279.0 819.6L279.0 819.4L279.0 819.1L279.0 818.9L279.0 818.6L279.0 818.4L278.9 818.1L278.8 817.9L278.6 817.6L278.4 817.4L278.2 817.1L278.1 816.9L278.0 816.6L278.0 816.4L277.9 816.1L277.8 815.9L277.6 815.6L277.4 815.4L277.2 815.1L277.1 814.9L277.0 814.6L277.0 814.4L277.0 814.1L277.0 813.9L277.0 813.6L277.0 813.4L276.9 813.1L276.8 812.9L276.6 812.6L276.4 812.4L276.2 812.1L276.1 811.9L276.0 811.6L276.0 811.4L276.0 811.1L276.0 810.9L276.0 810.6L276.0 810.4L275.9 810.1L275.8 809.9L275.6 809.6L275.4 809.4L275.2 809.1L275.1 808.9L275.0 808.6L275.0 808.4L275.0 808.1L275.0 807.9L275.0 807.6L275.0 807.4L274.9 807.1L274.8 806.9L274.6 806.6L274.4 806.4L274.2 806.1L274.1 805.9L274.0 805.6L274.0 805.4L274.0 805.1L274.0 804.9L274.0 804.6L274.0 804.4L274.0 804.1L274.0 803.9L274.0 803.6L274.0 803.4L273.9 803.1L273.8 802.9L273.6 802.6L273.4 802.4L273.2 802.1L273.1 801.9L273.0 801.6L273.0 801.4L273.0 801.1L273.0 800.9L273.0 800.6L273.0 800.4L273.0 800.1L273.0 799.9L273.0 799.6L273.0 799.4L272.9 799.1L272.8 798.9L272.6 798.6L272.4 798.4L272.2 798.1L272.1 797.9L272.0 797.6L272.0 797.4L271.9 797.1L271.8 796.9L271.6 796.6L271.4 796.4L271.2 796.1L271.1 795.9L271.0 795.6L271.0 795.4L271.0 795.1L271.0 794.9L271.0 794.6L271.0 794.4L270.9 794.1L270.8 793.9L270.6 793.6L270.4 793.4L270.2 793.1L270.1 792.9L270.0 792.6L270.0 792.4L270.0 792.1L270.0 791.9L270.0 791.6L270.0 791.4L270.0 791.1L270.0 790.9L270.0 790.6L270.0 790.4L270.0 790.1L270.0 789.9L270.0 789.6L270.0 789.4L269.9 789.1L269.8 788.9L269.6 788.6L269.4 788.4L269.2 788.1L269.1 787.9L269.0 787.6L269.0 787.4L269.0 787.1L269.0 786.9L269.0 786.6L269.0 786.4L269.0 786.1L269.0 785.9L269.0 785.6L269.0 785.4L269.0 785.1L269.0 784.9L269.0 784.6L269.0 784.4L268.9 784.1L268.8 783.9L268.6 783.6L268.4 783.4L268.2 783.1L268.1 782.9L268.0 782.6L268.0 782.4L268.0 782.1L268.0 781.9L268.0 781.6L268.0 781.4L267.9 781.1L267.8 780.9L267.6 780.6L267.4 780.4L267.2 780.1L267.1 779.9L267.0 779.6L267.0 779.4L267.0 779.1L267.0 778.9L267.0 778.6L267.0 778.4L267.0 778.1L267.0 777.9L267.0 777.6L267.0 777.4L266.9 777.1L266.8 776.9L266.6 776.6L266.4 776.4L266.2 776.1L266.1 775.9L266.0 775.6L266.0 775.4L266.0 775.1L266.0 774.9L266.0 774.6L266.0 774.4L266.0 774.1L266.0 773.9L266.0 773.6L266.0 773.4L266.0 773.1L266.0 772.9L266.0 772.6L266.0 772.4L266.0 772.1L266.0 771.9L266.0 771.6L266.0 771.4L266.0 771.1L266.0 770.9L266.0 770.6L266.0 770.4L265.9 770.1L265.8 769.9L265.6 769.6L265.4 769.4L265.2 769.1L265.1 768.9L265.0 768.6L265.0 768.4L265.0 768.1L265.0 767.9L265.0 767.6L265.0 767.4L265.0 767.1L265.0 766.9L265.0 766.6L265.0 766.4L265.0 766.1L265.0 765.9L265.0 765.6L265.0 765.4L265.0 765.1L265.0 764.9L265.0 764.6L265.0 764.4L264.9 764.1L264.8 763.9L264.6 763.6L264.4 763.4L264.2 763.1L264.1 762.9L264.0 762.6L264.0 762.4L264.0 762.1L264.0 761.9L264.0 761.6L264.0 761.4L264.0 761.1L264.0 760.9L264.0 760.6L264.0 760.4L263.9 760.1L263.8 759.9L263.6 759.6L263.4 759.4L263.2 759.1L263.1 758.9L263.0 758.6L263.0 758.4L263.0 758.1L263.0 757.9L263.0 757.6L263.0 757.4L263.0 757.1L263.0 756.9L263.0 756.6L263.0 756.4L263.0 756.1L263.0 755.9L263.0 755.6L263.0 755.4L262.9 755.1L262.8 754.9L262.6 754.6L262.4 754.4L262.2 754.1L262.1 753.9L262.0 753.6L262.0 753.4L262.0 753.1L262.0 752.9L262.0 752.6L262.0 752.4L262.0 752.1L262.0 751.9L262.0 751.6L262.0 751.4L262.0 751.1L262.0 750.9L262.0 750.6L262.0 750.4L262.0 750.1L262.0 749.9L262.0 749.6L262.0 749.4L262.0 749.1L262.0 748.9L262.0 748.6L262.0 748.4L261.9 748.1L261.8 747.9L261.6 747.6L261.4 747.4L261.2 747.1L261.1 746.9L261.0 746.6L261.0 746.4L261.0 746.1L261.0 745.9L261.0 745.6L261.0 745.4L261.0 745.1L261.0 744.9L261.0 744.6L261.0 744.4L261.0 744.1L261.0 743.9L261.0 743.6L261.0 743.4L261.0 743.1L261.0 742.9L261.0 742.6L261.0 742.4L261.0 742.1L261.0 741.9L261.0 741.6L261.0 741.4L261.0 741.1L261.0 740.9L261.0 740.6L261.0 740.4L260.9 740.1L260.8 739.9L260.6 739.6L260.4 739.4L260.2 739.1L260.1 738.9L260.0 738.6L260.0 738.4L260.0 738.1L260.0 737.9L260.0 737.6L260.0 737.4L260.0 737.1L260.0 736.9L260.0 736.6L260.0 736.4L260.0 736.1L260.0 735.9L260.0 735.6L260.0 735.4L260.0 735.1L260.0 734.9L260.0 734.6L260.0 734.4L260.0 734.1L260.0 733.9L260.0 733.6L260.0 733.4L260.0 733.1L260.0 732.9L260.0 732.6L260.0 732.4L260.0 732.1L260.0 731.9L260.0 731.6L260.0 731.4L259.9 731.1L259.8 730.9L259.6 730.6L259.4 730.4L259.2 730.1L259.1 729.9L259.0 729.6L259.0 729.4L259.0 729.1L259.0 728.9L259.0 728.6L259.0 728.4L259.0 728.1L259.0 727.9L259.0 727.6L259.0 727.4L259.0 727.1L259.0 726.9L259.0 726.6L259.0 726.4L259.0 726.1L259.0 725.9L259.0 725.6L259.0 725.4L259.0 725.1L259.0 724.9L259.0 724.6L259.0 724.4L259.0 724.1L259.0 723.9L259.0 723.6L259.0 723.4L258.9 723.1L258.8 722.9L258.6 722.6L258.4 722.4L258.2 722.1L258.1 721.9L258.0 721.6L258.0 721.4L258.0 721.1L258.0 720.9L258.0 720.6L258.0 720.4L258.0 720.1L258.0 719.9L258.0 719.6L258.0 719.4L258.0 719.1L258.0 718.9L258.0 718.6L258.0 718.4L258.0 718.1L258.0 717.9L258.0 717.6L258.0 717.4L258.0 717.1L258.0 716.9L258.0 716.6L258.0 716.4L258.0 716.1L258.0 715.9L258.0 715.6L258.0 715.4L257.9 715.1L257.8 714.9L257.6 714.6L257.4 714.4L257.2 714.1L257.1 713.9L257.0 713.6L257.0 713.4L257.0 713.1L257.0 712.9L257.0 712.6L257.0 712.4L257.0 712.1L257.0 711.9L257.0 711.6L257.0 711.4L257.0 711.1L257.0 710.9L257.0 710.6L257.0 710.4L257.0 710.1L257.0 709.9L257.0 709.6L257.0 709.4L257.0 709.1L257.0 708.9L257.0 708.6L257.0 708.4L256.9 708.1L256.8 707.9L256.6 707.6L256.4 707.4L256.2 707.1L256.1 706.9L256.0 706.6L256.0 706.4L256.0 706.1L256.0 705.9L256.0 705.6L256.0 705.4L256.0 705.1L256.0 704.9L256.0 704.6L256.0 704.4L256.0 704.1L256.0 703.9L256.0 703.6L256.0 703.4L256.0 703.1L256.0 702.9L256.0 702.6L256.0 702.4L256.0 702.1L256.0 701.9L256.0 701.6L256.0 701.4L256.0 701.1L256.0 700.9L256.0 700.6L256.0 700.4L256.0 700.1L256.0 699.9L256.0 699.6L256.0 699.4L255.9 699.1L255.8 698.9L255.6 698.6L255.4 698.4L255.2 698.1L255.1 697.9L255.0 697.6L255.0 697.4L255.0 697.1L255.0 696.9L255.0 696.6L255.0 696.4L255.0 696.1L255.0 695.9L255.0 695.6L255.0 695.4L255.0 695.1L255.0 694.9L255.0 694.6L255.0 694.4L255.0 694.1L255.0 693.9L255.0 693.6L255.0 693.4L255.0 693.1L255.0 692.9L255.0 692.6L255.0 692.4L255.0 692.1L255.0 691.9L255.0 691.6L255.0 691.4L254.9 691.1L254.8 690.9L254.6 690.6L254.4 690.4L254.2 690.1L254.1 689.9L254.0 689.6L254.0 689.4L254.0 689.1L254.0 688.9L254.0 688.6L254.0 688.4L254.0 688.1L254.0 687.9L254.0 687.6L254.0 687.4L254.0 687.1L254.0 686.9L254.0 686.6L254.0 686.4L254.0 686.1L254.0 685.9L254.0 685.6L254.0 685.4L254.0 685.1L254.0 684.9L254.0 684.6L254.0 684.4L254.0 684.1L254.0 683.9L254.0 683.6L254.0 683.4L254.0 683.1L254.0 682.9L254.0 682.6L254.0 682.4L254.0 682.1L254.0 681.9L254.0 681.6L254.0 681.4L254.0 681.1L254.0 680.9L254.0 680.6L254.0 680.4L254.0 680.1L254.0 679.9L254.0 679.6L254.0 679.4L254.0 679.1L254.0 678.9L254.0 678.6L254.0 678.4L254.0 678.1L254.0 677.9L254.0 677.6L254.0 677.4L254.0 677.1L254.0 676.9L254.0 676.6L254.0 676.4L254.0 676.1L254.0 675.9L254.0 675.6L254.0 675.4L254.0 675.1L254.0 674.9L254.0 674.6L254.0 674.4L254.0 674.1L254.0 673.9L254.0 673.6L254.0 673.4L253.9 673.1L253.8 672.9L253.6 672.6L253.4 672.4L253.2 672.1L253.1 671.9L253.0 671.6L253.0 671.4L253.0 671.1L253.0 670.9L253.0 670.6L253.0 670.4L253.0 670.1L253.0 669.9L253.0 669.6L253.0 669.4L253.0 669.1L253.0 668.9L253.0 668.6L253.0 668.4L253.0 668.1L253.0 667.9L253.0 667.6L253.0 667.4L253.0 667.1L253.0 666.9L253.0 666.6L253.0 666.4L253.0 666.1L253.0 665.9L253.0 665.6L253.0 665.4L253.0 665.1L253.0 664.9L253.0 664.6L253.0 664.4L253.0 664.1L253.0 663.9L253.0 663.6L253.0 663.4L253.0 663.1L253.0 662.9L253.0 662.6L253.0 662.4L253.0 662.1L253.0 661.9L253.0 661.6L253.0 661.4L253.0 661.1L253.0 660.9L253.0 660.6L253.0 660.4L253.0 660.1L253.0 659.9L253.0 659.6L253.0 659.4L253.0 659.1L253.0 658.9L253.0 658.6L253.0 658.4L253.0 658.1L253.0 657.9L253.0 657.6L253.0 657.4L253.0 657.1L253.0 656.9L253.0 656.6L253.0 656.4L252.9 656.1L252.8 655.9L252.6 655.6L252.4 655.4L252.2 655.1L252.1 654.9L252.0 654.6L252.0 654.4L252.0 654.1L252.0 653.9L252.0 653.6L252.0 653.4L252.0 653.1L252.0 652.9L252.0 652.6L252.0 652.4L252.0 652.1L252.0 651.9L252.0 651.6L252.0 651.4L252.0 651.1L252.0 650.9L252.0 650.6L252.0 650.4L252.0 650.1L252.0 649.9L252.0 649.6L252.0 649.4L252.0 649.1L252.0 648.9L252.0 648.6L252.0 648.4L252.0 648.1L252.0 647.9L252.0 647.6L252.0 647.4L252.0 647.1L252.0 646.9L252.0 646.6L252.0 646.4L252.0 646.1L252.0 645.9L252.0 645.6L252.0 645.4L252.0 645.1L252.0 644.9L252.0 644.6L252.0 644.4L252.0 644.1L252.0 643.9L252.0 643.6L252.0 643.4L252.0 643.1L252.0 642.9L252.0 642.6L252.0 642.4L252.0 642.1L252.0 641.9L252.0 641.6L252.0 641.4L252.0 641.1L252.0 640.9L252.0 640.6L252.0 640.4L252.0 640.1L252.0 639.9L252.0 639.6L252.0 639.4L252.0 639.1L252.0 638.9L252.0 638.6L252.0 638.4L251.9 638.1L251.8 637.9L251.6 637.6L251.4 637.4L251.2 637.1L251.1 636.9L251.0 636.6L251.0 636.4L251.0 636.1L251.0 635.9L251.0 635.6L251.0 635.4L251.0 635.1L251.0 634.9L251.0 634.6L251.0 634.4L251.0 634.1L251.0 633.9L251.0 633.6L251.0 633.4L251.0 633.1L251.0 632.9L251.0 632.6L251.0 632.4L251.1 632.1L251.2 631.9L251.4 631.6L251.6 631.4L251.8 631.1L251.9 630.9L252.0 630.6L252.0 630.4L252.0 630.1L252.0 629.9L252.0 629.6L252.0 629.4L252.0 629.1L252.0 628.9L252.0 628.6L252.0 628.4L252.0 628.1L252.0 627.9L252.0 627.6L252.0 627.4L252.0 627.1L252.0 626.9L252.0 626.6L252.0 626.4L252.0 626.1L252.0 625.9L252.0 625.6L252.0 625.4L252.0 625.1L252.0 624.9L252.0 624.6L252.0 624.4L252.0 624.1L252.0 623.9L252.0 623.6L252.0 623.4L252.0 623.1L252.0 622.9L252.0 622.6L252.0 622.4L252.0 622.1L252.0 621.9L252.0 621.6L252.0 621.4L252.1 621.1L252.2 620.9L252.4 620.6L252.6 620.4L252.8 620.1L252.9 619.9L253.0 619.6L253.0 619.4L253.0 619.1L253.0 618.9L253.0 618.6L253.0 618.4L253.0 618.1L253.0 617.9L253.0 617.6L253.0 617.4L253.0 617.1L253.0 616.9L253.0 616.6L253.0 616.4L253.0 616.1L253.0 615.9L253.0 615.6L253.0 615.4L253.0 615.1L253.0 614.9L253.0 614.6L253.0 614.4L253.0 614.1L253.0 613.9L253.0 613.6L253.0 613.4L253.0 613.1L253.0 612.9L253.0 612.6L253.0 612.4L253.0 612.1L253.0 611.9L253.0 611.6L253.0 611.4L253.1 611.1L253.2 610.9L253.4 610.6L253.6 610.4L253.8 610.1L253.9 609.9L254.0 609.6L254.0 609.4L254.0 609.1L254.0 608.9L254.0 608.6L254.0 608.4L254.0 608.1L254.0 607.9L254.0 607.6L254.0 607.4L254.0 607.1L254.0 606.9L254.0 606.6L254.0 606.4L254.0 606.1L254.0 605.9L254.0 605.6L254.0 605.4L254.0 605.1L254.0 604.9L254.0 604.6L254.0 604.4L254.0 604.1L254.0 603.9L254.0 603.6L254.0 603.4L254.1 603.1L254.2 602.9L254.4 602.6L254.6 602.4L254.8 602.1L254.9 601.9L255.0 601.6L255.0 601.4L255.0 601.1L255.0 600.9L255.0 600.6L255.0 600.4L255.0 600.1L255.0 599.9L255.0 599.6L255.0 599.4L255.0 599.1L255.0 598.9L255.0 598.6L255.0 598.4L255.0 598.1L255.0 597.9L255.0 597.6L255.0 597.4L255.0 597.1L255.0 596.9L255.0 596.6L255.0 596.4L255.0 596.1L255.0 595.9L255.0 595.6L255.0 595.4L255.0 595.1L255.0 594.9L255.0 594.6L255.0 594.4L255.1 594.1L255.2 593.9L255.4 593.6L255.6 593.4L255.8 593.1L255.9 592.9L256.0 592.6L256.0 592.4L256.0 592.1L256.0 591.9L256.0 591.6L256.0 591.4L256.0 591.1L256.0 590.9L256.0 590.6L256.0 590.4L256.0 590.1L256.0 589.9L256.0 589.6L256.0 589.4L256.0 589.1L256.0 588.9L256.0 588.6L256.0 588.4L256.0 588.1L256.0 587.9L256.0 587.6L256.0 587.4L256.1 587.1L256.2 586.9L256.4 586.6L256.6 586.4L256.8 586.1L256.9 585.9L257.0 585.6L257.0 585.4L257.0 585.1L257.0 584.9L257.0 584.6L257.0 584.4L257.0 584.1L257.0 583.9L257.0 583.6L257.0 583.4L257.0 583.1L257.0 582.9L257.0 582.6L257.0 582.4L257.0 582.1L257.0 581.9L257.0 581.6L257.0 581.4L257.0 581.1L257.0 580.9L257.0 580.6L257.0 580.4L257.0 580.1L257.0 579.9L257.0 579.6L257.0 579.4L257.1 579.1L257.2 578.9L257.4 578.6L257.6 578.4L257.8 578.1L257.9 577.9L258.0 577.6L258.0 577.4L258.0 577.1L258.0 576.9L258.0 576.6L258.0 576.4L258.0 576.1L258.0 575.9L258.0 575.6L258.0 575.4L258.0 575.1L258.0 574.9L258.0 574.6L258.0 574.4L258.0 574.1L258.0 573.9L258.0 573.6L258.0 573.4L258.0 573.1L258.0 572.9L258.0 572.6L258.0 572.4L258.1 572.1L258.2 571.9L258.4 571.6L258.6 571.4L258.8 571.1L258.9 570.9L259.0 570.6L259.0 570.4L259.0 570.1L259.0 569.9L259.0 569.6L259.0 569.4L259.0 569.1L259.0 568.9L259.0 568.6L259.0 568.4L259.0 568.1L259.0 567.9L259.0 567.6L259.0 567.4L259.0 567.1L259.0 566.9L259.0 566.6L259.0 566.4L259.1 566.1L259.2 565.9L259.4 565.6L259.6 565.4L259.8 565.1L259.9 564.9L260.0 564.6L260.0 564.4L260.0 564.1L260.0 563.9L260.0 563.6L260.0 563.4L260.0 563.1L260.0 562.9L260.0 562.6L260.0 562.4L260.0 562.1L260.0 561.9L260.0 561.6L260.0 561.4L260.0 561.1L260.0 560.9L260.0 560.6L260.0 560.4L260.0 560.1L260.0 559.9L260.0 559.6L260.0 559.4L260.1 559.1L260.2 558.9L260.4 558.6L260.6 558.4L260.8 558.1L260.9 557.9L261.0 557.6L261.0 557.4L260.9 557.1L260.8 556.9L260.6 556.6L260.4 556.4L260.2 556.1L260.1 555.9L260.0 555.6L260.0 555.4L260.1 555.1L260.2 554.9L260.4 554.6L260.6 554.4L260.8 554.1L260.9 553.9L261.0 553.6L261.0 553.4L261.0 553.1L261.0 552.9L261.0 552.6L261.0 552.4L261.0 552.1L261.0 551.9L261.0 551.6L261.0 551.4L261.0 551.1L261.0 550.9L261.0 550.6L261.0 550.4L261.0 550.1L261.0 549.9L261.0 549.6L261.0 549.4L261.1 549.1L261.2 548.9L261.4 548.6L261.6 548.4L261.8 548.1L261.9 547.9L262.0 547.6L262.0 547.4L262.0 547.1L262.0 546.9L262.0 546.6L262.0 546.4L262.0 546.1L262.0 545.9L262.0 545.6L262.0 545.4L262.0 545.1L262.0 544.9L262.0 544.6L262.0 544.4L262.0 544.1L262.0 543.9L262.0 543.6L262.0 543.4L262.1 543.1L262.2 542.9L262.4 542.6L262.6 542.4L262.8 542.1L262.9 541.9L263.0 541.6L263.0 541.4L263.1 541.1L263.2 540.9L263.4 540.6"/>
</g>
</svg>